<?xml version="1.0" encoding="UTF-8"?>
<svg version="1.1" xmlns="http://www.w3.org/2000/svg" viewBox="0 0 1254 1254">
<path d="M0 0 C413.82 0 827.64 0 1254 0 C1254 413.82 1254 827.64 1254 1254 C840.18 1254 426.36 1254 0 1254 C0 840.18 0 426.36 0 0 Z " fill="#E9F0F9" transform="translate(0,0)"/>

<path d="M0 0 C1.01188889 0.00223572 1.01188889 0.00223572 2.04421997 0.0045166 C13.55521335 0.05001259 24.65912051 0.94501924 35.9375 3.3125 C36.62231445 3.44640137 37.30712891 3.58030273 38.01269531 3.71826172 C70.28714548 10.13426687 100.97152963 29.32043676 120.9375 55.3125 C121.60523438 56.15296875 122.27296875 56.9934375 122.9609375 57.859375 C133.83410542 72.04176794 144.27553004 91.10832615 144.9375 109.3125 C145.47157471 109.10028809 146.00564941 108.88807617 146.5559082 108.66943359 C153.97742872 106.05924805 161.18073573 105.85250481 168.96704102 105.92138672 C171.10434082 105.93734574 173.23971369 105.92153388 175.37695312 105.90234375 C201.19480309 105.86086436 224.73062327 115.03242778 243.9375 132.3125 C244.64390625 132.94800781 245.3503125 133.58351563 246.078125 134.23828125 C263.01930961 150.34574614 274.88061103 173.90652211 276.9375 197.3125 C276.96097256 199.31236225 276.96673664 201.31271371 276.9375 203.3125 C278.80728516 203.22548828 278.80728516 203.22548828 280.71484375 203.13671875 C305.60048981 202.32982947 328.15811005 211.79111029 346.3984375 228.7890625 C361.46724647 243.76514034 373.45767704 264.51482827 373.9375 286.3125 C373.99550781 288.22289062 373.99550781 288.22289062 374.0546875 290.171875 C374.57564689 315.0427577 367.44585608 337.93383858 350.09277344 356.16601562 C348.72206544 357.56244226 347.32999937 358.93780247 345.9375 360.3125 C345.1125 361.13621094 344.2875 361.95992187 343.4375 362.80859375 C328.23771487 377.25326135 307.44194018 384.67174929 286.64292908 384.55300903 C284.98368096 384.55557231 284.98368096 384.55557231 283.29091269 384.55818737 C279.60134563 384.56146957 275.91196229 384.55049936 272.22241211 384.53955078 C269.57086784 384.53898639 266.91933466 384.5392158 264.26779175 384.54043579 C258.5679174 384.54148184 252.86808903 384.53523459 247.16822624 384.52396011 C238.92730246 384.50767001 230.68640079 384.50249352 222.44546265 384.49998413 C209.07341108 384.49561253 195.70138399 384.48231795 182.3293457 384.46337891 C169.34366986 384.44500625 156.35800068 384.43085653 143.37231445 384.42236328 C142.57117715 384.42183783 141.77003986 384.42131239 140.94462567 384.42077102 C136.92534625 384.41816084 132.90606679 384.41563345 128.8867873 384.41314721 C95.57034045 384.39243136 62.25392323 384.35722042 28.9375 384.3125 C29.49709066 379.52861594 30.05345779 375.36688717 31.78515625 370.84375 C39.24790467 351.56998329 39.24790467 351.56998329 36.25 331.6875 C35.16422375 329.91220261 35.16422375 329.91220261 33.9375 328.3125 C33.174375 327.24 32.41125 326.1675 31.625 325.0625 C25.68935516 318.9888169 19.65393215 317.17570644 11.3125 317 C2.44720154 317.08285326 -4.75045952 319.2667076 -11.3046875 325.37890625 C-14.31579391 328.6911233 -16.91504751 332.28972515 -19.546875 335.90625 C-22.25264152 339.61206783 -25.11802213 343.18050643 -28 346.75 C-31.7122638 351.36229504 -35.39061167 355.99412329 -39 360.6875 C-39.77357692 361.66389624 -40.54715384 362.64029247 -41.34417248 363.64627647 C-43.31231535 366.20293565 -44.98190972 368.81973511 -46.60361958 371.607584 C-53.48771694 382.8269296 -53.48771694 382.8269296 -59.4112165 385.28855467 C-66.10274782 386.83130584 -72.91347605 386.4987016 -79.7331543 386.32177734 C-82.01127812 386.32517257 -84.28940106 386.33599624 -86.56745911 386.3536377 C-92.72684761 386.37977391 -98.88079364 386.30070843 -105.03926063 386.20085478 C-111.5062245 386.11274969 -117.97316176 386.11785288 -124.44062805 386.11148071 C-135.30471619 386.08754132 -146.16673379 386.00086944 -157.0300293 385.86962891 C-168.16785467 385.73517813 -179.30449702 385.65002199 -190.44311523 385.62353516 C-191.12847954 385.62189587 -191.81384384 385.62025659 -192.51997676 385.61856763 C-193.9010016 385.61530615 -195.28202646 385.61205533 -196.66305136 385.60881523 C-197.34456991 385.60721428 -198.02608846 385.60561332 -198.72825909 385.60396385 C-199.40823253 385.602391 -200.08820597 385.60081816 -200.78878466 385.59919765 C-212.10089223 385.57131574 -223.41276159 385.49873985 -234.72463632 385.42284822 C-238.5567003 385.39854859 -242.38876638 385.3794298 -246.22086143 385.36075974 C-252.26980063 385.32822465 -258.31794118 385.2686393 -264.36643791 385.18902588 C-266.57284876 385.16347482 -268.77937017 385.14588548 -270.98591232 385.13731766 C-298.29468913 385.01632618 -319.97712929 377.67962424 -340.25 358.625 C-348.62864439 349.95000485 -354.57298277 339.45644 -359.0625 328.3125 C-359.50529297 327.25289063 -359.50529297 327.25289063 -359.95703125 326.171875 C-363.83200459 316.47489738 -364.37637736 307.35345574 -364.3125 297 C-364.32023438 295.75798828 -364.32796875 294.51597656 -364.3359375 293.23632812 C-364.2872187 270.00964213 -356.1860876 248.70943609 -339.84375 232.05859375 C-338.9259375 231.15238281 -338.008125 230.24617187 -337.0625 229.3125 C-336.2478125 228.49910156 -335.433125 227.68570313 -334.59375 226.84765625 C-320.21147657 213.18916606 -300.33146961 203.19562651 -280.25 203.125 C-278.52034234 203.17198941 -276.79075191 203.22842288 -275.0625 203.3125 C-275.10375 202.19875 -275.145 201.085 -275.1875 199.9375 C-275.14891752 177.98406976 -263.61712242 157.22683677 -248.9375 141.6875 C-229.83715512 123.14347584 -207.77109842 117.8964722 -181.859375 118.078125 C-174.31050349 118.24087016 -167.32925488 119.26758406 -160.0625 121.3125 C-159.91554688 120.40479858 -159.91554688 120.40479858 -159.765625 119.47875977 C-158.60892253 113.00159986 -156.7044791 107.26385897 -154.0625 101.25 C-153.66514648 100.34096924 -153.26779297 99.43193848 -152.85839844 98.49536133 C-134.37390917 57.17262799 -99.09872761 26.36995771 -57.0625 10.3125 C-51.47005697 8.37577032 -45.78484921 6.81184421 -40.0625 5.3125 C-38.98226563 5.01601562 -37.90203125 4.71953125 -36.7890625 4.4140625 C-24.56984278 1.17484677 -12.62811353 -0.05358575 0 0 Z " fill="#777779" transform="translate(617.0625,177.6875)"/>
<path d="M0 0 C3.52089043 0.00511001 7.04176338 -0.00146082 10.56265128 -0.00648667 C16.7232472 -0.0136862 22.88380802 -0.01350563 29.04440552 -0.00839235 C38.20567654 -0.00080928 47.3669181 -0.00470426 56.52818893 -0.01080896 C72.8930427 -0.02132831 89.25788083 -0.02043246 105.62273607 -0.01465113 C119.94467355 -0.00961648 134.2666053 -0.00830827 148.58854348 -0.01069642 C149.53921084 -0.01084919 150.4898782 -0.01100196 151.46935366 -0.01115936 C155.3286064 -0.01178206 159.18785913 -0.01241886 163.04711187 -0.01307889 C199.23780678 -0.01919461 235.42849175 -0.01365366 271.61918514 -0.0028851 C303.75788138 0.00660509 335.89656177 0.00575723 368.03525788 -0.00380708 C404.15900883 -0.01452144 440.282751 -0.01876009 476.40650332 -0.01258255 C480.25896194 -0.01194114 484.11142055 -0.01131545 487.96387917 -0.01069642 C489.38669694 -0.01045919 489.38669694 -0.01045919 490.83825851 -0.01021717 C505.14893712 -0.00794425 519.45960937 -0.01059901 533.7702871 -0.01565553 C550.04639806 -0.02137791 566.32249096 -0.01993616 582.59859967 -0.00909404 C591.70262728 -0.00322921 600.80661577 -0.00282693 609.91064235 -0.01038639 C615.99778387 -0.01488245 622.08489412 -0.01205966 628.17203102 -0.00337685 C631.63619898 0.00136402 635.10028942 0.00304239 638.56445485 -0.00418882 C655.41042216 -0.03166886 671.29353735 0.33711434 687.65561921 4.69443511 C688.51389313 4.91687896 689.37216706 5.1393228 690.25644929 5.36850737 C692.62193193 5.98652041 694.98327279 6.61778739 697.34311921 7.25693511 C698.29960358 7.51474761 699.25608796 7.77256011 700.24155671 8.03818511 C702.62976594 8.72285943 704.98297345 9.48099678 707.34311921 10.25693511 C709.12395905 10.79834136 709.12395905 10.79834136 710.94077546 11.35068511 C735.98064147 19.28264315 758.10616082 34.6595926 777.34311921 52.25693511 C778.2854239 53.11545073 779.22772858 53.97396636 780.19858796 54.85849761 C804.01079803 77.60551502 824.5013934 111.75195413 828.97983796 144.72959136 C829.30679194 147.0042067 829.78770042 149.11004203 830.40561921 151.31943511 C832.71964638 160.1083251 832.48926175 169.4305092 832.47454697 178.45272635 C832.47762592 180.23005474 832.47762592 180.23005474 832.48076708 182.04328876 C832.48542824 185.3152707 832.48566964 188.58721753 832.48398949 191.85920122 C832.48325429 195.42550945 832.48829089 198.99181049 832.4925645 202.55811559 C832.50012201 209.6239057 832.50233642 216.68968824 832.50289356 223.75548197 C832.50380943 232.22226022 832.51048357 240.68903154 832.51724038 249.15580679 C832.53327977 269.61677689 832.53920131 290.07774624 832.54398913 310.5387215 C832.54632713 320.22311933 832.54993001 329.90751657 832.55368451 339.59191393 C832.56651815 372.75994914 832.57723752 405.92798401 832.58068711 439.09602164 C832.58090874 441.1770555 832.58113052 443.25808936 832.58135246 445.33912322 C832.5815731 447.42510296 832.58179358 449.51108271 832.58201391 451.59706246 C832.58245645 455.781701 832.58290357 459.96633954 832.58335358 464.15097808 C832.58346297 465.18852059 832.58357237 466.2260631 832.58368507 467.29504629 C832.58731481 500.9290203 832.60323268 534.56297275 832.62654395 568.1969385 C832.65116028 603.77910942 832.66486078 639.36126802 832.66605503 674.9434477 C832.66622647 678.85223046 832.6664419 682.76101322 832.66668946 686.66979598 C832.66674523 687.63220763 832.666801 688.59461928 832.66685846 689.58619491 C832.66800732 705.04922702 832.67901523 720.51223693 832.69357652 735.97526155 C832.70796897 751.52837075 832.711163 767.0814516 832.70313654 782.63456563 C832.69869327 791.86397923 832.70248853 801.0933011 832.71837504 810.32270258 C832.72817311 816.50118283 832.72690108 822.67959928 832.71693882 828.85807904 C832.71158135 832.36957848 832.71072325 835.88090263 832.72344754 839.39238707 C832.78766447 861.2254416 831.29405542 881.4919375 824.34311921 902.25693511 C824.09046296 903.03891265 823.83780671 903.82089019 823.57749421 904.62656401 C807.24841238 955.08462753 773.44312861 996.06302277 726.3484903 1020.78427886 C717.00185326 1025.36420694 707.17042479 1028.86376579 697.34311921 1032.25693511 C696.6147989 1032.50943023 695.88647858 1032.76192534 695.13608796 1033.02207183 C676.452174 1039.33224463 657.39855047 1039.70327516 637.89007766 1039.64233777 C634.34097331 1039.63463386 630.79190671 1039.644544 627.24280793 1039.65206777 C621.04030896 1039.66283935 614.83788851 1039.66261356 608.63538605 1039.65492629 C599.41168051 1039.64352595 590.18804056 1039.64940736 580.96433539 1039.65855121 C564.48582922 1039.67431026 548.00735805 1039.67299451 531.52884859 1039.66431447 C517.10788558 1039.65675591 502.68693536 1039.65480324 488.26597077 1039.6583824 C487.30790953 1039.65861156 486.34984829 1039.65884072 485.36275489 1039.65907681 C481.473282 1039.66001089 477.58380911 1039.6609661 473.69433624 1039.66195611 C437.23781499 1039.67112488 400.78131598 1039.66282578 364.32479817 1039.64666541 C331.96370577 1039.63242952 299.6026488 1039.63370344 267.24155671 1039.64804839 C230.85001066 1039.66412619 194.45848424 1039.67047453 158.06693513 1039.6612116 C154.18471264 1039.6602495 150.30249014 1039.65931098 146.42026765 1039.6583824 C145.46442576 1039.65814517 144.50858387 1039.65790794 143.52377707 1039.65766352 C129.11491957 1039.65425684 114.7060763 1039.65823121 100.29722077 1039.66582106 C83.90715191 1039.67441168 67.51712338 1039.672227 51.12705952 1039.65597883 C41.96384265 1039.64719361 32.80071322 1039.64656063 23.63749868 1039.65791736 C17.50597131 1039.66467602 11.37451362 1039.66040131 5.24299652 1039.64740305 C1.75682189 1039.64031168 -1.72917986 1039.63773147 -5.21534866 1039.648621 C-23.87495208 1039.69412931 -41.74370752 1038.94004846 -59.65688079 1033.25693511 C-60.34846282 1033.05680816 -61.04004485 1032.8566812 -61.75258392 1032.6504898 C-88.94765373 1024.77586105 -113.09805456 1010.65860414 -133.65688079 991.25693511 C-134.96583494 990.14856725 -136.27825808 989.04428114 -137.59438079 987.94443511 C-153.84498147 973.64390651 -165.86516545 955.39645193 -175.65688079 936.25693511 C-176.01620696 935.56277495 -176.37553314 934.8686148 -176.74574798 934.15341948 C-194.29374376 899.89843785 -197.97871168 864.62711413 -197.91084808 826.70270537 C-197.91204915 823.86835598 -197.91625498 821.0340127 -197.92030257 818.19966613 C-197.92747128 812.07444851 -197.92734084 805.94926625 -197.92220824 799.82404708 C-197.91459656 790.71524381 -197.91853481 781.60646999 -197.92462486 772.49766688 C-197.93512183 756.22339328 -197.93425743 739.94913545 -197.92846703 723.67486038 C-197.92342524 709.43375507 -197.92212749 695.19265553 -197.92451232 680.95154952 C-197.92466509 680.00493039 -197.92481786 679.05831127 -197.92497526 678.08300672 C-197.92559799 674.2398746 -197.9262348 670.39674249 -197.92689479 666.55361038 C-197.93300506 630.54387061 -197.92747797 594.53414086 -197.916701 558.52440265 C-197.9072091 526.56561253 -197.90806123 494.60683836 -197.91762298 462.64804839 C-197.92834279 426.69888473 -197.93257316 390.74972991 -197.92639845 354.80056487 C-197.92575706 350.96527297 -197.92513138 347.12998107 -197.92451232 343.29468917 C-197.92435417 342.35041941 -197.92419601 341.40614964 -197.92403307 340.43326565 C-197.92176263 326.20334252 -197.92441022 311.9734258 -197.92947143 297.74350356 C-197.93519988 281.55739408 -197.93373905 265.37130276 -197.92290994 249.18519554 C-197.91705575 240.13772285 -197.91662735 231.09028951 -197.92420229 222.04281787 C-197.92871116 215.98727598 -197.92585273 209.93176541 -197.91719275 203.87622814 C-197.91246951 200.43435045 -197.91073587 196.99255052 -197.91800472 193.55067549 C-197.95038385 173.90849081 -197.8072091 154.61334314 -192.28188079 135.63193511 C-191.99055267 134.56588042 -191.69922454 133.49982573 -191.39906829 132.40146636 C-186.57981844 115.17476185 -178.91626857 97.9347567 -168.65688079 83.25693511 C-167.91953704 82.16252105 -167.18219329 81.06810698 -166.42250579 79.94052886 C-160.93065877 71.90576867 -154.8449177 64.70533755 -148.07240814 57.72373198 C-146.78739962 56.39218125 -145.52726957 55.03673313 -144.27016204 53.67881011 C-131.49974288 40.23626362 -115.79541322 30.17044726 -99.65688079 21.25693511 C-98.96191497 20.87166655 -98.26694915 20.486398 -97.55092376 20.08945464 C-79.90350122 10.53241704 -59.44443926 5.13727762 -39.65688079 2.25693511 C-38.43362497 2.01722342 -38.43362497 2.01722342 -37.1856569 1.77266907 C-24.87245253 -0.39470875 -12.4604207 -0.02598317 0 0 Z M-142.38246673 83.2754898 C-149.62008068 92.21177403 -155.33918907 102.08912814 -160.65688079 112.25693511 C-161.16082366 113.19690337 -161.16082366 113.19690337 -161.6749472 114.15586089 C-164.38943956 119.35679177 -166.33959868 124.68565267 -168.15688079 130.25693511 C-168.60861663 131.63244536 -168.60861663 131.63244536 -169.06947845 133.0357437 C-174.19136 148.8752795 -176.81743447 163.66379598 -176.78551524 180.35178469 C-176.78726828 181.52575046 -176.78902132 182.69971623 -176.79082748 183.90925672 C-176.79466177 187.15059363 -176.79406689 190.39189381 -176.79154971 193.63323086 C-176.78990858 197.16627293 -176.79406413 200.69930915 -176.79745888 204.23234932 C-176.80260137 210.41902034 -176.80403208 216.60568354 -176.80300277 222.79235648 C-176.80147582 231.99261651 -176.80564409 241.19286791 -176.8108774 250.39312626 C-176.82054289 267.78296844 -176.82336134 285.17280767 -176.82393445 302.56265223 C-176.82439422 315.9942547 -176.82645371 329.42585601 -176.82963508 342.8574581 C-176.83053264 346.72551025 -176.83142246 350.59356239 -176.83230996 354.46161454 C-176.832531 355.42326223 -176.83275205 356.38490993 -176.8329798 357.37569847 C-176.83913316 384.42159825 -176.84308045 411.46749764 -176.84263652 438.51339816 C-176.84262094 439.53287449 -176.84260536 440.55235082 -176.84258931 441.60272038 C-176.84250621 446.76969351 -176.84240717 451.93666664 -176.84230461 457.10363978 C-176.84228466 458.1297938 -176.84226471 459.15594782 -176.84224417 460.21319741 C-176.84220373 462.2883311 -176.84216193 464.3634648 -176.84211877 466.43859849 C-176.84150614 498.7178109 -176.8490107 530.99701281 -176.86269134 563.27622222 C-176.87806029 599.55379725 -176.88665706 635.83136538 -176.88572812 672.10894387 C-176.88565349 675.9791965 -176.88560478 679.84944913 -176.8855738 683.71970176 C-176.88556215 684.67263362 -176.88555049 685.62556548 -176.88553848 686.60737407 C-176.88550774 701.92593875 -176.89188684 717.24449429 -176.90050606 732.56305625 C-176.90899335 747.966002 -176.90996408 763.36893442 -176.90339674 778.77188122 C-176.89970822 787.91525637 -176.90151256 797.05859094 -176.91133908 806.20196177 C-176.91735633 812.31926392 -176.9160243 818.4365368 -176.90886859 824.55383763 C-176.90500175 828.03282653 -176.90416865 831.51173713 -176.91232594 834.99072039 C-176.94949306 854.67539869 -176.56768118 873.33955248 -170.65688079 892.25693511 C-170.44015716 892.96318023 -170.22343353 893.66942534 -170.00014251 894.39707183 C-161.98968325 920.26264663 -150.12145385 943.07314874 -131.64516204 963.08115386 C-130.04981258 964.82694884 -128.55752347 966.58981613 -127.09438079 968.44443511 C-123.90585773 972.12350018 -120.40649667 975.16097651 -116.65688079 978.25693511 C-115.66816985 979.08322417 -114.67945892 979.90951323 -113.66078704 980.76084136 C-96.51037711 994.8267183 -77.33546683 1005.48171095 -56.15688079 1012.06943511 C-55.26847503 1012.34755034 -54.38006927 1012.62566558 -53.46474212 1012.91220855 C-36.16251277 1018.02334655 -19.6661323 1018.69738985 -1.73801904 1018.63613641 C1.7680552 1018.62753522 5.27409508 1018.63654778 8.78016752 1018.64320057 C14.91010468 1018.65245037 21.03995961 1018.65067704 27.16989571 1018.64146804 C36.28551439 1018.62781155 45.40107047 1018.63145224 54.51669379 1018.63842664 C70.80065137 1018.65032867 87.08457013 1018.64528638 103.36852556 1018.63314837 C117.61789655 1018.6225996 131.86725433 1018.61807448 146.11662919 1018.61944388 C147.06293129 1018.61952791 148.00923339 1018.61961194 148.98421131 1018.61969852 C152.82582925 1018.62005078 156.6674472 1018.6204348 160.50906514 1018.6208641 C196.52192145 1018.62482624 232.53475441 1018.61212468 268.54760404 1018.59133753 C300.52567228 1018.57296608 332.50371814 1018.56715631 364.48179108 1018.57260894 C366.53547252 1018.57295537 368.58915396 1018.57330147 370.6428354 1018.57364723 C371.65814916 1018.57381822 372.67346292 1018.57398922 373.71954377 1018.57416539 C378.83077151 1018.57501897 383.94199926 1018.57584275 389.05322701 1018.5766344 C390.06165061 1018.57679148 391.07007421 1018.57694856 392.1090561 1018.5771104 C418.85124295 1018.58110232 445.59342765 1018.57562242 472.3356132 1018.5671231 C475.21378266 1018.56621609 478.09195212 1018.56531044 480.97012158 1018.56440787 C482.87931912 1018.56380676 484.78851665 1018.56319814 486.69771418 1018.56258196 C499.99491041 1018.55836444 513.29210242 1018.55778072 526.5892991 1018.55968746 C543.72575231 1018.56213255 560.86218286 1018.55804132 577.99862989 1018.54247745 C587.05601382 1018.53444034 596.11336004 1018.53181598 605.17074621 1018.53711981 C611.22669282 1018.54010466 617.2826062 1018.5357699 623.33854487 1018.52557124 C626.78484053 1018.51996484 630.23105949 1018.5174082 633.67735567 1018.52373781 C653.09953858 1018.5735989 653.09953858 1018.5735989 672.34311921 1016.25693511 C673.20223487 1016.1137119 674.06135054 1015.97048869 674.94650001 1015.82292538 C703.58195174 1010.97183637 730.55698186 996.07223554 752.34311921 977.25693511 C753.14491608 976.57759917 753.94671296 975.89826323 754.77280671 975.19834136 C759.76405871 970.88771463 764.17656671 966.36432204 768.34311921 961.25693511 C768.74788483 960.76451323 769.15265046 960.27209136 769.56968171 959.76474761 C785.58327565 940.19257724 797.43493349 918.70542873 804.68038113 894.39952508 C805.34379139 892.25476197 806.07552568 890.14282612 806.81533671 888.02334707 C812.22695991 871.76255491 811.78290556 854.58386611 811.73472323 837.6478016 C811.72793346 834.07569542 811.73871906 830.50363097 811.74711907 826.9315341 C811.75942198 820.68856687 811.76072621 814.44567487 811.75456864 808.20269965 C811.74543632 798.9186514 811.75354255 789.6346721 811.76485988 780.35062911 C811.78448246 763.76352643 811.78688268 747.17645507 811.78166468 730.58934355 C811.77710011 716.07145552 811.7777159 701.55357985 811.78350503 687.0356922 C811.78426191 685.08513534 811.78501789 683.13457848 811.78577297 681.18402161 C811.78691822 678.24438396 811.7880681 675.30474631 811.78923222 672.36510867 C811.79993048 645.05055758 811.80466938 617.73601059 811.79676205 590.42145823 C811.79646488 589.39274802 811.79616771 588.36403781 811.79586153 587.30415456 C811.79341282 578.95134238 811.79080112 570.59853024 811.7881774 562.24571811 C811.77807624 529.66976631 811.78643063 497.09386605 811.80967194 464.51792144 C811.83576831 427.88133426 811.84858617 391.2447781 811.84148419 354.60818129 C811.84076818 350.69866263 811.84009379 346.78914397 811.83944375 342.87962531 C811.83918903 341.43579225 811.83918903 341.43579225 811.83892917 339.96279085 C811.83663033 325.45991759 811.84458334 310.95707323 811.85773522 296.45420646 C811.87267305 279.95295819 811.87345404 263.45177746 811.85566431 246.9505306 C811.84612971 237.72793014 811.84747782 228.5054874 811.864899 219.28289761 C811.87544189 213.10795814 811.87121367 206.93313795 811.85541896 200.75821011 C811.84684473 197.24966238 811.84421865 193.74142204 811.85968828 190.23289092 C812.00677929 148.17130804 800.53347873 108.57151727 771.34311921 77.25693511 C770.74725007 76.61723784 770.15138093 75.97754058 769.53745515 75.31845855 C750.26368515 54.86886119 727.83280444 40.65329711 701.34311921 31.25693511 C700.62495026 31.00186187 699.90678132 30.74678862 699.16684968 30.48398589 C681.93202776 24.48521474 664.55733536 22.09944087 646.3330856 22.11992072 C645.1682701 22.11726889 644.0034546 22.11461707 642.80334166 22.11188488 C639.58761546 22.10557218 636.37192243 22.10365557 633.15619118 22.10366211 C629.65078743 22.10258556 626.14539379 22.09578597 622.6399957 22.0897554 C615.6950848 22.0787211 608.75017895 22.0730415 601.80526085 22.06904653 C593.48291586 22.06402234 585.16058057 22.05329255 576.83824133 22.04256479 C555.76921235 22.01576276 534.70017878 22.00068526 513.63113776 21.98722367 C507.92092739 21.98355062 502.21071728 21.97954798 496.50050718 21.97547101 C461.02226037 21.95020705 425.54401307 21.92817015 390.06575925 21.91574286 C381.8516533 21.91282179 373.63754738 21.90985421 365.42344147 21.90683745 C364.40299603 21.90646654 363.38255058 21.90609563 362.33118255 21.90571349 C329.26566117 21.89356515 296.20019311 21.8626305 263.13469675 21.82091593 C229.11152965 21.77807179 195.08839069 21.75149474 161.06519588 21.74626815 C156.25367805 21.74552778 151.44216026 21.74461712 146.63064248 21.74361037 C145.6837826 21.74341976 144.73692272 21.74322914 143.76137012 21.74303275 C128.56337742 21.7395281 113.36545183 21.71927175 98.16748372 21.69281373 C82.87192431 21.66658869 67.57644194 21.65897556 52.28086328 21.66991502 C43.21018153 21.67586383 34.13976227 21.66812874 25.06912058 21.64008419 C18.99007268 21.62269093 12.91120154 21.62389892 6.8321494 21.63945187 C3.38133254 21.64777432 -0.0685886 21.64591779 -3.51941991 21.62684042 C-57.92594867 21.34470183 -106.80372213 41.65621131 -142.38246673 83.2754898 Z " fill="#1E65A9" transform="translate(309.65688079129905,100.74306489154696)"/>
<path d="M0 0 C3.09610007 1.30724225 4.66294032 2.61799902 6.875 5.125 C9.63684847 12.18305719 6.19496661 20.19956717 3.8125 27 C3.47009277 28.00200439 3.12768555 29.00400879 2.77490234 30.03637695 C1.98317148 32.35060184 1.18728968 34.66340908 0.38818359 36.97509766 C-1.18726917 41.53426505 -2.73993444 46.10112582 -4.29296875 50.66796875 C-9.57410067 66.18760428 -14.88793327 81.69564678 -20.25 97.1875 C-24.03218455 108.11484029 -27.71706629 119.0720989 -31.33886719 130.0534668 C-33.70904579 137.21722517 -36.15857849 144.34872596 -38.6574707 151.46850586 C-38.97997047 152.38859184 -39.30247025 153.30867783 -39.63474274 154.2566452 C-40.42273555 156.50458001 -41.21116379 158.75236105 -42 161 C-40.77304413 160.99333817 -39.54608826 160.98667633 -38.2819519 160.97981262 C-26.71695889 160.91898774 -15.15199834 160.87402065 -3.58688164 160.84456348 C2.35881341 160.82891014 8.30437929 160.80767762 14.25 160.77368164 C19.9882522 160.74107683 25.72638018 160.72314449 31.46471786 160.71536827 C33.6535729 160.70982682 35.84242117 160.69900575 38.0312233 160.68280983 C41.09795047 160.661021 44.16416485 160.65803373 47.23095703 160.65942383 C48.13510849 160.648638 49.03925995 160.63785217 49.97080994 160.6267395 C55.90639835 160.65583709 60.10335697 161.60277818 64.8125 165.5 C67.57107956 168.98452155 67.35901115 172.76366844 67 177 C64.4367879 181.22006317 61.45797277 185.09876334 58.4375 189 C58.00477783 189.55905029 57.57205566 190.11810059 57.1262207 190.6940918 C55.75351244 192.46484358 54.37719182 194.2327337 53 196 C52.56236328 196.56283691 52.12472656 197.12567383 51.67382812 197.70556641 C46.40508434 204.47547159 41.05710897 211.17298505 35.625 217.8125 C31.07394032 223.37573377 26.65383331 229.02174517 22.3125 234.75 C17.83784577 240.65372532 13.23706172 246.39042206 8.45703125 252.05078125 C4.32516046 257.01033999 0.37303312 262.10985969 -3.59570312 267.20019531 C-5.9532908 270.22177673 -8.32016236 273.23605506 -10.6875 276.25 C-11.1510791 276.84055176 -11.6146582 277.43110352 -12.09228516 278.03955078 C-14.647535 281.29127257 -17.21958192 284.52816137 -19.8125 287.75 C-24.15264662 293.15739579 -28.39676277 298.63863836 -32.64892578 304.11523438 C-38.50591239 311.65749337 -44.40556746 319.16558307 -50.31347656 326.66796875 C-59.93989406 338.89515782 -69.52148041 351.15769124 -79 363.5 C-87.53347674 374.61173573 -96.14884019 385.66012063 -104.81396484 396.66943359 C-112.24023686 406.11144671 -119.62861536 415.58479275 -126.92871094 425.12475586 C-131.00886764 430.45477281 -135.13759249 435.74391819 -139.3125 441 C-139.80443848 441.62350342 -140.29637695 442.24700684 -140.80322266 442.8894043 C-148.53125679 452.57245489 -148.53125679 452.57245489 -152.28125 453.6640625 C-156.69308774 453.5863893 -158.44569314 453.45037433 -162 450.5625 C-162.66 449.716875 -163.32 448.87125 -164 448 C-164.33 447.67 -164.66 447.34 -165 447 C-165.67231685 440.43407584 -163.58673391 435.2409871 -161.2734375 429.16015625 C-160.88813873 428.12040146 -160.50283997 427.08064667 -160.10586548 426.00938416 C-158.87285554 422.68968825 -157.62421463 419.37612744 -156.375 416.0625 C-155.55755591 413.86952721 -154.74113966 411.67617099 -153.92578125 409.48242188 C-151.97817268 404.24995319 -150.01832632 399.02219897 -148.05212402 393.79669189 C-146.81877113 390.51826847 -145.58924617 387.23842101 -144.36026001 383.95835876 C-142.77799705 379.7357132 -141.19319791 375.51402085 -139.60668945 371.29296875 C-138.01530668 367.04899535 -136.44033407 362.79899182 -134.86585999 358.54872131 C-133.20474228 354.06541494 -131.54016489 349.58339499 -129.87573242 345.10131836 C-129.00104475 342.74426354 -128.12734486 340.38684192 -127.25463867 338.02905273 C-125.98626761 334.60299296 -124.71417884 331.17833291 -123.44140625 327.75390625 C-123.05586075 326.70989151 -122.67031525 325.66587677 -122.27308655 324.59022522 C-120.2896233 319.26458015 -118.20204993 314.03146658 -115.82872009 308.86680603 C-114.68994116 306.3015498 -113.83320133 303.67814714 -113 301 C-111.83443663 297.39403832 -110.594248 293.93759726 -109 290.5 C-106.96308362 286.09994234 -105.49165307 281.58163117 -104 276.97265625 C-103.0896194 274.26640766 -102.08486827 271.64012863 -101 269 C-99.12139939 264.41768792 -97.54799012 259.76673334 -96.02734375 255.0546875 C-95.20743203 252.61677507 -94.34267414 250.21499777 -93.43579102 247.80908203 C-93.16662369 247.09414581 -92.89745636 246.37920959 -92.62013245 245.64260864 C-92.41548874 245.10054779 -92.21084503 244.55848694 -92 244 C-93.04125534 244.00888245 -94.08251068 244.01776489 -95.15531921 244.0269165 C-104.96936882 244.10801209 -114.78335043 244.1679701 -124.59765911 244.20724869 C-129.64329178 244.22812116 -134.6886539 244.25643274 -139.73413086 244.30175781 C-144.60355602 244.34522748 -149.47272099 244.36913967 -154.34232521 244.37950897 C-156.1998892 244.38689832 -158.057439 244.40132803 -159.9148922 244.42292023 C-162.51738604 244.45196935 -165.11880559 244.45595541 -167.72143555 244.45410156 C-168.4889212 244.46848267 -169.25640686 244.48286377 -170.04714966 244.49768066 C-175.00230262 244.45950198 -177.51332305 243.52092347 -181 240 C-183.54821817 236.48103206 -183.55605699 233.23993458 -183 229 C-181.87597656 226.98413086 -181.87597656 226.98413086 -180.390625 224.83984375 C-179.84535156 224.04989014 -179.30007813 223.25993652 -178.73828125 222.44604492 C-175.94701231 218.51827477 -173.1201848 214.62049158 -170.25 210.75 C-169.63874268 209.92298584 -169.02748535 209.09597168 -168.39770508 208.24389648 C-164.08597267 202.42540322 -159.70460574 196.66616315 -155.26953125 190.94140625 C-153.11245912 188.14575166 -150.98789794 185.32913453 -148.875 182.5 C-145.40570459 177.85591673 -141.89788197 173.24299367 -138.37695312 168.63793945 C-132.47160858 160.9133633 -126.61620067 153.15997366 -120.875 145.3125 C-115.74247323 138.30069226 -110.47563796 131.40959125 -105.11767578 124.56884766 C-100.75680951 118.99533408 -96.48899693 113.35875938 -92.25732422 107.68676758 C-88.80686704 103.06481616 -85.30753969 98.48411033 -81.77929688 93.92138672 C-78.56033336 89.74974264 -75.40098508 85.53563442 -72.25 81.3125 C-67.34046591 74.7392014 -62.33134488 68.24897042 -57.28222656 61.7824707 C-53.32431233 56.71118933 -49.39985841 51.61603912 -45.5 46.5 C-40.38625461 39.79387116 -35.22456919 33.12654366 -30.03930664 26.47558594 C-25.72393231 20.93878757 -21.44259698 15.37712879 -17.18359375 9.796875 C-8.80761168 -0.93157431 -8.80761168 -0.93157431 0 0 Z " fill="#E09C07" transform="translate(631,512)"/>
<path d="M0 0 C1.01188889 0.00223572 1.01188889 0.00223572 2.04421997 0.0045166 C13.55521335 0.05001259 24.65912051 0.94501924 35.9375 3.3125 C36.62231445 3.44640137 37.30712891 3.58030273 38.01269531 3.71826172 C70.28714548 10.13426687 100.97152963 29.32043676 120.9375 55.3125 C121.60523438 56.15296875 122.27296875 56.9934375 122.9609375 57.859375 C133.83410542 72.04176794 144.27553004 91.10832615 144.9375 109.3125 C145.47157471 109.10028809 146.00564941 108.88807617 146.5559082 108.66943359 C153.97742872 106.05924805 161.18073573 105.85250481 168.96704102 105.92138672 C171.10434082 105.93734574 173.23971369 105.92153388 175.37695312 105.90234375 C201.19480309 105.86086436 224.73062327 115.03242778 243.9375 132.3125 C244.64390625 132.94800781 245.3503125 133.58351563 246.078125 134.23828125 C263.01930961 150.34574614 274.88061103 173.90652211 276.9375 197.3125 C276.96097256 199.31236225 276.96673664 201.31271371 276.9375 203.3125 C278.80728516 203.22548828 278.80728516 203.22548828 280.71484375 203.13671875 C305.60048981 202.32982947 328.15811005 211.79111029 346.3984375 228.7890625 C361.46724647 243.76514034 373.45767704 264.51482827 373.9375 286.3125 C373.99550781 288.22289062 373.99550781 288.22289062 374.0546875 290.171875 C374.57564689 315.0427577 367.44585608 337.93383858 350.09277344 356.16601562 C348.72206544 357.56244226 347.32999937 358.93780247 345.9375 360.3125 C345.1125 361.13621094 344.2875 361.95992187 343.4375 362.80859375 C328.23771487 377.25326135 307.44194018 384.67174929 286.64292908 384.55300903 C284.98368096 384.55557231 284.98368096 384.55557231 283.29091269 384.55818737 C279.60134563 384.56146957 275.91196229 384.55049936 272.22241211 384.53955078 C269.57086784 384.53898639 266.91933466 384.5392158 264.26779175 384.54043579 C258.5679174 384.54148184 252.86808903 384.53523459 247.16822624 384.52396011 C238.92730246 384.50767001 230.68640079 384.50249352 222.44546265 384.49998413 C209.07341108 384.49561253 195.70138399 384.48231795 182.3293457 384.46337891 C169.34366986 384.44500625 156.35800068 384.43085653 143.37231445 384.42236328 C142.57117715 384.42183783 141.77003986 384.42131239 140.94462567 384.42077102 C136.92534625 384.41816084 132.90606679 384.41563345 128.8867873 384.41314721 C95.57034045 384.39243136 62.25392323 384.35722042 28.9375 384.3125 C29.4767359 378.70940516 30.52434075 374.08092466 32.5 368.8125 C32.95503906 367.5853125 33.41007812 366.358125 33.87890625 365.09375 C34.22824219 364.1759375 34.57757812 363.258125 34.9375 362.3125 C36.25517962 362.31011165 37.57285925 362.30772329 38.93046856 362.30526257 C70.24592419 362.24783856 101.56130299 362.17506258 132.87667645 362.08351372 C136.73541093 362.07224625 140.59414578 362.06110769 144.45288086 362.05004883 C145.22104943 362.04784514 145.98921801 362.04564146 146.78066442 362.043371 C159.20053543 362.00804852 171.62040638 361.98315593 184.04030892 361.96215298 C196.7948617 361.94035062 209.54934959 361.90725829 222.30384713 361.86379844 C230.16698083 361.83735792 238.03003375 361.81960668 245.89320967 361.81315396 C251.93405348 361.80725071 257.97473888 361.78560024 264.01552773 361.75822449 C266.4853297 361.74946037 268.95515564 361.74571829 271.42497253 361.74749184 C295.17809693 361.75915893 314.55774884 358.83765308 332.6875 342 C345.16093368 328.81038831 351.68702945 310.19378418 351.2109375 292.23046875 C349.98051823 274.60031841 344.21551596 259.34319127 331.9375 246.3125 C331.28523437 245.61898437 330.63296875 244.92546875 329.9609375 244.2109375 C315.88367675 230.55546733 297.52625772 225.75956129 278.375 225.75 C275.74781608 225.74521809 273.12330448 225.71947371 270.49609375 225.68359375 C269.35454834 225.68286865 268.21300293 225.68214355 267.03686523 225.68139648 C262.23812528 225.11023492 259.75291257 223.26614176 256.65625 219.64453125 C254.60496444 215.66783448 254.43323674 212.36462596 254.4375 208 C253.72575133 185.07840427 244.98157676 164.51415543 228.1875 148.5625 C219.89252694 141.46540348 210.39555158 135.56786343 199.9375 132.3125 C199.00808594 132.01472656 198.07867188 131.71695313 197.12109375 131.41015625 C179.30867352 126.66746276 158.32614034 127.39878964 141.23828125 134.421875 C137.95425836 135.69310967 135.42644545 135.68631558 131.9375 135.3125 C128.40063616 133.11178472 126.45661373 131.1557279 124.9375 127.3125 C124.60666116 124.90331463 124.34451191 122.48436767 124.125 120.0625 C120.91583389 91.04047602 104.13799764 66.61165496 81.9375 48.3125 C62.00742789 33.62877062 35.73277528 24.02688968 10.9375 23.3125 C9.93759033 23.27382812 9.93759033 23.27382812 8.91748047 23.234375 C-24.56193603 22.04689847 -56.49335314 31.32744983 -84.0625 50.3125 C-84.62775391 50.70131348 -85.19300781 51.09012695 -85.77539062 51.49072266 C-99.10126894 60.82911247 -111.23461975 72.61947686 -120.0625 86.3125 C-120.72507812 87.31539063 -121.38765625 88.31828125 -122.0703125 89.3515625 C-131.46916059 104.03949621 -137.82015407 119.41148921 -141.125 136.5625 C-142.10625151 140.48750605 -143.22320204 142.47320204 -146.0625 145.3125 C-153.99241465 149.27745732 -164.3146041 144.74225577 -172.0625 142.3125 C-184.67442194 138.60340393 -202.17252868 139.82349732 -214.0625 145.3125 C-214.98417969 145.71339844 -215.90585937 146.11429688 -216.85546875 146.52734375 C-233.41030147 154.58293936 -244.09929849 169.24474697 -250.0625 186.3125 C-251.56152359 191.8663824 -252.04121236 197.37979437 -252.2890625 203.109375 C-252.32604248 203.95669189 -252.36302246 204.80400879 -252.40112305 205.67700195 C-252.46579403 207.35988469 -252.51477918 209.0434621 -252.54614258 210.72729492 C-252.69314455 215.3609693 -252.96786033 218.61933661 -256.0625 222.3125 C-260.72161639 226.5371353 -266.63585117 225.70732304 -272.5625 225.75 C-281.80276594 225.99095463 -289.50918411 226.58821998 -298.0625 230.3125 C-299.20589844 230.78558594 -300.34929687 231.25867188 -301.52734375 231.74609375 C-310.62800108 235.86658681 -317.14499886 241.22524423 -324.0625 248.3125 C-324.65546875 248.88484375 -325.2484375 249.4571875 -325.859375 250.046875 C-337.22375249 261.90004292 -342.73196349 279.50181408 -342.4609375 295.56518555 C-341.76712273 313.31213771 -335.87321388 330.56850859 -323.0625 343.3125 C-309.79605946 354.86410235 -295.04587591 361.80349737 -277.36262512 361.71122742 C-276.34458902 361.71787424 -275.32655291 361.72452107 -274.27766722 361.73136932 C-270.89830465 361.74988266 -267.51929977 361.74740188 -264.13989258 361.74487305 C-261.70479843 361.75389731 -259.26970882 361.76422616 -256.83462524 361.77575684 C-251.6084351 361.79758647 -246.38230688 361.81041332 -241.15607643 361.81488609 C-233.60001131 361.82136864 -226.04406556 361.84434276 -218.48804875 361.87122939 C-206.22634297 361.91441751 -193.96464223 361.94442969 -181.70288086 361.96606445 C-169.79790771 361.98709812 -157.89297583 362.01439397 -145.98803711 362.05004883 C-145.25313916 362.05224765 -144.51824121 362.05444648 -143.76107363 362.05671193 C-140.07398469 362.06778218 -136.38689614 362.07897488 -132.69980776 362.09022844 C-102.15407356 362.18330053 -71.60832257 362.25472968 -41.0625 362.3125 C-42.06021034 363.98053833 -43.06103039 365.64671598 -44.0625 367.3125 C-44.42583329 367.96391063 -44.78916658 368.61532126 -45.16350996 369.28647161 C-52.73778677 382.50909196 -52.73778677 382.50909196 -59.42028022 385.29569578 C-66.10666195 386.83576846 -72.91899714 386.49855837 -79.7331543 386.32177734 C-82.01127812 386.32517257 -84.28940106 386.33599624 -86.56745911 386.3536377 C-92.72684761 386.37977391 -98.88079364 386.30070843 -105.03926063 386.20085478 C-111.5062245 386.11274969 -117.97316176 386.11785288 -124.44062805 386.11148071 C-135.30471619 386.08754132 -146.16673379 386.00086944 -157.0300293 385.86962891 C-168.16785467 385.73517813 -179.30449702 385.65002199 -190.44311523 385.62353516 C-191.12847954 385.62189587 -191.81384384 385.62025659 -192.51997676 385.61856763 C-193.9010016 385.61530615 -195.28202646 385.61205533 -196.66305136 385.60881523 C-197.34456991 385.60721428 -198.02608846 385.60561332 -198.72825909 385.60396385 C-199.40823253 385.602391 -200.08820597 385.60081816 -200.78878466 385.59919765 C-212.10089223 385.57131574 -223.41276159 385.49873985 -234.72463632 385.42284822 C-238.5567003 385.39854859 -242.38876638 385.3794298 -246.22086143 385.36075974 C-252.26980063 385.32822465 -258.31794118 385.2686393 -264.36643791 385.18902588 C-266.57284876 385.16347482 -268.77937017 385.14588548 -270.98591232 385.13731766 C-298.29468913 385.01632618 -319.97712929 377.67962424 -340.25 358.625 C-348.62864439 349.95000485 -354.57298277 339.45644 -359.0625 328.3125 C-359.50529297 327.25289063 -359.50529297 327.25289063 -359.95703125 326.171875 C-363.83200459 316.47489738 -364.37637736 307.35345574 -364.3125 297 C-364.32023438 295.75798828 -364.32796875 294.51597656 -364.3359375 293.23632812 C-364.2872187 270.00964213 -356.1860876 248.70943609 -339.84375 232.05859375 C-338.9259375 231.15238281 -338.008125 230.24617187 -337.0625 229.3125 C-336.2478125 228.49910156 -335.433125 227.68570313 -334.59375 226.84765625 C-320.21147657 213.18916606 -300.33146961 203.19562651 -280.25 203.125 C-278.52034234 203.17198941 -276.79075191 203.22842288 -275.0625 203.3125 C-275.10375 202.19875 -275.145 201.085 -275.1875 199.9375 C-275.14891752 177.98406976 -263.61712242 157.22683677 -248.9375 141.6875 C-229.83715512 123.14347584 -207.77109842 117.8964722 -181.859375 118.078125 C-174.31050349 118.24087016 -167.32925488 119.26758406 -160.0625 121.3125 C-159.91554688 120.40479858 -159.91554688 120.40479858 -159.765625 119.47875977 C-158.60892253 113.00159986 -156.7044791 107.26385897 -154.0625 101.25 C-153.66514648 100.34096924 -153.26779297 99.43193848 -152.85839844 98.49536133 C-134.37390917 57.17262799 -99.09872761 26.36995771 -57.0625 10.3125 C-51.47005697 8.37577032 -45.78484921 6.81184421 -40.0625 5.3125 C-38.98226563 5.01601562 -37.90203125 4.71953125 -36.7890625 4.4140625 C-24.56984278 1.17484677 -12.62811353 -0.05358575 0 0 Z " fill="#414141" transform="translate(617.0625,177.6875)"/>
<path d="M0 0 C3.3670112 0.29575098 4.55943415 0.82963047 7.5 2.75 C9.91571414 6.49046061 10.01060597 9.45340944 9.4375 13.75 C8.51906827 16.48477741 7.22562962 18.95594065 5.875 21.5 C-1.29146688 35.98571653 -5.8038296 50.83516486 -9.375 66.5625 C-9.81017944 68.47409912 -9.81017944 68.47409912 -10.25415039 70.42431641 C-14.38358791 89.29235089 -15.79145428 108.11694114 -15.8125 127.375 C-15.81417175 128.19016083 -15.81584351 129.00532166 -15.81756592 129.84518433 C-15.8190671 142.2210703 -15.28298512 154.48577367 -14.1875 166.8125 C-14.12437622 167.52794983 -14.06125244 168.24339966 -13.99621582 168.98052979 C-13.18539949 177.95794432 -12.04378028 186.85756453 -10.5625 195.75 C-10.38380371 194.85031494 -10.20510742 193.95062988 -10.02099609 193.02368164 C-1.36775034 150.00926692 18.82613326 105.83066957 54.4375 78.75 C55.01242187 78.27433594 55.58734375 77.79867187 56.1796875 77.30859375 C59.47424218 74.75308782 62.39672386 74.06976292 66.46875 74.3046875 C70.28720221 75.16838502 71.88972379 76.75636295 74.4375 79.75 C75.0321377 83.44996792 74.85659535 85.7284551 73.4375 89.1875 C71.73102509 91.37392098 70.07372793 93.05356498 68.0625 94.9375 C35.52662716 126.81547835 20.33040498 179.35887179 17.4375 223.75 C19.7475 223.75 22.0575 223.75 24.4375 223.75 C24.57285156 223.21375 24.70820312 222.6775 24.84765625 222.125 C33.05828356 192.23241675 53.7681244 162.81676088 80.4375 146.75 C89.35034383 141.92152059 97.21114454 138.73482895 107.4375 139.75 C110.625 141.1875 110.625 141.1875 112.4375 143.75 C113.13796578 146.90503912 113.11476741 149.59131586 112.4375 152.75 C109.80173229 156.56731875 106.26252628 158.49304748 102.375 160.875 C80.48639143 174.49654001 66.39993192 196.7157959 58.4375 220.75 C58.1075 221.74 57.7775 222.73 57.4375 223.75 C58.02372666 223.74631283 58.60995333 223.74262566 59.21394444 223.73882675 C73.49497647 223.65039098 87.77598402 223.58424927 102.05722904 223.54275131 C108.96362724 223.52214843 115.86984237 223.49407175 122.77612305 223.44824219 C129.4415838 223.40403187 136.10681511 223.38085923 142.77242851 223.37049103 C145.31493561 223.36310256 147.85743235 223.34867469 150.39985847 223.32707977 C153.96219462 223.2980264 157.523746 223.29404498 161.08618164 223.29589844 C162.13634964 223.28151733 163.18651764 223.26713623 164.26850891 223.25231934 C170.54543962 223.2876375 174.31565183 224.04267069 179.4375 227.75 C182.08680485 231.09042786 181.8000472 234.61696196 181.4375 238.75 C180.12487888 241.95862941 178.95424961 243.39043784 176.11406565 245.36668062 C170.67001077 247.41502338 165.50863161 247.16380487 159.73744965 247.13311005 C157.78728749 247.14054932 157.78728749 247.14054932 155.79772812 247.14813888 C152.17932363 247.16150571 148.56114982 247.15615425 144.94273914 247.14780539 C141.00987021 247.14200985 137.0770462 247.15353991 133.14418936 247.16286707 C126.24813343 247.17679868 119.3521431 247.17950753 112.45607567 247.17490768 C102.20153645 247.16808533 91.94706384 247.17832065 81.69253387 247.19186524 C62.31467904 247.21680148 42.93685173 247.22129303 23.55898345 247.21939927 C8.59874129 247.21802738 -6.36149129 247.22183806 -21.32173157 247.22932434 C-23.46936469 247.23037466 -25.61699782 247.23142228 -27.76463094 247.2324672 C-28.83066676 247.23298655 -29.89670257 247.23350589 -30.99504249 247.23404097 C-32.59698282 247.23482119 -32.59698282 247.23482119 -34.23128557 247.23561716 C-35.83585941 247.23640315 -35.83585941 247.23640315 -37.47284889 247.23720502 C-67.56775286 247.25179248 -97.6626533 247.2600689 -127.75756073 247.25545502 C-128.89256714 247.25528306 -130.02757356 247.25511111 -131.1969741 247.25493394 C-136.94993467 247.25404502 -142.70289523 247.25310021 -148.45585579 247.25213593 C-149.59845929 247.2519449 -150.74106279 247.25175387 -151.91829064 247.25155704 C-154.22891268 247.25116995 -156.53953472 247.25077963 -158.85015676 247.25038607 C-194.81403052 247.24441428 -230.77783996 247.25986054 -266.74169922 247.29199219 C-307.12571218 247.32804219 -347.50968436 247.34740558 -387.89371443 247.34245348 C-392.19689909 247.34198348 -396.50008376 247.34157323 -400.80326843 247.34120178 C-402.39265775 247.3410482 -402.39265775 247.3410482 -404.01415594 247.34089152 C-420.03153537 247.33969512 -436.04887083 247.35168426 -452.0662384 247.37034607 C-470.27445532 247.39154986 -488.48257979 247.39546689 -506.69080079 247.37604648 C-516.88764471 247.36569432 -527.08426339 247.36925615 -537.28108712 247.39257733 C-544.08546746 247.40676392 -550.88968037 247.40289997 -557.69404928 247.38413157 C-561.57549598 247.37393938 -565.45650291 247.37176085 -569.33792287 247.39145225 C-573.51311837 247.41244387 -577.68725686 247.39503286 -581.86244965 247.37361908 C-583.07550543 247.38589661 -584.28856122 247.39817413 -585.53837627 247.4108237 C-594.5905722 247.31304153 -594.5905722 247.31304153 -598.29375315 244.33602381 C-601.70165875 240.45153356 -601.90422094 238.03398935 -601.84765625 233.0078125 C-601.42183373 229.63623144 -600.02772826 228.00979257 -597.5625 225.75 C-593.79176236 223.17653814 -589.81130681 223.47414288 -585.41779709 223.50390434 C-584.16991936 223.50044281 -584.16991936 223.50044281 -582.89683199 223.49691135 C-580.09087098 223.49158994 -577.28513647 223.5006132 -574.47918701 223.50949097 C-572.45458206 223.50861934 -570.42997733 223.50686915 -568.40537381 223.50431263 C-562.82761136 223.49982671 -557.24992527 223.50785987 -551.67217255 223.51786876 C-545.6626434 223.52648306 -539.65311878 223.52358453 -533.64358521 223.52206421 C-523.22690677 223.52101408 -512.81024892 223.52723445 -502.39357758 223.53853989 C-491.46698641 223.55036839 -480.5404052 223.55807066 -469.61380768 223.56024551 C-468.59525523 223.56045173 -468.59525523 223.56045173 -467.55612597 223.56066212 C-464.10773981 223.56133877 -460.65935363 223.56194154 -457.21096745 223.56251587 C-432.77735693 223.56671822 -408.34375943 223.5801972 -383.91015625 223.59912109 C-360.17122466 223.61748576 -336.43229664 223.63165504 -312.69335938 223.64013672 C-311.96179808 223.64039977 -311.23023679 223.64066282 -310.47650697 223.64093385 C-303.12995952 223.64357086 -295.78341203 223.64612249 -288.43686452 223.64861157 C-273.47070653 223.65368418 -258.50454877 223.65932668 -243.53839111 223.66531372 C-242.50618049 223.66572559 -242.50618049 223.66572559 -241.45311714 223.66614578 C-195.48957258 223.68455136 -149.52603561 223.71628381 -103.5625 223.75 C-104.34804855 221.34738514 -105.13730113 218.94609422 -105.92871094 216.54541016 C-106.1492514 215.86958389 -106.36979187 215.19375763 -106.59701538 214.49745178 C-108.26856077 209.44105583 -110.22929824 204.77169565 -112.8125 200.125 C-113.39100708 199.06381958 -113.39100708 199.06381958 -113.98120117 197.98120117 C-123.07686604 181.60531074 -134.42838288 167.19460771 -149.53125 156.0546875 C-157.22803392 150.20275127 -157.22803392 150.20275127 -157.9375 145 C-157.53551674 141.51614509 -156.66166812 139.46364591 -154.22265625 136.90234375 C-151.53677258 135.0380245 -149.42229355 134.87212727 -146.19921875 135.1171875 C-122.80635469 140.73147487 -101.3890218 166.57300762 -89.203125 185.90673828 C-72.5625 213.35765165 -72.5625 213.35765165 -72.5625 223.75 C-70.2525 223.75 -67.9425 223.75 -65.5625 223.75 C-67.2190513 206.15919932 -69.68656329 188.9904251 -73.5625 171.75 C-73.75569824 170.8729541 -73.94889648 169.9959082 -74.14794922 169.09228516 C-77.2304646 155.27273944 -81.65346541 142.02057703 -86.5625 128.75 C-86.95953125 127.656875 -87.3565625 126.56375 -87.765625 125.4375 C-93.04728358 111.8786153 -100.05315771 98.05751293 -108.75 86.375 C-111.79901337 82.17290521 -113.81713791 78.89769787 -113.9140625 73.625 C-113.33383817 70.53047022 -111.83816509 68.83060808 -109.5625 66.75 C-105.97001588 64.95375794 -102.33576959 65.68622582 -98.5625 66.75 C-87.57373029 73.62102674 -78.73308499 90.82993443 -72.5625 101.75 C-72.12325195 102.52214844 -71.68400391 103.29429687 -71.23144531 104.08984375 C-64.83677087 115.46777498 -59.37071873 127.06469541 -54.6875 139.25 C-54.25977295 140.35021484 -53.8320459 141.45042969 -53.39135742 142.58398438 C-49.24753783 153.72848773 -46.43822804 165.22615035 -43.5625 176.75 C-43.55441315 176.08919434 -43.54632629 175.42838867 -43.53799438 174.74755859 C-43.45050825 167.73665254 -43.35098419 160.72598403 -43.24511719 153.71533203 C-43.20733067 151.11478736 -43.17240049 148.51419928 -43.140625 145.91357422 C-42.87510791 124.43158178 -42.34039918 102.92228215 -38.375 81.75 C-38.16069336 80.58976318 -37.94638672 79.42952637 -37.72558594 78.23413086 C-32.90467279 53.22436538 -24.7918867 29.02632106 -10.5625 7.75 C-10.04042969 6.93402344 -9.51835938 6.11804688 -8.98046875 5.27734375 C-6.40777338 1.71242427 -4.29837819 0.30449796 0 0 Z " fill="#B59363" transform="translate(843.5625,762.25)"/>
<path d="M0 0 C1.10694471 -0.00301597 2.21388941 -0.00603194 3.3543779 -0.0091393 C5.19737198 -0.00648509 5.19737198 -0.00648509 7.07759827 -0.00377727 C8.37845572 -0.0058299 9.67931316 -0.00788253 11.01959053 -0.00999737 C14.65867014 -0.01558902 18.29772634 -0.01488706 21.93680889 -0.01321978 C25.8851797 -0.01249145 29.83354376 -0.01750508 33.78191173 -0.0217948 C41.6256821 -0.02939227 49.46944568 -0.03156874 57.31321934 -0.03212385 C66.70312664 -0.03303577 76.09302761 -0.03969814 85.48293219 -0.04647068 C108.18076351 -0.06255043 130.87859417 -0.06843604 153.57643016 -0.07321942 C164.30781314 -0.07555324 175.03919559 -0.07915563 185.77057815 -0.0829148 C222.48434996 -0.0957516 259.19812146 -0.10647104 295.91189545 -0.1099174 C298.21768597 -0.11013904 300.52347649 -0.11036082 302.82926701 -0.11058275 C305.14071797 -0.1108034 307.45216894 -0.11102388 309.7636199 -0.1112442 C314.4010155 -0.11168676 319.0384111 -0.11213388 323.6758067 -0.11258388 C324.82561601 -0.11269327 325.97542531 -0.11280266 327.16007733 -0.11291536 C364.45816455 -0.11654749 401.75623235 -0.13247273 439.05431213 -0.15577424 C478.46141467 -0.18034845 517.8685061 -0.19408911 557.27561653 -0.19528532 C561.59822415 -0.19545678 565.92083176 -0.19567221 570.24343938 -0.19591975 C571.30783513 -0.19597552 572.37223089 -0.19603129 573.46888106 -0.19608875 C590.62693313 -0.19724126 607.78496534 -0.20828015 624.9430107 -0.22280681 C642.17613173 -0.23714518 659.4092272 -0.24042387 676.64235256 -0.23236683 C686.89043653 -0.22789808 697.13843819 -0.23182073 707.38651141 -0.24760534 C714.22390611 -0.25731495 721.06124279 -0.25621578 727.89863689 -0.24616911 C731.79975518 -0.24074788 735.70071477 -0.24015998 739.60182027 -0.25267783 C743.7963594 -0.26602558 747.9905232 -0.25637334 752.18506593 -0.2442863 C754.01752476 -0.25567909 754.01752476 -0.25567909 755.88700297 -0.26730204 C757.00145824 -0.26030393 758.1159135 -0.25330583 759.26414013 -0.24609566 C760.22375339 -0.24633986 761.18336665 -0.24658406 762.17205911 -0.24683566 C765.3399976 0.20117551 767.22653748 1.28701569 769.82009381 3.1276505 C772.38641898 6.54941739 772.18444432 9.97405471 771.82009381 14.1276505 C770.50747269 17.33627991 769.33684342 18.76808834 766.49665946 20.74433112 C761.05260458 22.79267387 755.89122542 22.54145537 750.12004346 22.51076055 C748.1698813 22.51819982 748.1698813 22.51819982 746.18032193 22.52578938 C742.56191744 22.53915621 738.94374363 22.53380475 735.32533295 22.52545588 C731.39246402 22.51966035 727.45964001 22.53119041 723.52678317 22.54051757 C716.63072724 22.55444918 709.73473691 22.55715803 702.83866948 22.55255818 C692.58413026 22.54573583 682.32965765 22.55597115 672.07512768 22.56951574 C652.69727285 22.59445197 633.31944554 22.59894353 613.94157726 22.59704977 C598.9813351 22.59567788 584.02110252 22.59948856 569.06086224 22.60697484 C566.91322912 22.60802516 564.76559599 22.60907278 562.61796287 22.6101177 C561.55192706 22.61063705 560.48589124 22.61115639 559.38755132 22.61169147 C557.78561099 22.61247169 557.78561099 22.61247169 556.15130824 22.61326766 C554.5467344 22.61405365 554.5467344 22.61405365 552.90974492 22.61485551 C522.81484096 22.62944298 492.71994051 22.6377194 462.62503308 22.63310552 C461.49002667 22.63293356 460.35502025 22.63276161 459.18561971 22.63258444 C453.43265914 22.63169552 447.67969858 22.63075071 441.92673802 22.62978643 C440.78413452 22.6295954 439.64153102 22.62940437 438.46430317 22.62920754 C436.15368113 22.62882045 433.84305909 22.62843013 431.53243705 22.62803657 C395.56856329 22.62206478 359.60475385 22.63751104 323.64089459 22.66964269 C283.25688163 22.70569269 242.87290945 22.72505608 202.48887938 22.72010398 C198.18569472 22.71963398 193.88251005 22.71922373 189.57932538 22.71885228 C187.98993606 22.7186987 187.98993606 22.7186987 186.36843787 22.71854202 C170.35105844 22.71734562 154.33372299 22.72933476 138.31635541 22.74799657 C120.10813849 22.76920036 101.90001402 22.77311738 83.69179302 22.75369698 C73.4949491 22.74334482 63.29833042 22.74690665 53.10150669 22.77022783 C46.29712635 22.78441442 39.49291344 22.78055047 32.68854453 22.76178207 C28.80709783 22.75158988 24.9260909 22.74941135 21.04467094 22.76910275 C16.86947544 22.79009437 12.69533695 22.77268336 8.52014416 22.75126958 C7.30708838 22.7635471 6.09403259 22.77582463 4.84421754 22.7884742 C-4.20797839 22.69069203 -4.20797839 22.69069203 -7.91115934 19.71367431 C-11.31982197 15.82832116 -11.51333269 13.41422209 -11.47287494 8.38936925 C-11.04334818 5.0734227 -9.57066265 3.37777423 -7.17990619 1.1276505 C-4.63127724 -0.14666397 -2.85474838 0.00153311 0 0 Z " fill="#5C391B" transform="translate(253.17990618944168,986.8723495006561)"/>
<path d="M0 0 C1.33491136 2.66982273 0.51834652 4.08710234 -0.35887146 6.82107544 C-0.58204544 7.48984711 -0.80521942 8.15861877 -1.03515625 8.84765625 C-1.26473526 9.55429413 -1.49431427 10.26093201 -1.73085022 10.98898315 C-2.50040993 13.34940423 -3.28120729 15.70593874 -4.0625 18.0625 C-4.60760975 19.72392471 -5.15236258 21.38546657 -5.69677734 23.04711914 C-9.74858078 35.37472669 -13.92428258 47.65999133 -18.125 59.9375 C-18.41772797 60.79410217 -18.71045593 61.65070435 -19.01205444 62.53326416 C-21.77442796 70.61641138 -24.53996688 78.69807599 -27.36099243 86.76097107 C-28.32076247 89.51220355 -29.2686429 92.26743196 -30.21380615 95.02371216 C-30.85048936 96.86655535 -31.50330051 98.70380234 -32.15673828 100.54077148 C-35.46582131 110.08138867 -35.46582131 110.08138867 -35 120 C-33.33699072 122.42815741 -32.00179805 123.80634182 -29.05150795 124.37666416 C-26.5131621 124.53435067 -24.00129901 124.55993673 -21.45800781 124.54589844 C-20.49182022 124.55623611 -19.52563263 124.56657379 -18.53016663 124.57722473 C-15.33765054 124.60671457 -12.14576674 124.60815324 -8.953125 124.609375 C-6.73922512 124.62435243 -4.52533643 124.64107865 -2.3114624 124.65948486 C3.514796 124.70321939 9.34090366 124.72317111 15.16729736 124.73822021 C21.11292456 124.7577692 27.05838844 124.79974172 33.00390625 124.83984375 C44.66922054 124.91521208 56.33449839 124.96546354 68 125 C66.17484853 128.83962758 63.77172878 132.00778557 61.125 135.3125 C60.39796875 136.22902344 60.39796875 136.22902344 59.65625 137.1640625 C58.10838744 139.11278177 56.55500194 141.05697421 55 143 C54.50081055 143.62438965 54.00162109 144.2487793 53.48730469 144.89208984 C51.48724868 147.39313963 49.48635246 149.89350737 47.48291016 152.3918457 C43.67043013 157.14914704 39.89813989 161.9366669 36.14013672 166.73706055 C32.83365111 170.95492653 29.48484556 175.13708344 26.125 179.3125 C21.87067878 184.60251223 17.72410424 189.96403375 13.625 195.375 C8.56615112 202.04895921 3.31040965 208.53099473 -2.04370117 214.96948242 C-6.12339931 219.89108659 -10.00414077 224.90671937 -13.80078125 230.05078125 C-17.6341152 235.19139782 -21.63037536 240.20446361 -25.60595703 245.23535156 C-27.84556105 248.07035293 -30.07956115 250.90974749 -32.3125 253.75 C-32.75907959 254.31775146 -33.20565918 254.88550293 -33.66577148 255.47045898 C-36.84147579 259.5125182 -39.99739033 263.5696134 -43.14819336 267.63110352 C-48.13721163 274.06189293 -53.15045818 280.46888504 -58.25 286.8125 C-63.59900616 293.46781195 -68.81721798 300.21481195 -74 307 C-79.28195741 313.89875425 -84.58657714 320.77955504 -89.9375 327.625 C-90.39825928 328.21724365 -90.85901855 328.8094873 -91.33374023 329.41967773 C-93.43522915 332.10013637 -95.56208374 334.6240982 -98 337 C-95.62971727 329.8504217 -93.21797491 322.71546716 -90.77587891 315.59008789 C-90.13008878 313.70237504 -89.48885379 311.81310588 -88.84765625 309.92382812 C-86.48994958 303.04898619 -83.94201404 296.32339386 -81.09375 289.63745117 C-79.68417412 286.23842254 -78.54537647 282.82141884 -77.4375 279.3125 C-76.15907921 275.34545195 -74.85194995 271.45865486 -73.0625 267.6875 C-70.66864855 262.58126041 -69.03552796 257.23012818 -67.28808594 251.87817383 C-65.41706774 246.17464332 -63.37805122 240.57732577 -61.17578125 234.9921875 C-58.57422507 228.37161595 -56.13917509 221.68611132 -53.6796875 215.01171875 C-53.37555939 214.18670364 -53.07143127 213.36168854 -52.75808716 212.51167297 C-52.1209931 210.78313582 -51.48402158 209.05455349 -50.84716797 207.32592773 C-49.87127306 204.67738524 -48.89463482 202.02911758 -47.91796875 199.38085938 C-47.29682969 197.6953292 -46.67573438 196.0097829 -46.0546875 194.32421875 C-45.76302704 193.53359543 -45.47136658 192.74297211 -45.17086792 191.9283905 C-42.29110163 184.18139575 -42.29110163 184.18139575 -42 176 C-43.86708505 173.63502561 -45.32061431 172.33969285 -48 171 C-50.5317239 170.87778771 -53.03778521 170.81435555 -55.57080078 170.79467773 C-56.35137848 170.78477814 -57.13195618 170.77487854 -57.93618774 170.76467896 C-60.52253155 170.73303022 -63.10889375 170.70829324 -65.6953125 170.68359375 C-67.48607874 170.66302713 -69.27684008 170.64203074 -71.06759644 170.62062073 C-75.78578743 170.56536987 -80.50402245 170.5159739 -85.22229004 170.46777344 C-90.03495207 170.4175804 -94.84755 170.36188288 -99.66015625 170.30664062 C-109.1067161 170.19902219 -118.55333156 170.09758541 -128 170 C-122.08104765 157.7756513 -112.17323394 146.91059456 -103.953125 136.17578125 C-100.56178466 131.74476587 -97.20958766 127.28629216 -93.875 122.8125 C-89.69710817 117.21296442 -85.43211604 111.68813274 -81.125 106.1875 C-76.3086853 100.03420392 -71.61160749 93.80807552 -67 87.5 C-61.91088241 80.5414251 -56.70099967 73.69491945 -51.38842773 66.90576172 C-41.48984123 54.25062421 -31.80573853 41.43150636 -22.1875 28.5625 C-14.96460323 18.90022543 -7.54211622 9.41464163 0 0 Z " fill="#FDB919" transform="translate(603,567)"/>






















































<path d="M0 0 C226.05 0 452.1 0 685 0 C685 0.33 685 0.66 685 1 C496.9 1 308.8 1 115 1 C115 9.91 115 18.82 115 28 C112.6075 28.185625 110.215 28.37125 107.75 28.5625 C106.66090332 28.65446655 106.66090332 28.65446655 105.54980469 28.74829102 C99.10971199 29.19621738 93.68052241 28.5567102 87 28 C87 19.42 87 10.84 87 2 C58.29 1.67 29.58 1.34 0 1 C0 0.67 0 0.34 0 0 Z " fill="#BED0E2" transform="translate(283,1140)"/>


















































































































<path d="M0 0 C4.20660371 3.8087813 6.74032549 7.65540907 9.3125 12.6875 C9.67150391 13.36361328 10.03050781 14.03972656 10.40039062 14.73632812 C13 19.71272321 13 19.71272321 13 22 C12.34 22 11.68 22 11 22 C10.59007812 21.14535156 10.18015625 20.29070312 9.7578125 19.41015625 C9.21898437 18.30542969 8.68015625 17.20070313 8.125 16.0625 C7.59132813 14.96035156 7.05765625 13.85820312 6.5078125 12.72265625 C5.28340155 9.90595489 5.28340155 9.90595489 3 9 C2.1484375 6.93359375 2.1484375 6.93359375 1.375 4.4375 C1.11460937 3.61121094 0.85421875 2.78492188 0.5859375 1.93359375 C0.39257812 1.29550781 0.19921875 0.65742188 0 0 Z " fill="#383838" transform="translate(741,239)"/>
<path d="M0 0 C-0.33 0.66 -0.66 1.32 -1 2 C-3.6875 2.44921875 -3.6875 2.44921875 -7 2.6875 C-8.093125 2.77386719 -9.18625 2.86023437 -10.3125 2.94921875 C-11.199375 2.96597656 -12.08625 2.98273438 -13 3 C-13.33 2.67 -13.66 2.34 -14 2 C-16.67058851 1.85884839 -19.32432238 1.95752893 -22 2 C-22 1.67 -22 1.34 -22 1 C-14.35767685 -0.42924436 -7.69565547 -1.30434839 0 0 Z " fill="#D6E3EC" transform="translate(996,1138)"/>
<path d="M0 0 C-1.65 1.98 -3.3 3.96 -5 6 C-5 3 -5 3 -4 1 C-13.24 1 -22.48 1 -32 1 C-32 0.67 -32 0.34 -32 0 C-27.7643915 -0.16752496 -23.52859426 -0.32809332 -19.29248047 -0.48217773 C-17.85100177 -0.5355959 -16.40959259 -0.59092518 -14.96826172 -0.64819336 C-12.89826447 -0.73010997 -10.82811573 -0.80518359 -8.7578125 -0.87890625 C-6.88826904 -0.94960327 -6.88826904 -0.94960327 -4.98095703 -1.02172852 C-2 -1 -2 -1 0 0 Z " fill="#323333" transform="translate(576,541)"/>
<path d="M0 0 C2.1189141 2.60789428 3.4579408 4.729562 4.25 8 C4.50523438 8.99 4.50523438 8.99 4.765625 10 C5.02947135 12.25148884 4.67176604 13.85034866 4 16 C1.19155042 13.72228105 0.08264522 12.63802112 -0.390625 8.984375 C-0.34421875 7.91703125 -0.2978125 6.8496875 -0.25 5.75 C-0.21390625 4.67234375 -0.1778125 3.5946875 -0.140625 2.484375 C-0.09421875 1.66453125 -0.0478125 0.8446875 0 0 Z " fill="#DDE7F1" transform="translate(114,983)"/>
<path d="M0 0 C5.94 0.33 11.88 0.66 18 1 C18 1.66 18 2.32 18 3 C11.73 3 5.46 3 -1 3 C-0.67 2.01 -0.34 1.02 0 0 Z " fill="#BF9D6A" transform="translate(741,983)"/>
<path d="M0 0 C0.99 0 1.98 0 3 0 C3.33 3.96 3.66 7.92 4 12 C3.01 12.66 2.02 13.32 1 14 C0.63659714 12.23103898 0.28459117 10.45973374 -0.0625 8.6875 C-0.25972656 7.70136719 -0.45695312 6.71523437 -0.66015625 5.69921875 C-1 3 -1 3 0 0 Z " fill="#EBEDEF" transform="translate(1136,228)"/>
<path d="M0 0 C0.33 0 0.66 0 1 0 C1.96139053 7.5612066 2.49637572 14.67145841 0 22 C-0.66 22.66 -1.32 23.32 -2 24 C-1.93941406 23.44054687 -1.87882813 22.88109375 -1.81640625 22.3046875 C-1.04062176 14.88102665 -0.50430295 7.44651591 0 0 Z " fill="#3B3A39" transform="translate(988,474)"/>
<path d="M0 0 C2.31 0 4.62 0 7 0 C5.55746343 3.36591866 3.66735273 5.51047079 1 8 C0 7 0 7 -0.0625 3.4375 C-0.041875 2.303125 -0.02125 1.16875 0 0 Z " fill="#E6E9ED" transform="translate(143,171)"/>
<path d="M0 0 C2.24226443 3.36339665 3.42592747 6.76340552 4.6875 10.5625 C4.92533203 11.24763672 5.16316406 11.93277344 5.40820312 12.63867188 C5.99980093 14.40652572 6.5063209 16.20234149 7 18 C6.67 18.66 6.34 19.32 6 20 C3.39838167 18.69919084 3.34881203 17.77735101 2.4375 15.0625 C0.85502911 10.09130358 0.31420582 5.1898133 0 0 Z " fill="#C9D8E5" transform="translate(119,999)"/>
<path d="M0 0 C3.875 0.4375 3.875 0.4375 6.875 2.4375 C3.8090292 3.9704854 0.75861398 3.40330649 -2.6171875 3.27734375 C-5.28740431 3.44787161 -6.84384141 4.0847199 -9.125 5.4375 C-6.33651779 1.95189724 -4.48882716 0.07453772 0 0 Z " fill="#E7AE33" transform="translate(627.125,511.5625)"/>

<path d="M0 0 C3.45201639 1.47721422 5.64961936 3.43794001 8.25 6.125 C8.95640625 6.84945312 9.6628125 7.57390625 10.390625 8.3203125 C11.18726563 9.15175781 11.18726563 9.15175781 12 10 C11.34 10.66 10.68 11.32 10 12 C8.32737283 10.38113585 6.66204463 8.7547271 5 7.125 C4.071875 6.22007812 3.14375 5.31515625 2.1875 4.3828125 C0 2 0 2 0 0 Z " fill="#2E6BAD" transform="translate(1070,166)"/>
<path d="M0 0 C0.33 0.99 0.66 1.98 1 3 C-1.97 5.97 -4.94 8.94 -8 12 C-8.66 11.34 -9.32 10.68 -10 10 C-6.7 6.7 -3.4 3.4 0 0 Z " fill="#EBEDEC" transform="translate(934,931)"/>
<path d="M0 0 C0.33 1.32 0.66 2.64 1 4 C0.38511719 4.54269531 -0.22976563 5.08539062 -0.86328125 5.64453125 C-1.67152344 6.35996094 -2.47976563 7.07539062 -3.3125 7.8125 C-4.11300781 8.52019531 -4.91351562 9.22789062 -5.73828125 9.95703125 C-7.54983162 11.59337122 -9.29681703 13.25272168 -11 15 C-11 12 -11 12 -8.84765625 9.58984375 C-7.92855469 8.71457031 -7.00945313 7.83929687 -6.0625 6.9375 C-2.58797774 3.80039699 -2.58797774 3.80039699 0 0 Z " fill="#DCDEE0" transform="translate(971,528)"/>
<path d="M0 0 C1.19180968 3.4626903 0.80706459 5.65326824 -0.25 9.125 C-0.50265625 9.99382813 -0.7553125 10.86265625 -1.015625 11.7578125 C-2 14 -2 14 -5 16 C-3.41078475 10.63904723 -1.81027062 5.29156027 0 0 Z " fill="#E0AA3C" transform="translate(506,844)"/>

<path d="M0 0 C2.10409639 -0.02701408 4.20829178 -0.04640223 6.3125 -0.0625 C7.48425781 -0.07410156 8.65601563 -0.08570313 9.86328125 -0.09765625 C13 0 13 0 16 1 C16 1.66 16 2.32 16 3 C10.72 2.34 5.44 1.68 0 1 C0 0.67 0 0.34 0 0 Z " fill="#D4D7D8" transform="translate(641,179)"/>
<path d="M0 0 C0.33 0 0.66 0 1 0 C0.125 7.625 0.125 7.625 -1 11 C-1.66 11 -2.32 11 -3 11 C-2.25 3.375 -2.25 3.375 0 0 Z " fill="#2B69AC" transform="translate(1118,982)"/>
<path d="M0 0 C0.33 0 0.66 0 1 0 C1.25 2.25 1.25 2.25 1 5 C-1 7.3125 -1 7.3125 -3 9 C-3.99 8.67 -4.98 8.34 -6 8 C-5.02471263 6.66382648 -4.04466681 5.3311249 -3.0625 4 C-2.24458984 2.88625 -2.24458984 2.88625 -1.41015625 1.75 C-0.94480469 1.1725 -0.47945312 0.595 0 0 Z " fill="#E2E5EB" transform="translate(578,537)"/>
<path d="M0 0 C-2.28176413 2.07384637 -3.44323483 2.98397191 -6.578125 3.07421875 C-7.90070313 2.88279297 -7.90070313 2.88279297 -9.25 2.6875 C-10.14203125 2.56761719 -11.0340625 2.44773437 -11.953125 2.32421875 C-12.62859375 2.21722656 -13.3040625 2.11023437 -14 2 C-14 1.67 -14 1.34 -14 1 C-9.32798795 -0.20568053 -4.78503708 -0.09382426 0 0 Z " fill="#2E70AD" transform="translate(280,1136)"/>
<path d="M0 0 C0.66 0 1.32 0 2 0 C0.54955729 4.10958767 -1.51110752 7.43258745 -4 11 C-5 8 -5 8 -4.07421875 5.95703125 C-3.61660156 5.24933594 -3.15898437 4.54164063 -2.6875 3.8125 C-2.23761719 3.09707031 -1.78773438 2.38164062 -1.32421875 1.64453125 C-0.88722656 1.10183594 -0.45023437 0.55914062 0 0 Z " fill="#333334" transform="translate(479,250)"/>
<path d="M0 0 C0.33 0.99 0.66 1.98 1 3 C-0.21484375 4.82421875 -0.21484375 4.82421875 -1.9375 6.6875 C-2.50339844 7.31011719 -3.06929687 7.93273437 -3.65234375 8.57421875 C-4.09707031 9.04472656 -4.54179688 9.51523437 -5 10 C-5.66 9.67 -6.32 9.34 -7 9 C-4.69 6.03 -2.38 3.06 0 0 Z " fill="#DDA325" transform="translate(581,564)"/>
<path d="M0 0 C1.33804687 0.04060547 1.33804687 0.04060547 2.703125 0.08203125 C3.37859375 0.11683594 4.0540625 0.15164063 4.75 0.1875 C4.75 0.5175 4.75 0.8475 4.75 1.1875 C-4.66002278 3.48362756 -4.66002278 3.48362756 -9.25 3.1875 C-6.10408067 0.38704377 -4.182936 -0.16511589 0 0 Z " fill="#353433" transform="translate(414.25,296.8125)"/>
<path d="M0 0 C1.85625 0.061875 1.85625 0.061875 3.75 0.125 C3.42 1.115 3.09 2.105 2.75 3.125 C-0.88 2.795 -4.51 2.465 -8.25 2.125 C-4.63863788 0.31931894 -3.705469 -0.12351563 0 0 Z " fill="#236BAE" transform="translate(987.25,122.875)"/>
<path d="M0 0 C4.8333472 -0.08333357 9.23692563 0.04738513 14 1 C14 1.33 14 1.66 14 2 C12.23186888 2.24915939 10.46025018 2.47366632 8.6875 2.6875 C7.70136719 2.81511719 6.71523438 2.94273438 5.69921875 3.07421875 C3 3 3 3 1.14453125 1.51953125 C0.57798828 0.76736328 0.57798828 0.76736328 0 0 Z " fill="#5B91C1" transform="translate(973,102)"/>
<path d="M0 0 C6.625 0.75 6.625 0.75 10 3 C6.18510326 4.46726798 3.70988378 3.43336419 0 2 C0 1.34 0 0.68 0 0 Z " fill="#D9E3EB" transform="translate(240,1131)"/>
<path d="M0 0 C0.66 0 1.32 0 2 0 C1.34 2.97 0.68 5.94 0 9 C-0.99 8.34 -1.98 7.68 -3 7 C-2.67 6.01 -2.34 5.02 -2 4 C-1.34 4 -0.68 4 0 4 C0 2.68 0 1.36 0 0 Z " fill="#246CAC" transform="translate(1134,994)"/>
<path d="M0 0 C0.33 1.32 0.66 2.64 1 4 C-1.4375 6.75 -1.4375 6.75 -4 9 C-4.66 8.67 -5.32 8.34 -6 8 C-4.02 5.36 -2.04 2.72 0 0 Z " fill="#EBEAE2" transform="translate(511,927)"/>
<path d="M0 0 C1.47177418 3.82661288 0.57016757 6.31010622 -1 10 C-1.96715918 11.03179606 -2.96225307 12.0392288 -4 13 C-3.52140759 11.39566191 -3.04210442 9.79153584 -2.5625 8.1875 C-2.29566406 7.29417969 -2.02882813 6.40085937 -1.75390625 5.48046875 C-1.19612127 3.64526945 -0.60655425 1.81966274 0 0 Z " fill="#E0AE45" transform="translate(482,908)"/>
<path d="M0 0 C2.56687367 3.8503105 1.83288724 5.58569763 1 10 C-0.625 8.375 -0.625 8.375 -2 6 C-1.1875 2.75 -1.1875 2.75 0 0 Z " fill="#E6EEF5" transform="translate(116,232)"/>
<path d="M0 0 C0.33 0 0.66 0 1 0 C1.19294408 4.82360189 0.75747614 8.49646738 -1 13 C-1.33 13 -1.66 13 -2 13 C-2.19294408 8.17639811 -1.75747614 4.50353262 0 0 Z " fill="#E0B146" transform="translate(468,946)"/>
<path d="M0 0 C1.65 0.33 3.3 0.66 5 1 C3.68 2.32 2.36 3.64 1 5 C0.34 4.67 -0.32 4.34 -1 4 C-0.67 2.68 -0.34 1.36 0 0 Z " fill="#E1E6EB" transform="translate(172,143)"/>
<path d="M0 0 C0 0.66 0 1.32 0 2 C-6.4 3.23076923 -6.4 3.23076923 -9.4375 2.0625 C-9.953125 1.711875 -10.46875 1.36125 -11 1 C-7.26562152 0.12132271 -3.83225427 -0.08912219 0 0 Z " fill="#D3E3F1" transform="translate(275,125)"/>
<path d="M0 0 C0.66 0.99 1.32 1.98 2 3 C0.625 6.6875 0.625 6.6875 -1 10 C-2.46726798 6.18510326 -1.43336419 3.70988378 0 0 Z " fill="#3870AD" transform="translate(121,224)"/>
<path d="M0 0 C2.6855594 2.6855594 3.06049974 5.37621328 4 9 C3.34 9 2.68 9 2 9 C0.93347808 6.69631264 -0.06421005 4.35981813 -1 2 C-0.67 1.34 -0.34 0.68 0 0 Z " fill="#3370AF" transform="translate(145,1011)"/>
<path d="M0 0 C1.76462683 3.08809695 2 4.23312136 2 8 C1.01 8 0.02 8 -1 8 C-0.67 5.36 -0.34 2.72 0 0 Z " fill="#D3E0E9" transform="translate(1137,989)"/>
<path d="M0 0 C0.66 0.66 1.32 1.32 2 2 C0.71937515 3.7074998 -0.61767557 5.37373596 -2 7 C-2.66 7 -3.32 7 -4 7 C-2.79618552 4.50638429 -1.54571278 2.31856917 0 0 Z " fill="#DFA325" transform="translate(530,631)"/>
<path d="M0 0 C2.99332739 0.9977758 3.94766315 1.7522025 6 4 C5.01 4.495 5.01 4.495 4 5 C1.375 4.0625 1.375 4.0625 -1 3 C-0.67 2.01 -0.34 1.02 0 0 Z " fill="#505050" transform="translate(306,553)"/>
<path d="M0 0 C3.875 1.75 3.875 1.75 5 4 C4.34 4.66 3.68 5.32 3 6 C1.68 4.35 0.36 2.7 -1 1 C-0.67 0.67 -0.34 0.34 0 0 Z " fill="#484848" transform="translate(724,219)"/>
</svg>
