<?xml version="1.0" encoding="UTF-8"?>
<svg version="1.1" xmlns="http://www.w3.org/2000/svg" viewBox="0 0 1254 1254">
<path d="M0 0 C413.82 0 827.64 0 1254 0 C1254 413.82 1254 827.64 1254 1254 C840.18 1254 426.36 1254 0 1254 C0 840.18 0 426.36 0 0 Z " fill="#FDEEE6" transform="translate(0,0)"/>

<path d="M0 0 C3.81978202 1.77347022 5.48336877 3.25949523 7.875 6.6875 C10.16347267 13.42578065 9.04109901 19.04051697 7.49609375 25.796875 C5.89966361 33.31806615 5.56969549 40.58450756 5.66381836 48.25415039 C5.6876936 50.32932765 5.68430866 52.40323281 5.67773438 54.47851562 C5.69322502 61.89511489 6.25948729 68.79114206 8 76 C8.25914026 77.39048915 8.51065831 78.78242409 8.75390625 80.17578125 C11.10314523 92.57958455 15.59979972 103.62705344 21 115 C21.35191406 115.75168457 21.70382812 116.50336914 22.06640625 117.27783203 C30.51959176 135.08014428 42.90618226 150.39813566 56 165 C56.6815918 165.76618652 56.6815918 165.76618652 57.37695312 166.54785156 C63.18578126 173.0629329 69.23767766 179.2884364 75.44287109 185.42382812 C78.83911775 188.79466138 82.03368359 192.25918289 85.12890625 195.91015625 C88.09962114 199.22817811 91.28656583 202.32967822 94.47485352 205.43774414 C98.5438077 209.43606383 102.28611112 213.67212559 106 218 C106.54156738 218.62438965 107.08313477 219.2487793 107.64111328 219.89208984 C121.41551419 235.86005263 133.30618021 253.25987543 143 272 C143.50539307 272.97187256 143.50539307 272.97187256 144.02099609 273.96337891 C165.52464333 315.91244325 170.61567055 362.62457985 165 409 C164.90348145 409.84900879 164.80696289 410.69801758 164.70751953 411.57275391 C163.0893601 425.56757446 160.02884477 439.06711625 156.50317383 452.69775391 C155.89324116 455.09570444 155.89324116 455.09570444 156 458 C177.62694457 437.42375719 196.00858913 411.18432345 203.3125 381.75 C204.60218099 377.37060199 206.2905904 374.78247679 209.984375 372.07421875 C214.55744026 369.63702312 218.38840323 369.23162938 223.36328125 370.6953125 C229.26592529 373.69127637 231.21990419 377.95644345 233.25 383.9375 C233.97307546 386.20031243 234.66369936 388.46910666 235.33251953 390.74853516 C236.17465002 393.58910844 237.1018869 396.39657991 238.04394531 399.20532227 C238.64914228 401.01058166 239.23726903 402.82153812 239.82421875 404.6328125 C240.96577476 408.04348548 240.96577476 408.04348548 242.50390625 411.41796875 C244.12589923 415.30143498 245.22583484 419.1156354 246.25 423.1875 C246.45761963 424.00444336 246.66523926 424.82138672 246.87915039 425.66308594 C247.33857399 427.47272393 247.79625578 429.28280477 248.25244141 431.09326172 C249.02669944 434.10381564 249.84457299 437.10019439 250.66796875 440.09765625 C258.11028211 467.73195557 262.91291422 496.34463172 263 525 C263.01627071 526.40333813 263.03411703 527.80665854 263.05322266 529.20996094 C263.30760717 548.21924854 263.29656567 567.09615351 261 586 C260.89284668 586.88945313 260.78569336 587.77890625 260.67529297 588.6953125 C259.3886497 598.97347589 257.51879332 608.8801694 254.61523438 618.83886719 C253.88383159 621.40806459 253.19882564 623.98788362 252.515625 626.5703125 C252.25499268 627.5495166 251.99436035 628.5287207 251.72583008 629.53759766 C251.21259194 631.46625408 250.70188074 633.39558531 250.1940918 635.32568359 C248.81289254 640.4500392 247.18901439 645.16786718 245 650 C244.17691668 652.12092317 243.36419772 654.24590113 242.5625 656.375 C226.11344683 699.24960309 198.13421476 739.44538965 162 768 C160.92876942 768.87257203 159.85848912 769.74631172 158.7890625 770.62109375 C143.37927888 783.12421476 126.5213992 792.7712221 109 802 C108.24235352 802.40412109 107.48470703 802.80824219 106.70410156 803.22460938 C97.35085737 808.19873741 88.11366962 811.84846551 78 815 C75.31591349 815.96032436 72.66089245 816.97657983 70 818 C65.00979092 819.66340303 58.84437874 820.37542492 53.98046875 818.0234375 C50.9930456 815.65385126 49.70529359 813.66752667 49 810 C48.07703125 810.25394531 47.1540625 810.50789063 46.203125 810.76953125 C35.24203852 813.69410369 24.2439875 815.54246815 13 817 C11.97386597 817.14574463 11.97386597 817.14574463 10.92700195 817.29443359 C3.6650842 818.23894922 -3.62446393 818.24168544 -10.9375 818.25 C-11.98389145 818.25200912 -11.98389145 818.25200912 -13.05142212 818.25405884 C-30.32857776 818.2469243 -47.85431361 817.15149344 -64.58203125 812.55078125 C-67.19957331 811.95453984 -69.32771314 811.70009511 -72 812 C-73.28757843 813.4807152 -74.57105623 814.96856473 -75.7578125 816.53125 C-77.60348276 818.71355194 -79.241922 819.34331476 -82 820 C-88.10764897 820.42229583 -93.06541514 819.06762983 -98.8125 817.25 C-99.70541748 816.97341553 -100.59833496 816.69683105 -101.51831055 816.41186523 C-107.47209649 814.5434449 -113.30929192 812.5726364 -119 810 C-120.07507813 809.52175781 -121.15015625 809.04351563 -122.2578125 808.55078125 C-143.46308398 798.96975738 -162.8611617 787.57534878 -181 773 C-182.51787109 771.79150391 -182.51787109 771.79150391 -184.06640625 770.55859375 C-212.75819078 747.24764735 -235.53224229 717.70120896 -252.5 685 C-253.07548584 683.89092285 -253.65097168 682.7818457 -254.24389648 681.63916016 C-257.40370388 675.43463309 -260.27938258 669.1782771 -262.890625 662.72338867 C-264.04254969 659.89554538 -265.26546313 657.10511629 -266.5 654.3125 C-277.36407088 628.04920092 -284.13619372 597.04951883 -284.16796875 568.640625 C-284.17296135 567.042117 -284.17296135 567.042117 -284.17805481 565.41131592 C-284.18309203 563.16239855 -284.18546413 560.91347379 -284.18530273 558.66455078 C-284.1874672 555.30097366 -284.20559668 551.93773708 -284.22460938 548.57421875 C-284.27044715 531.0846945 -283.94207403 513.4362277 -279.78125 496.36328125 C-279.13047207 493.56168224 -278.61864584 490.79838196 -278.140625 487.96484375 C-276.94179839 481.26855702 -275.13311873 474.78202643 -273.25 468.25 C-272.89510498 467.0137085 -272.54020996 465.77741699 -272.17456055 464.50366211 C-269.60780555 455.72308386 -266.60493322 447.39749751 -263 439 C-262.28641768 437.0435732 -261.57819373 435.08518472 -260.875 433.125 C-252.52687128 411.32859961 -240.90614428 390.56017787 -229.375 370.3125 C-218.63070085 351.43645468 -208.92970826 331.99071736 -202.5 311.1875 C-202.30019531 310.55263672 -202.10039062 309.91777344 -201.89453125 309.26367188 C-201.2462508 307.18050315 -200.62100545 305.09145845 -200 303 C-199.74468506 302.16525146 -199.48937012 301.33050293 -199.22631836 300.47045898 C-196.91250339 292.55275092 -196.02462449 284.71504226 -195.27148438 276.52148438 C-194.63169146 270.56648875 -193.97020966 266.57697755 -190 262 C-186.01437198 259.21932929 -182.16215537 258.20490629 -177.3515625 258.4140625 C-165.14328282 261.45599265 -155.92476145 279.77486646 -149.8125 289.875 C-147.83588646 293.22864294 -145.90281816 296.60399319 -144 300 C-143.65340332 300.61472168 -143.30680664 301.22944336 -142.94970703 301.86279297 C-137.97239331 310.92187597 -134.93796043 320.77545279 -131.75 330.5625 C-131.53494812 331.21940826 -131.31989624 331.87631653 -131.09832764 332.5531311 C-125.08788715 351.03931698 -121.45964232 369.51710375 -122 389 C-121.34 389 -120.68 389 -120 389 C-119.61521484 387.90945313 -119.61521484 387.90945313 -119.22265625 386.796875 C-117.93811891 383.85844454 -116.41915454 381.76409909 -114.4375 379.25 C-104.71648838 366.03577549 -98.85716002 351.89149927 -95 336 C-94.82210937 335.28328125 -94.64421875 334.5665625 -94.4609375 333.828125 C-89.91493245 314.63388147 -89.16032594 290.12903016 -94.47363281 271.06103516 C-95.59467375 266.67150475 -96.16963297 262.15888863 -96.875 257.6875 C-97.93545118 251.08307611 -99.04686637 244.52799986 -100.55615234 238.01049805 C-112.46854312 186.3001537 -106.31984715 133.54247369 -83 86 C-82.6807959 85.34016113 -82.3615918 84.68032227 -82.03271484 84.00048828 C-67.00001896 53.20088985 -42.94571377 25.11386103 -16 4 C-14.77410156 2.90171875 -14.77410156 2.90171875 -13.5234375 1.78125 C-9.27391177 -1.21841522 -4.99835414 -0.71929325 0 0 Z " fill="#EA6822" transform="translate(456,222)"/>
<path d="M0 0 C3.9148186 0.00861751 7.82960686 -0.00041633 11.74442389 -0.00706416 C18.58590669 -0.01630505 25.42731577 -0.01454842 32.2687976 -0.00533163 C42.44257097 0.00833641 52.61628833 0.00468041 62.79006588 -0.00229023 C80.96507792 -0.01418657 99.14005515 -0.00915424 117.31506525 0.00298804 C133.21881459 0.01354017 149.1225521 0.0180615 165.02630492 0.01669253 C166.08280443 0.0166085 167.13930394 0.01652447 168.22781859 0.01643789 C172.51687334 0.01608562 176.80592808 0.0157016 181.09498282 0.01527231 C221.29481241 0.01131096 261.49462108 0.02400809 301.69444468 0.04479888 C337.38561292 0.0631711 373.07676111 0.06897976 408.76793357 0.06352747 C411.06021354 0.06318104 413.3524935 0.06283494 415.64477347 0.06248918 C416.77805087 0.06231819 417.91132827 0.06214719 419.07894742 0.06197102 C424.78409463 0.06111743 430.48924185 0.06029365 436.19438907 0.05950201 C437.32000611 0.05934493 438.44562315 0.05918785 439.6053498 0.05902601 C469.45883904 0.05503365 499.31232635 0.06051456 529.16581442 0.06901331 C532.37901132 0.06992031 535.59220821 0.07082596 538.8054051 0.07172854 C540.9368095 0.07232965 543.06821389 0.07293827 545.19961828 0.07355445 C560.04087869 0.07777101 574.8821353 0.07835609 589.7233961 0.07644895 C608.84966723 0.07400332 627.97591804 0.07809942 647.10218363 0.09365895 C657.2098603 0.10169283 667.31750317 0.10432284 677.42518184 0.0990166 C684.18491082 0.09602987 690.94461004 0.10037246 697.70433191 0.11056517 C701.55006302 0.11616693 705.39572547 0.11873547 709.24145703 0.1123986 C747.17987074 0.05520005 747.17987074 0.05520005 765.37804099 5.0667013 C766.33839256 5.32362757 767.29874412 5.58055384 768.28819724 5.84526575 C777.12924213 8.29874389 785.45793965 11.62736505 793.81554099 15.3792013 C795.49970115 16.08302943 795.49970115 16.08302943 797.21788474 16.8010763 C809.66718597 22.26200757 821.39797544 28.8460458 832.17686912 37.13017786 C833.7806614 38.35261548 835.41513486 39.53446354 837.04991599 40.7151388 C844.91419458 46.49646516 851.84084073 53.12317759 858.75304099 60.0042013 C859.64128562 60.88696741 860.52953025 61.76973353 861.44469138 62.67925013 C874.48965235 75.86708859 884.67820066 91.30369174 893.81554099 107.3792013 C894.72626365 108.97248255 894.72626365 108.97248255 895.65538474 110.5979513 C910.24846007 137.86483128 914.28571218 166.80627183 914.20094366 197.18843347 C914.1932764 201.13713618 914.20313579 205.08580387 914.21067365 209.0345015 C914.22147164 215.9434321 914.22120293 222.85229229 914.21353217 229.76122607 C914.20215593 240.03575396 914.20800102 250.31022276 914.21715709 260.58475029 C914.23293641 278.94062251 914.23159191 297.29646336 914.22292036 315.65233855 C914.21536656 331.72171753 914.21340688 347.79108503 914.21698829 363.86046542 C914.21721744 364.92738352 914.2174466 365.99430163 914.2176827 367.09355059 C914.21861676 371.42487884 914.21957197 375.75620708 914.22056199 380.08753531 C914.22973617 420.70906657 914.22142415 461.3305779 914.2052713 501.95210608 C914.19104404 538.005045 914.19230097 574.05795212 914.20665427 610.11089075 C914.22273806 650.64567878 914.22907628 691.18044918 914.21981748 731.71523995 C914.21885539 736.0413584 914.21791686 740.36747685 914.21698829 744.6935953 C914.21663244 746.29131391 914.21663244 746.29131391 914.2162694 747.92130966 C914.21286427 763.9703932 914.21683439 780.01946395 914.22442695 796.06854571 C914.23302484 814.33341958 914.23081793 832.59825725 914.21458472 850.86312664 C914.20580982 861.07152419 914.20515133 871.27984326 914.21652324 881.48823868 C914.2232949 888.324218 914.21898414 895.16013495 914.20600893 901.99610509 C914.19893501 905.87975765 914.19629975 909.76325538 914.20722688 913.64690256 C914.30290141 950.38532586 910.20607621 983.70387418 892.81554099 1016.3792013 C892.37339256 1017.22998255 891.93124412 1018.0807638 891.47569724 1018.9573263 C883.41088557 1034.05508822 872.59518462 1048.00970806 860.81554099 1060.3792013 C860.256249 1060.97104212 859.69695701 1061.56288294 859.12071677 1062.17265833 C845.23241042 1076.78139556 830.23267429 1088.06831552 812.83897849 1098.19658411 C811.07989626 1099.22469636 809.33680822 1100.28007977 807.59679099 1101.3401388 C792.56325381 1110.08332753 774.09413812 1115.86143148 757.00304099 1118.9417013 C755.75909568 1119.16986536 754.51515037 1119.39802943 753.23350974 1119.63310755 C751.76104408 1119.8829314 750.28836515 1120.13149971 748.81554099 1120.3792013 C747.89097959 1120.54470043 746.96641818 1120.71019956 746.01383976 1120.88071381 C738.06398489 1122.22415977 730.40012306 1122.66269996 722.34735175 1122.63088358 C721.0492158 1122.63379046 719.75107984 1122.63669735 718.41360643 1122.63969231 C714.83333019 1122.64742676 711.2531629 1122.64284899 707.67288858 1122.63613641 C703.76899191 1122.63103846 699.86511126 1122.63759254 695.96121689 1122.64262308 C689.12654145 1122.64983134 682.29189763 1122.64963662 675.45722076 1122.64452875 C665.29348145 1122.63695365 655.12976874 1122.64083659 644.9660296 1122.64694537 C626.8108803 1122.65747126 608.65574508 1122.65656618 590.50059445 1122.65078754 C574.61013496 1122.64575466 558.71968062 1122.64444385 542.8292205 1122.64683283 C541.77479864 1122.6469856 540.72037678 1122.64713837 539.63400275 1122.64729577 C535.35362012 1122.64791846 531.0732375 1122.64855526 526.79285487 1122.6492153 C486.64240615 1122.6553327 446.49196638 1122.64978764 406.34151904 1122.63902151 C370.68523119 1122.62953313 335.02895762 1122.63037731 299.3726699 1122.63994349 C259.30126965 1122.65065829 219.22987732 1122.65489608 179.15847584 1122.64871896 C174.88469208 1122.64807754 170.61090831 1122.64745186 166.33712455 1122.64683283 C165.28483143 1122.64667468 164.23253831 1122.64651652 163.14835752 1122.64635358 C147.27226707 1122.64408064 131.39618235 1122.64673549 115.52009269 1122.65179194 C97.46133641 1122.65751492 79.4025964 1122.65607139 61.34384214 1122.64523045 C51.24266006 1122.63936623 41.14151324 1122.63896243 31.04033209 1122.6465228 C24.28592752 1122.65101969 17.53155111 1122.64819457 10.7771507 1122.63951326 C6.9334972 1122.63477348 3.08991357 1122.63309172 -0.75373763 1122.64032523 C-19.18933368 1122.67247565 -37.07608696 1122.39528301 -55.12195901 1118.1917013 C-56.04597512 1117.97739466 -56.96999123 1117.76308802 -57.92200784 1117.54228724 C-67.04828507 1115.32405673 -75.59930487 1112.15448709 -84.18445901 1108.3792013 C-84.94822854 1108.04936243 -85.71199807 1107.71952357 -86.49891213 1107.37968958 C-109.81693593 1097.21306984 -129.84646447 1082.86543107 -148.18445901 1065.3792013 C-149.08680276 1064.54131068 -149.98914651 1063.70342005 -150.91883401 1062.8401388 C-163.59690167 1050.71169835 -173.21069288 1036.37986983 -182.04334573 1021.31035365 C-183.54751912 1018.76477993 -185.12054478 1016.26338064 -186.68445901 1013.7542013 C-188.66779736 1010.43168576 -190.1752063 1007.19271075 -191.41492776 1003.53154505 C-192.32870395 1000.97575478 -193.44978229 998.5437196 -194.55945901 996.0667013 C-197.18981503 989.85238587 -198.86744277 983.50018703 -200.48475198 976.96587122 C-200.67827248 976.18574671 -200.87179299 975.4056222 -201.07117776 974.60185755 C-201.3219407 973.56170496 -201.3219407 973.56170496 -201.57776955 972.50053919 C-202.15715705 970.31247926 -202.15715705 970.31247926 -203.16997671 968.04908282 C-209.73166879 950.78023504 -207.62013946 929.06794267 -207.56366031 910.83303163 C-207.55500939 906.93619817 -207.56408668 903.03939428 -207.57072446 899.14256234 C-207.57994712 892.33891913 -207.57822479 885.53535014 -207.56899194 878.73170794 C-207.55530039 868.61437269 -207.55898746 858.49709361 -207.56595054 848.37975413 C-207.57783468 830.30525448 -207.57282399 812.23078988 -207.56067226 794.15629219 C-207.55011444 778.34411844 -207.54559954 762.53195662 -207.54696778 746.71977938 C-207.54705181 745.66880997 -207.54713584 744.61784056 -207.54722242 743.53502358 C-207.54757469 739.26833942 -207.54795871 735.00165525 -207.548388 730.73497109 C-207.55234751 690.76277725 -207.53965997 650.79060446 -207.51886143 610.81841665 C-207.50048172 575.32801209 -207.49468273 539.83762769 -207.50013284 504.34721888 C-207.50047927 502.06692686 -207.50082537 499.78663485 -207.50117113 497.50634283 C-207.50134212 496.37899111 -207.50151312 495.25163938 -207.50168929 494.09012549 C-207.50254288 488.41482901 -207.50336666 482.73953254 -207.50415829 477.06423605 C-207.50439392 475.38464636 -207.50439392 475.38464636 -207.5046343 473.67112556 C-207.50862566 443.98139524 -207.50314727 414.29166686 -207.494647 384.60193772 C-207.49374 381.40694311 -207.49283435 378.21194851 -207.49193177 375.0169539 C-207.49133067 372.8976426 -207.49072205 370.7783313 -207.49010586 368.65902001 C-207.48588854 353.89933631 -207.48530451 339.13965643 -207.48721136 324.37997232 C-207.48965594 305.36403365 -207.48556876 286.34811539 -207.47000135 267.33218229 C-207.46196276 257.28183094 -207.45934101 247.23151359 -207.46464371 237.18116023 C-207.46762755 230.46233721 -207.46329703 223.74354415 -207.45309513 217.02472829 C-207.44748644 213.20079079 -207.44493575 209.37692245 -207.45126171 205.55298448 C-207.49499678 176.65570388 -207.49499678 176.65570388 -205.18445901 163.3792013 C-204.95142847 161.9662806 -204.7193524 160.55320221 -204.48815069 159.1399811 C-197.41819612 116.70729206 -171.81317686 74.34222686 -138.18445901 47.3792013 C-137.19445901 46.56322474 -136.20445901 45.74724818 -135.18445901 44.90654505 C-123.84207541 35.67682894 -111.71430096 27.68263927 -98.87195901 20.6917013 C-97.94782204 20.1828036 -97.94782204 20.1828036 -97.00501565 19.66362513 C-93.70523019 17.92308402 -92.02081322 17.3792013 -88.18445901 17.3792013 C-88.18445901 16.7192013 -88.18445901 16.0592013 -88.18445901 15.3792013 C-87.41102151 15.12525599 -86.63758401 14.87131068 -85.84070901 14.60967005 C-84.79914651 14.26549036 -83.75758401 13.92131068 -82.68445901 13.5667013 C-81.66352151 13.23025599 -80.64258401 12.89381068 -79.59070901 12.54717005 C-77.13305592 11.70446561 -74.7144546 10.82692051 -72.28992776 9.89873255 C-48.76536675 1.02582694 -24.88276163 -0.07632762 0 0 Z M-45.18445901 31.3792013 C-46.61473559 31.70509936 -48.0452929 32.02976748 -49.47610662 32.35329915 C-58.30288522 34.39446063 -66.72078617 37.15242603 -75.18445901 40.3792013 C-75.18445901 41.0392013 -75.18445901 41.6992013 -75.18445901 42.3792013 C-76.36137307 42.63959193 -77.53828713 42.89998255 -78.75086526 43.1682638 C-110.56880368 51.17690809 -141.04618412 84.5361477 -157.43738869 111.43535365 C-166.3685879 126.6549898 -173.45676109 141.67839081 -176.71570901 159.14092005 C-177.18445901 161.3792013 -177.18445901 161.3792013 -178.24695901 164.4417013 C-180.80150272 172.44593827 -180.32727626 181.12920349 -180.31309346 189.4388727 C-180.3148465 190.74143434 -180.31659953 192.04399599 -180.31840569 193.38602919 C-180.32312071 196.99732339 -180.32163889 200.60859228 -180.31912792 204.2198877 C-180.31749173 208.15045296 -180.32163828 212.08101288 -180.3250371 216.01157642 C-180.33018748 222.89921711 -180.33160893 229.78685078 -180.33058099 236.6744932 C-180.32905609 246.91695452 -180.33321775 257.15940806 -180.33845561 267.40186787 C-180.34812843 286.75991098 -180.35093983 306.11795145 -180.35151267 325.4759967 C-180.35197216 340.42559822 -180.35403025 355.37519871 -180.3572133 370.3247999 C-180.35811084 374.62761737 -180.35900065 378.93043483 -180.35988817 383.2332523 C-180.36010922 384.30294026 -180.36033027 385.37262822 -180.36055802 386.47473098 C-180.3667126 416.56498658 -180.37065854 446.65524181 -180.37021474 476.74549807 C-180.37019916 477.88006233 -180.37018358 479.01462659 -180.37016753 480.18357158 C-180.37008442 485.93404455 -180.36998538 491.68451752 -180.36988282 497.43499049 C-180.36986288 498.57705913 -180.36984293 499.71912778 -180.36982238 500.89580456 C-180.36978194 503.20534629 -180.36974015 505.51488801 -180.36969699 507.82442973 C-180.36908427 543.75528862 -180.3765901 579.68613808 -180.39026955 615.61699427 C-180.40563141 655.98352965 -180.41423571 696.35005884 -180.41330633 736.71659733 C-180.4132317 741.02130092 -180.41318299 745.32600451 -180.41315202 749.63070811 C-180.41314036 750.69063783 -180.41312871 751.75056755 -180.4131167 752.84261635 C-180.41308593 769.89695164 -180.41947083 786.95127874 -180.42808428 804.0056116 C-180.43656276 821.14731111 -180.43754918 838.28899863 -180.43097496 855.43069907 C-180.42728059 865.61226683 -180.42910832 875.79379817 -180.4389173 885.97536207 C-180.44491943 892.78093601 -180.44361921 899.58648358 -180.4364468 906.39205631 C-180.43256729 910.26664837 -180.4317839 914.14116997 -180.43990415 918.01575705 C-180.44859362 922.19872059 -180.44166516 926.38151877 -180.43334798 930.56448305 C-180.43831616 931.75464252 -180.44328434 932.94480199 -180.44840307 934.17102689 C-180.39678243 946.47384839 -178.94017202 958.37865366 -175.18445901 970.1292013 C-174.79387307 971.42084193 -174.79387307 971.42084193 -174.39539651 972.7385763 C-173.26745549 976.38444624 -172.32179329 979.17319988 -170.18445901 982.3792013 C-169.71910821 983.88314859 -169.29759637 985.40097522 -168.90711526 986.9260763 C-167.24610684 992.65598402 -164.63928577 997.50773017 -161.62195901 1002.6292013 C-161.08965676 1003.54379115 -160.55735452 1004.45838099 -160.0089219 1005.40068568 C-141.43764298 1036.88738199 -115.8060484 1061.71962231 -83.18445901 1078.3792013 C-82.21121682 1078.90256068 -81.23797463 1079.42592005 -80.23524026 1079.9651388 C-73.59873121 1083.45617293 -66.95373402 1085.9583582 -59.82508401 1088.20342005 C-57.2930559 1089.02116733 -54.86702947 1089.8798972 -52.39778123 1090.84878583 C-36.4219557 1096.83727894 -19.11321202 1095.81849543 -2.32904042 1095.78320805 C1.6087073 1095.77826289 5.54640872 1095.7907691 9.48414113 1095.80093557 C16.37229737 1095.81632851 23.26039042 1095.82066125 30.14856216 1095.81756724 C40.39225397 1095.81297733 50.63587626 1095.82551109 60.87955453 1095.84119111 C80.24364797 1095.870155 99.60771752 1095.87864173 118.97183009 1095.88036229 C133.93068411 1095.88174272 148.88952882 1095.8879271 163.84837981 1095.89746416 C168.15959491 1095.90015694 172.47081001 1095.90282638 176.78202512 1095.9054888 C177.85391299 1095.90615194 178.92580087 1095.90681509 180.03017019 1095.90749833 C210.16758232 1095.92595277 240.30499121 1095.93780085 270.44240924 1095.93646849 C271.57791655 1095.93642175 272.71342386 1095.93637502 273.88334048 1095.93632687 C279.6381089 1095.93607756 285.39287731 1095.93578043 291.14764573 1095.93547274 C292.2904913 1095.93541291 293.43333688 1095.93535307 294.61081414 1095.93529142 C296.92192551 1095.93517011 299.23303689 1095.93504472 301.54414827 1095.93491525 C337.48987354 1095.93307757 373.43551386 1095.95558935 409.38121482 1095.99663294 C449.79956162 1096.04276487 490.21785261 1096.06852862 530.63622739 1096.06574328 C534.95027169 1096.0655194 539.26431598 1096.06537327 543.57836028 1096.06528033 C544.6405258 1096.06524536 545.70269131 1096.0652104 546.79704366 1096.06517438 C563.85251465 1096.06508225 580.90791159 1096.08419837 597.96336059 1096.11007712 C615.11998632 1096.13557005 632.27650432 1096.13842703 649.43313857 1096.11874916 C659.61032029 1096.1077042 669.78717361 1096.11303382 679.9643202 1096.14257618 C686.78072823 1096.16068186 693.59690046 1096.15657322 700.41329804 1096.13516468 C704.2850739 1096.12360831 708.15621818 1096.12093109 712.0279475 1096.14553674 C748.84080097 1096.36425136 782.42636088 1087.57896689 812.81554099 1066.3792013 C813.38772361 1065.98603724 813.95990623 1065.59287318 814.54942771 1065.18779505 C837.1734644 1049.50023533 854.48718964 1029.14930391 867.80675193 1005.18242396 C868.69583591 1003.59317559 869.61660514 1002.02174192 870.54210349 1000.45342005 C871.23433006 999.27199427 871.23433006 999.27199427 871.94054099 998.0667013 C872.50128318 997.11343958 872.50128318 997.11343958 873.07335349 996.14092005 C874.07436745 994.08344125 874.07436745 994.08344125 873.81554099 990.3792013 C874.47554099 990.3792013 875.13554099 990.3792013 875.81554099 990.3792013 C882.89837923 968.98246142 888.1522473 948.41818874 888.0728099 925.71291102 C888.07631597 924.4176417 888.07982205 923.12237238 888.08343437 921.78785247 C888.09279272 918.22490306 888.08992455 914.66205724 888.08487882 911.09910309 C888.08158762 907.21041595 888.089915 903.32174983 888.09669717 899.4330696 C888.1069679 892.6280294 888.10984608 885.82301763 888.10778495 879.01797045 C888.10472733 868.89800141 888.11307578 858.77806369 888.1235342 848.65810075 C888.14285166 829.52877415 888.14850159 810.39945829 888.14964832 791.27012307 C888.1505683 776.49378735 888.15468967 761.71745583 888.16104957 746.94112147 C888.16284473 742.68381855 888.16462436 738.42651563 888.16639932 734.16921271 C888.16684142 733.11075498 888.16728352 732.05229726 888.16773901 730.96176506 C888.18004335 701.19873497 888.18794055 671.43570634 888.18705245 641.67267359 C888.18702129 640.5510872 888.18699014 639.4295008 888.18695804 638.27392694 C888.18679183 632.58959848 888.18659375 626.90527002 888.18638862 621.22094155 C888.18634873 620.0920671 888.18630884 618.96319265 888.18626774 617.80010989 C888.18618687 615.51725127 888.18610327 613.23439265 888.18601696 610.95153403 C888.18479174 575.44254346 888.19980085 539.9335911 888.22716209 504.42461146 C888.25790905 464.50549031 888.275093 424.58639427 888.27323564 384.66726054 C888.27308639 380.40744278 888.27298897 376.14762502 888.27292701 371.88780726 C888.2729037 370.83897798 888.27288039 369.7901487 888.27285638 368.70953671 C888.27279493 351.8598039 888.28554531 335.01010438 888.30279154 318.16038145 C888.3197773 301.21418071 888.32169885 284.26802846 888.3085729 267.3218239 C888.30120335 257.26628649 888.30478181 247.21089674 888.32445758 237.15537509 C888.33651157 230.42381061 888.33380672 223.69235238 888.31951658 216.96079265 C888.311799 213.13507823 888.31006844 209.30964823 888.32643128 205.48395456 C888.49800449 162.49327927 877.70067421 123.20787221 848.81554099 90.3792013 C848.10913474 89.56322474 847.40272849 88.74724818 846.67491599 87.90654505 C844.42852659 85.3571355 842.13651529 82.86088719 839.81554099 80.3792013 C838.92222068 79.4201388 838.02890037 78.4610763 837.10850974 77.4729513 C826.13112323 65.95042927 813.33964578 57.22914243 799.55626365 49.38164271 C797.96366336 48.4645015 796.39405601 47.50772881 794.82725974 46.54717005 C767.38481038 30.44517658 735.85236484 27.90577629 704.85196444 27.99379864 C700.95184622 28.0014961 697.05176253 27.99159489 693.15164938 27.98406864 C686.33446279 27.97329261 679.51734762 27.97352565 672.70015784 27.98121012 C662.56254405 27.99260614 652.42498998 27.98673131 642.28737653 27.9775852 C624.17743114 27.96182344 606.06751759 27.96314286 587.9575692 27.97182194 C572.11079666 27.97937883 556.26403577 27.98133394 540.4172618 27.97775401 C539.36470747 27.97752485 538.31215314 27.97729569 537.22770322 27.9770596 C532.95470675 27.97612553 528.68171029 27.97517033 524.40871384 27.9741803 C484.35620791 27.96501109 444.30372221 27.9733117 404.25121941 27.989471 C368.68776954 28.00371006 333.12435191 28.00243041 297.56090232 27.98808802 C257.57551337 27.97201608 217.59014227 27.96565835 177.60475054 27.97492481 C173.34062466 27.97588692 169.07649877 27.97682545 164.81237289 27.97775401 C163.23754619 27.97810985 163.23754619 27.97810985 161.6309048 27.97847289 C145.79424494 27.98188167 129.95759801 27.97790132 114.12093993 27.97031535 C96.11175271 27.96173154 78.10260221 27.9638951 60.09341955 27.98015758 C50.02106967 27.98895359 39.94879935 27.98956002 29.87645157 27.97821905 C23.14151043 27.97147364 16.40663284 27.97571148 9.67170108 27.98873336 C5.83926515 27.99584278 2.00698684 27.99836638 -1.82544392 27.98751541 C-16.54467279 27.94892877 -30.80178298 27.91996476 -45.18445901 31.3792013 Z " fill="#D55025" transform="translate(272.18445900734514,61.62079869862646)"/>
<path d="M0 0 C20.18329343 12.2874116 33.9749594 43.12200086 40 65 C45.37015711 87.35693022 46.83919273 112.62417214 41 135 C40.55825044 136.7785606 40.11687234 138.55721348 39.67578125 140.3359375 C36.99656982 150.95770574 34.07340949 161.50890436 30.91674805 171.9987793 C27.99874859 181.90051751 27.79075836 191.34370347 27.75 201.625 C27.729375 202.90246094 27.70875 204.17992187 27.6875 205.49609375 C27.63627817 218.13507972 30.02866799 229.63022579 34.625 241.375 C34.96909912 242.26493652 35.31319824 243.15487305 35.66772461 244.07177734 C38.77476972 251.86697572 42.56250093 259.10134652 46.94482422 266.24707031 C47.96862693 267.94788092 48.92510604 269.68865509 49.87890625 271.4296875 C52.99096643 277.17999782 52.99096643 277.17999782 58.5 280.1875 C66.69331876 277.40762399 71.16523269 268.31281207 75 261 C80.20001229 250.03781193 82.40275105 239.12749389 82.44604492 227.0546875 C82.57038169 221.47469604 82.57038169 221.47469604 84.82421875 218.984375 C88.37450961 217.37813928 90.32040383 217.79461505 94 219 C110.32585301 233.02460246 116.65719126 262.96301896 120 283 C120.176521 283.86020752 120.35304199 284.72041504 120.53491211 285.60668945 C121.17463709 290.27416321 121.16258102 294.87998694 121.16796875 299.5859375 C121.17129715 300.60168854 121.17462555 301.61743958 121.17805481 302.66397095 C121.18310466 304.80722604 121.18546374 306.95048896 121.18530273 309.09375 C121.18748788 312.35690377 121.20566079 315.61971852 121.22460938 318.8828125 C121.22754404 320.97135302 121.22952835 323.05989513 121.23046875 325.1484375 C121.23765427 326.11639252 121.24483978 327.08434753 121.25224304 328.08163452 C121.23329493 333.75385064 120.5730867 338.55048543 119 344 C118.59142521 346.41454518 118.19588535 348.83132733 117.8125 351.25 C112.23612122 382.92504046 95.37658085 413.25024579 73 436 C71.87746999 437.16132865 70.75507679 438.32278956 69.6328125 439.484375 C64.54535346 444.70200045 59.56366722 449.76661347 53.48828125 453.8515625 C51.18615425 455.62800695 50.10576546 457.42228113 49.5859375 460.26171875 C49.51632812 461.06222656 49.44671875 461.86273437 49.375 462.6875 C49.30023438 463.49574219 49.22546875 464.30398438 49.1484375 465.13671875 C49.07496094 466.05904297 49.07496094 466.05904297 49 467 C11.43553617 479.81481709 -32.98572717 477.67546737 -71 468 C-70.98259766 467.38801758 -70.96519531 466.77603516 -70.94726562 466.14550781 C-70.92696289 464.93652832 -70.92696289 464.93652832 -70.90625 463.703125 C-70.88884766 462.90551758 -70.87144531 462.10791016 -70.85351562 461.28613281 C-71.09271806 457.55298014 -72.5179732 455.73022948 -75 453 C-76.20986656 452.21391023 -77.44437592 451.46503177 -78.6953125 450.74609375 C-83.08668804 448.06402575 -86.68015266 444.87303366 -90.375 441.3125 C-91.35206909 440.38123291 -91.35206909 440.38123291 -92.34887695 439.43115234 C-93.64768505 438.18965169 -94.9434371 436.9449446 -96.23583984 435.69677734 C-97.7322404 434.25753241 -99.2487871 432.83927969 -100.76953125 431.42578125 C-118.1450928 414.89233092 -131.22602182 392.57883368 -139 370 C-139.28875 369.16726563 -139.5775 368.33453125 -139.875 367.4765625 C-140.36239126 366.0296197 -140.83588121 364.57789322 -141.29296875 363.12109375 C-141.9828099 360.96425296 -141.9828099 360.96425296 -142.92578125 358.78515625 C-158.00784603 321.92435701 -153.90137101 271.99975217 -142 235 C-141.62101562 233.80632812 -141.24203125 232.61265625 -140.8515625 231.3828125 C-136.47507615 218.42958781 -130.85326854 202.85326854 -121 193 C-114.9500245 192.3277805 -114.9500245 192.3277805 -111.8359375 194.53125 C-109.37904001 197.83499301 -109.25742269 200.89979113 -109 204.875 C-107.16138354 224.48970424 -99.88916347 239.11083653 -86 253 C-83.5 253.33333333 -83.5 253.33333333 -81 253 C-78.59544351 251.0470931 -78.59544351 251.0470931 -78.85229492 247.40600586 C-78.88620204 245.84206912 -78.92965452 244.27832248 -78.98046875 242.71484375 C-79.01499541 240.98106892 -79.0478892 239.24726098 -79.0793457 237.51342773 C-79.10745834 236.14720779 -79.10745834 236.14720779 -79.13613892 234.75338745 C-79.45059768 217.5130877 -78.71582472 201.69630399 -74 185 C-73.78649902 184.21431641 -73.57299805 183.42863281 -73.35302734 182.61914062 C-72.0818192 178.00490432 -70.62350125 173.50223349 -69 169 C-68.66871094 168.06671875 -68.33742188 167.1334375 -67.99609375 166.171875 C-61.55997759 149.54722071 -52.32201002 133.89593317 -42.41943359 119.13183594 C-24.68810692 92.50129852 -8.72672562 64.00412401 -8.875 31.0625 C-8.87113281 30.20720703 -8.86726562 29.35191406 -8.86328125 28.47070312 C-8.87129518 23.21757329 -9.27438643 18.20115377 -10 13 C-10.71840556 5.1328703 -10.71840556 5.1328703 -8.375 1.4375 C-5.10851922 -0.53958047 -3.77495542 -0.79854826 0 0 Z " fill="#FDBA41" transform="translate(455,565)"/>
<path d="M0 0 C3.81978202 1.77347022 5.48336877 3.25949523 7.875 6.6875 C10.16347267 13.42578065 9.04109901 19.04051697 7.49609375 25.796875 C5.89966361 33.31806615 5.56969549 40.58450756 5.66381836 48.25415039 C5.6876936 50.32932765 5.68430866 52.40323281 5.67773438 54.47851562 C5.69322502 61.89511489 6.25948729 68.79114206 8 76 C8.25914026 77.39048915 8.51065831 78.78242409 8.75390625 80.17578125 C11.10314523 92.57958455 15.59979972 103.62705344 21 115 C21.35191406 115.75168457 21.70382812 116.50336914 22.06640625 117.27783203 C30.51959176 135.08014428 42.90618226 150.39813566 56 165 C56.6815918 165.76618652 56.6815918 165.76618652 57.37695312 166.54785156 C63.18578126 173.0629329 69.23767766 179.2884364 75.44287109 185.42382812 C78.83911775 188.79466138 82.03368359 192.25918289 85.12890625 195.91015625 C88.09962114 199.22817811 91.28656583 202.32967822 94.47485352 205.43774414 C98.5438077 209.43606383 102.28611112 213.67212559 106 218 C106.54156738 218.62438965 107.08313477 219.2487793 107.64111328 219.89208984 C121.41551419 235.86005263 133.30618021 253.25987543 143 272 C143.50539307 272.97187256 143.50539307 272.97187256 144.02099609 273.96337891 C165.52464333 315.91244325 170.61567055 362.62457985 165 409 C164.90348145 409.84900879 164.80696289 410.69801758 164.70751953 411.57275391 C163.0893601 425.56757446 160.02884477 439.06711625 156.50317383 452.69775391 C155.89324116 455.09570444 155.89324116 455.09570444 156 458 C177.62694457 437.42375719 196.00858913 411.18432345 203.3125 381.75 C204.60218099 377.37060199 206.2905904 374.78247679 209.984375 372.07421875 C214.55744026 369.63702312 218.38840323 369.23162938 223.36328125 370.6953125 C229.26592529 373.69127637 231.21990419 377.95644345 233.25 383.9375 C233.97307546 386.20031243 234.66369936 388.46910666 235.33251953 390.74853516 C236.17465002 393.58910844 237.1018869 396.39657991 238.04394531 399.20532227 C238.64914228 401.01058166 239.23726903 402.82153812 239.82421875 404.6328125 C240.96577476 408.04348548 240.96577476 408.04348548 242.50390625 411.41796875 C244.12589923 415.30143498 245.22583484 419.1156354 246.25 423.1875 C246.45761963 424.00444336 246.66523926 424.82138672 246.87915039 425.66308594 C247.33857399 427.47272393 247.79625578 429.28280477 248.25244141 431.09326172 C249.02669944 434.10381564 249.84457299 437.10019439 250.66796875 440.09765625 C258.11028211 467.73195557 262.91291422 496.34463172 263 525 C263.01627071 526.40333813 263.03411703 527.80665854 263.05322266 529.20996094 C263.30760717 548.21924854 263.29656567 567.09615351 261 586 C260.89284668 586.88945313 260.78569336 587.77890625 260.67529297 588.6953125 C259.3886497 598.97347589 257.51879332 608.8801694 254.61523438 618.83886719 C253.88383159 621.40806459 253.19882564 623.98788362 252.515625 626.5703125 C252.25499268 627.5495166 251.99436035 628.5287207 251.72583008 629.53759766 C251.21259194 631.46625408 250.70188074 633.39558531 250.1940918 635.32568359 C248.81289254 640.4500392 247.18901439 645.16786718 245 650 C244.17691668 652.12092317 243.36419772 654.24590113 242.5625 656.375 C226.11344683 699.24960309 198.13421476 739.44538965 162 768 C160.92876942 768.87257203 159.85848912 769.74631172 158.7890625 770.62109375 C143.37927888 783.12421476 126.5213992 792.7712221 109 802 C108.24235352 802.40412109 107.48470703 802.80824219 106.70410156 803.22460938 C97.35085737 808.19873741 88.11366962 811.84846551 78 815 C75.31591349 815.96032436 72.66089245 816.97657983 70 818 C65.03876211 819.65374596 58.84233881 820.39878879 54.015625 818.0234375 C50.56020805 815.23515551 48.42908139 812.23204841 47.59375 807.88671875 C47.39804263 803.29575013 47.79729266 800.63885015 50.8125 797.0625 C54.35701814 793.36044772 57.72155479 791.68422328 62.625 790.3125 C89.97130507 782.08736274 116.58750853 767.54143491 139 750 C139.8971875 749.31421875 140.794375 748.6284375 141.71875 747.921875 C148.48415824 742.65513315 154.78458252 736.89546272 161 731 C161.50321777 730.52546387 162.00643555 730.05092773 162.52490234 729.56201172 C170.52193544 721.97138944 177.4016168 713.82229242 184 705 C184.72058594 704.05125 185.44117188 703.1025 186.18359375 702.125 C207.6221592 673.37308377 222.58484203 639.22530544 229.40136719 604.05957031 C229.81291147 601.95619634 230.24438698 599.856655 230.69238281 597.76074219 C234.58390236 579.29313858 235.4608958 561.33547421 235.4375 542.5 C235.43763092 541.4134613 235.43776184 540.32692261 235.43789673 539.2074585 C235.39199741 517.98433544 234.35199269 496.81500884 230 476 C229.70706055 474.58412598 229.70706055 474.58412598 229.40820312 473.13964844 C226.77815794 459.91776246 226.77815794 459.91776246 223 447 C222.66154968 445.63115646 222.34684358 444.25609738 222.0625 442.875 C221.04309722 438.07972935 219.8237941 433.3446368 218.5859375 428.6015625 C218 426 218 426 218 423 C217.34 423 216.68 423 216 423 C215.60941406 424.28777344 215.60941406 424.28777344 215.2109375 425.6015625 C209.41320144 441.87262822 196.77196868 456.68504384 185 469 C184.01386719 470.08087891 184.01386719 470.08087891 183.0078125 471.18359375 C169.38764154 485.60041622 147.61608889 502.19870041 127.125 503.5625 C122.35212751 503.32862059 120.20890354 501.44370136 117 498 C114.26860782 493.46978594 114.38731996 489.15074407 115 484 C116.06727397 480.37223498 117.56101486 477.00078234 119.125 473.5625 C119.96006789 471.62220967 120.78941524 469.6794482 121.61328125 467.734375 C122.22550537 466.28901367 122.22550537 466.28901367 122.85009766 464.81445312 C127.70021802 452.94350036 130.71755392 440.63560528 133.140625 428.07421875 C133.62450487 425.60733061 134.18924998 423.46924631 135.0390625 421.0859375 C139.48687984 406.80229644 138.20442413 389.9806609 138.25 375.125 C138.25517639 374.35888397 138.26035278 373.59276794 138.26568604 372.80343628 C138.34814935 357.32208789 137.27201465 342.08339057 133.3125 327.0625 C133.05267334 326.05453369 132.79284668 325.04656738 132.52514648 324.00805664 C129.97860644 314.42317335 126.79314734 305.15952851 123 296 C122.73106934 295.34773438 122.46213867 294.69546875 122.18505859 294.0234375 C111.01620663 267.46411247 92.33719552 245.00831118 73 224 C72.50113281 223.45601562 72.00226563 222.91203125 71.48828125 222.3515625 C62.67948585 212.76859743 53.58885662 203.49817877 44.32128906 194.3581543 C21.72114834 171.98332831 3.89164537 146.03439081 -9 117 C-9.30067383 116.32404785 -9.60134766 115.6480957 -9.91113281 114.95166016 C-14.04557531 105.51683377 -16.76178763 96.0312609 -19 86 C-19.16935059 85.35135986 -19.33870117 84.70271973 -19.51318359 84.03442383 C-21.29454878 76.91806011 -21.66930956 69.73975254 -22.125 62.4375 C-22.21136719 61.14263672 -22.29773438 59.84777344 -22.38671875 58.51367188 C-22.59733017 55.34279991 -22.80159213 52.17165499 -23 49 C-41.36063626 67.07280186 -55.5658475 90.06520571 -65 114 C-65.53367187 115.31097656 -65.53367187 115.31097656 -66.078125 116.6484375 C-68.28631293 122.34416035 -69.96308192 128.17283589 -71.5625 134.0625 C-71.76045166 134.77494873 -71.95840332 135.48739746 -72.16235352 136.22143555 C-76.43734014 152.49037969 -77.54041811 168.30531654 -77.4375 185.0625 C-77.43479095 186.09803009 -77.43208191 187.13356018 -77.42929077 188.20046997 C-77.36719428 203.86011692 -76.43554708 218.68194706 -73 234 C-72.56046965 236.09696052 -72.12438346 238.19464535 -71.69140625 240.29296875 C-71.0455103 243.41189402 -70.39559736 246.5293843 -69.72485352 249.64306641 C-68.25567379 256.49693658 -67.14619249 263.30619645 -66.359375 270.26953125 C-66.07637454 273.08709142 -66.07637454 273.08709142 -65 276 C-58.77027635 316.83929946 -67.03141942 362.10781547 -91.30078125 395.80615234 C-100.27906575 407.93136437 -110.10327341 418.67401717 -122 428 C-123.12918429 428.97433834 -124.25507128 429.95253705 -125.375 430.9375 C-129.61120276 434.26594503 -133.3848144 435.62766513 -138.8671875 435.5234375 C-143.124428 434.47862023 -146.20637335 431.25342555 -149 428 C-150.28965092 424.13104723 -150.08444707 420.50401401 -150.02734375 416.4765625 C-150.01249774 414.72591648 -149.99828009 412.97526504 -149.98461914 411.22460938 C-149.97625031 410.3096167 -149.96788147 409.39462402 -149.95925903 408.4519043 C-149.76731668 383.51501207 -151.41334264 361.92457324 -159 338 C-159.32693848 336.96705811 -159.65387695 335.93411621 -159.99072266 334.86987305 C-161.88002424 329.044298 -163.95507698 323.4486464 -166.625 317.9375 C-166.9240625 317.30134766 -167.223125 316.66519531 -167.53125 316.00976562 C-168.87233617 313.18814405 -170.26344096 310.60483856 -172 308 C-174.26917278 313.91433332 -176.27132781 319.82366818 -177.9375 325.9375 C-179.79015083 332.55513994 -182.18808575 338.73672745 -185 345 C-185.45246094 346.02609375 -185.90492188 347.0521875 -186.37109375 348.109375 C-189.34549825 354.71916277 -192.60130891 361.13066986 -196.04931641 367.5012207 C-198.01328214 371.13153939 -199.8909442 374.78280196 -201.6875 378.5 C-204.67431173 384.55545391 -208.02853514 390.3872965 -211.375 396.25 C-216.20816095 404.73355172 -220.8474444 413.25179615 -225.06738281 422.05664062 C-226.06311064 424.13150804 -227.07464624 426.19830333 -228.0859375 428.265625 C-231.84156507 436.01556689 -235.14647654 443.72314102 -237.921875 451.8828125 C-238.85520701 454.5813594 -239.88553609 457.18554936 -241 459.8125 C-248.49601579 478.38696483 -252.89595043 498.84161606 -254.640625 518.73828125 C-255 522 -255 522 -256 523 C-256.11429144 524.54956441 -256.15959514 526.10428289 -256.17700195 527.65795898 C-256.18983719 528.65508408 -256.20267242 529.65220917 -256.21589661 530.67955017 C-256.22328354 531.77400955 -256.23067047 532.86846893 -256.23828125 533.99609375 C-256.246353 535.13160172 -256.25442474 536.26710968 -256.26274109 537.43702698 C-256.27662681 539.86417095 -256.28732869 542.29133482 -256.29516602 544.71850586 C-256.30651367 547.1531361 -256.32667928 549.58774507 -256.35668945 552.0222168 C-256.60595051 572.24856817 -255.32563254 591.99402345 -249.67845154 611.51475525 C-248.99245213 614.02764872 -248.469393 616.53373158 -247.9921875 619.09375 C-239.6416028 662.46897523 -212.1317483 702.71230227 -182 734 C-181.2471875 734.7940625 -180.494375 735.588125 -179.71875 736.40625 C-161.88976594 754.81979092 -139.04934989 769.10994372 -116 780 C-115.15953125 780.39832031 -114.3190625 780.79664063 -113.453125 781.20703125 C-103.64980179 785.69723951 -93.64876272 789.28067032 -83.19140625 791.91015625 C-78.69221324 793.44660037 -75.17711534 795.58746159 -72.125 799.25 C-70.63362314 802.89558788 -70.31395546 806.15513499 -71 810 C-73.69544864 815.10209922 -76.5214311 818.17381037 -82 820 C-88.09361665 820.46457052 -93.07906455 819.06331293 -98.8125 817.25 C-99.70541748 816.97341553 -100.59833496 816.69683105 -101.51831055 816.41186523 C-107.47209649 814.5434449 -113.30929192 812.5726364 -119 810 C-120.07507813 809.52175781 -121.15015625 809.04351563 -122.2578125 808.55078125 C-143.46308398 798.96975738 -162.8611617 787.57534878 -181 773 C-182.51787109 771.79150391 -182.51787109 771.79150391 -184.06640625 770.55859375 C-212.75819078 747.24764735 -235.53224229 717.70120896 -252.5 685 C-253.07548584 683.89092285 -253.65097168 682.7818457 -254.24389648 681.63916016 C-257.40370388 675.43463309 -260.27938258 669.1782771 -262.890625 662.72338867 C-264.04254969 659.89554538 -265.26546313 657.10511629 -266.5 654.3125 C-277.36407088 628.04920092 -284.13619372 597.04951883 -284.16796875 568.640625 C-284.17296135 567.042117 -284.17296135 567.042117 -284.17805481 565.41131592 C-284.18309203 563.16239855 -284.18546413 560.91347379 -284.18530273 558.66455078 C-284.1874672 555.30097366 -284.20559668 551.93773708 -284.22460938 548.57421875 C-284.27044715 531.0846945 -283.94207403 513.4362277 -279.78125 496.36328125 C-279.13047207 493.56168224 -278.61864584 490.79838196 -278.140625 487.96484375 C-276.94179839 481.26855702 -275.13311873 474.78202643 -273.25 468.25 C-272.89510498 467.0137085 -272.54020996 465.77741699 -272.17456055 464.50366211 C-269.60780555 455.72308386 -266.60493322 447.39749751 -263 439 C-262.28641768 437.0435732 -261.57819373 435.08518472 -260.875 433.125 C-252.52687128 411.32859961 -240.90614428 390.56017787 -229.375 370.3125 C-218.63070085 351.43645468 -208.92970826 331.99071736 -202.5 311.1875 C-202.30019531 310.55263672 -202.10039062 309.91777344 -201.89453125 309.26367188 C-201.2462508 307.18050315 -200.62100545 305.09145845 -200 303 C-199.74468506 302.16525146 -199.48937012 301.33050293 -199.22631836 300.47045898 C-196.91250339 292.55275092 -196.02462449 284.71504226 -195.27148438 276.52148438 C-194.63169146 270.56648875 -193.97020966 266.57697755 -190 262 C-186.01437198 259.21932929 -182.16215537 258.20490629 -177.3515625 258.4140625 C-165.14328282 261.45599265 -155.92476145 279.77486646 -149.8125 289.875 C-147.83588646 293.22864294 -145.90281816 296.60399319 -144 300 C-143.65340332 300.61472168 -143.30680664 301.22944336 -142.94970703 301.86279297 C-137.97239331 310.92187597 -134.93796043 320.77545279 -131.75 330.5625 C-131.53494812 331.21940826 -131.31989624 331.87631653 -131.09832764 332.5531311 C-125.08788715 351.03931698 -121.45964232 369.51710375 -122 389 C-121.34 389 -120.68 389 -120 389 C-119.61521484 387.90945313 -119.61521484 387.90945313 -119.22265625 386.796875 C-117.93811891 383.85844454 -116.41915454 381.76409909 -114.4375 379.25 C-104.71648838 366.03577549 -98.85716002 351.89149927 -95 336 C-94.82210937 335.28328125 -94.64421875 334.5665625 -94.4609375 333.828125 C-89.91493245 314.63388147 -89.16032594 290.12903016 -94.47363281 271.06103516 C-95.59467375 266.67150475 -96.16963297 262.15888863 -96.875 257.6875 C-97.93545118 251.08307611 -99.04686637 244.52799986 -100.55615234 238.01049805 C-112.46854312 186.3001537 -106.31984715 133.54247369 -83 86 C-82.6807959 85.34016113 -82.3615918 84.68032227 -82.03271484 84.00048828 C-67.00001896 53.20088985 -42.94571377 25.11386103 -16 4 C-14.77410156 2.90171875 -14.77410156 2.90171875 -13.5234375 1.78125 C-9.27391177 -1.21841522 -4.99835414 -0.71929325 0 0 Z " fill="#C3421A" transform="translate(456,222)"/>

<path d="M0 0 C17.5945381 13.81389355 27.9836247 32.75038315 31.6484375 54.6640625 C32.09756757 59.31966318 32.22023194 63.925816 32.2109375 68.6015625 C32.20924561 69.84848877 32.20755371 71.09541504 32.20581055 72.38012695 C31.70975389 98.41231748 21.02737147 122.25033093 2.6484375 140.6640625 C-1.44242011 144.33277972 -5.84856395 147.52489641 -10.3515625 150.6640625 C-11.07085938 151.18742188 -11.79015625 151.71078125 -12.53125 152.25 C-17.22043689 155.46043916 -22.19983266 157.12046598 -27.6171875 158.76953125 C-30.24655789 159.53741606 -30.24655789 159.53741606 -32.10075665 160.61998653 C-44.782004 166.50240662 -60.81336003 165.0976498 -74.39526367 165.06811523 C-76.78357257 165.07382795 -79.17187873 165.08079567 -81.56018066 165.08891296 C-87.99948607 165.10674709 -94.43865452 165.10569597 -100.87797713 165.09997058 C-104.90370307 165.09689537 -108.92940972 165.099881 -112.95513344 165.10444832 C-113.62593477 165.10519674 -114.2967361 165.10594516 -114.98786474 165.10671626 C-116.35096254 165.10824788 -117.71406034 165.10978622 -119.07715813 165.11133123 C-131.8099677 165.1250062 -144.54271553 165.11965068 -157.27552364 165.10814602 C-168.92063691 165.09818663 -180.56559192 165.11120967 -192.21068081 165.13508021 C-204.19274946 165.15945551 -216.17474433 165.16908495 -228.15683728 165.16242748 C-234.87438755 165.15893591 -241.59181569 165.16116497 -248.30934715 165.17867851 C-254.61405949 165.19410094 -260.91846731 165.19024433 -267.22316742 165.17137337 C-269.53832502 165.16767636 -271.85350499 165.17082812 -274.16864204 165.18125916 C-277.32369495 165.19439234 -280.47772784 165.18298977 -283.63273621 165.16526794 C-284.55275852 165.17487295 -285.47278083 165.18447796 -286.42068261 165.19437402 C-290.53708156 165.14665164 -292.76630609 165.02588551 -296.33398914 162.82023716 C-299.43557736 159.50557903 -300.68598255 157.34291854 -300.8515625 152.8515625 C-300.903125 152.02011719 -300.9546875 151.18867187 -301.0078125 150.33203125 C-300.02447018 146.33427648 -297.68433294 143.9148003 -294.3515625 141.6640625 C-291.08512346 140.81284109 -287.93600044 140.8670649 -284.57495117 140.92475891 C-283.59556643 140.91766551 -282.61618168 140.9105721 -281.60711861 140.90326375 C-278.32731654 140.8867032 -275.04925244 140.91283923 -271.76953125 140.9387207 C-269.41700238 140.93546158 -267.06447592 140.92952551 -264.71195984 140.92111206 C-259.64542386 140.90869941 -254.57938505 140.91515955 -249.51287842 140.93618202 C-242.17248582 140.96644556 -234.83241021 140.96265275 -227.49198961 140.94863882 C-215.56183188 140.92655958 -203.63181735 140.92899726 -191.70166016 140.94897461 C-190.98798735 140.95016394 -190.27431455 140.95135326 -189.53901529 140.95257863 C-188.82450378 140.95377079 -188.10999227 140.95496295 -187.37382889 140.95619124 C-177.26402964 140.97300765 -167.15424645 140.98406065 -157.04443359 140.98803711 C-156.33405964 140.98832266 -155.6236857 140.98860822 -154.89178526 140.98890243 C-143.01508614 140.99318181 -131.13841239 140.98530701 -119.26172161 140.97133893 C-111.29905473 140.96282115 -103.33657473 140.97179779 -95.37392521 140.99390185 C-90.40528811 141.00503308 -85.43670333 141.0039904 -80.46805763 141.0000267 C-78.17441844 141.00080932 -75.88077398 141.00671727 -73.58716393 141.01830482 C-50.46385174 141.13036821 -29.5733048 138.3034077 -12.10546875 121.50390625 C-7.32152351 116.37631276 -3.70569802 110.80162988 -0.3515625 104.6640625 C0.02871094 104.00792969 0.40898438 103.35179687 0.80078125 102.67578125 C3.50855225 97.74048542 4.79472322 92.67766182 6.03515625 87.203125 C6.6484375 84.6640625 6.6484375 84.6640625 7.6484375 82.6640625 C7.74381191 81.2838328 7.7791722 79.89914443 7.78125 78.515625 C7.78358643 77.6810376 7.78592285 76.8464502 7.78833008 75.98657227 C7.76380959 71.54514859 7.72391723 67.10493484 7.6484375 62.6640625 C7.63167969 61.49746094 7.61492187 60.33085937 7.59765625 59.12890625 C6.89918748 44.30141209 -0.52364567 31.59524095 -11.14453125 21.54296875 C-22.96449059 11.4803131 -35.45878137 8.35833734 -50.6640625 8.2265625 C-52.02398315 8.2112146 -52.02398315 8.2112146 -53.41137695 8.19555664 C-66.15346713 8.36164167 -77.25615091 13.32124378 -86.6953125 21.84765625 C-96.19773787 32.26894823 -99.90077016 43.65741171 -99.8515625 57.4765625 C-99.81213467 68.74634948 -99.81213467 68.74634948 -102.1953125 72.80078125 C-105.93029106 76.0282899 -108.34268072 77.16517754 -113.3515625 77.0546875 C-116.74113451 76.39266172 -118.28081062 74.28295459 -120.3515625 71.6640625 C-124.03785508 66.13462364 -123.5339715 59.79167268 -123.5390625 53.3515625 C-123.55130859 52.54783203 -123.56355469 51.74410156 -123.57617188 50.91601562 C-123.61978072 32.84741876 -114.81985633 17.32959344 -102.6640625 4.4140625 C-74.052099 -22.61809933 -31.23244328 -22.4405201 0 0 Z " fill="#7D7C7C" transform="translate(1051.3515625,413.3359375)"/>
<path d="M0 0 C1.05968994 0.00418945 2.11937988 0.00837891 3.21118164 0.01269531 C14.47086231 0.17504058 24.16720409 2.15632416 34.25 7.3125 C35.52423828 7.90804687 35.52423828 7.90804687 36.82421875 8.515625 C44.90789417 12.52863362 50.92221269 18.00289599 57.25 24.3125 C57.9203125 24.95960938 58.590625 25.60671875 59.28125 26.2734375 C69.86891898 37.29423839 76.65028168 54.15162078 77.25 69.3125 C77.34474609 70.90578125 77.34474609 70.90578125 77.44140625 72.53125 C77.89797808 86.31677375 75.423227 100.88455125 69.25 113.3125 C68.74597656 114.34632813 68.24195313 115.38015625 67.72265625 116.4453125 C63.96890707 123.7825728 59.7303552 130.16255253 54.25 136.3125 C53.58484375 137.07175781 52.9196875 137.83101562 52.234375 138.61328125 C37.9204603 153.96097868 16.40685968 163.00877332 -4.38343108 164.50158966 C-7.07317492 164.57568328 -9.75671453 164.59365104 -12.44746399 164.58665466 C-13.46535025 164.59189134 -14.48323652 164.59712802 -15.53196782 164.60252339 C-18.91108251 164.61741425 -22.29004433 164.6182261 -25.66918945 164.61889648 C-28.10439811 164.6265248 -30.53960438 164.63495345 -32.97480774 164.64411926 C-39.56526082 164.6659924 -46.1556781 164.67487468 -52.74615884 164.67994571 C-56.86449613 164.68321344 -60.98282419 164.68974185 -65.10115623 164.6969471 C-76.51680987 164.71648737 -87.93245498 164.7329098 -99.34812641 164.73582363 C-100.0766983 164.7360112 -100.80527019 164.73619877 -101.55592002 164.73639202 C-103.03265552 164.73675826 -104.50939102 164.73712195 -105.98612652 164.73748314 C-106.71910565 164.73766595 -107.45208477 164.73784876 -108.20727539 164.73803711 C-108.94115347 164.73821766 -109.67503156 164.73839821 -110.43114837 164.73858423 C-122.34428476 164.7421322 -134.25724113 164.76920479 -146.170315 164.806535 C-158.41777628 164.84460495 -170.66514808 164.86398095 -182.91266984 164.86428314 C-189.78295313 164.86486757 -196.65302088 164.87335182 -203.52324867 164.90228081 C-209.97726529 164.9293346 -216.43096695 164.93071116 -222.88502312 164.91462517 C-225.25459346 164.91280488 -227.62418799 164.91955331 -229.99370575 164.93544388 C-233.22546621 164.95579855 -236.45571424 164.94541424 -239.68745422 164.92723083 C-241.09741644 164.94703079 -241.09741644 164.94703079 -242.53586274 164.96723074 C-246.85756814 164.91159032 -249.81244559 164.72513059 -253.25390911 161.96157932 C-257.69758153 157.24554884 -257.69758153 157.24554884 -257.8671875 154.2265625 C-257.32892932 149.13915459 -256.62444515 145.96554828 -252.75 142.3125 C-249.84135519 140.57259228 -247.72189614 140.06321684 -244.3485136 140.06754684 C-243.46850081 140.06378155 -242.58848802 140.06001625 -241.68180817 140.05613685 C-240.71928142 140.0621643 -239.75675466 140.06819175 -238.76506042 140.07440186 C-237.22610099 140.07206334 -237.22610099 140.07206334 -235.65605146 140.06967759 C-232.20707452 140.0667146 -228.75828489 140.07791041 -225.30932617 140.08886719 C-222.84049481 140.08939127 -220.37166309 140.08895615 -217.90283203 140.08763123 C-212.5788653 140.08629575 -207.25494677 140.09061743 -201.93099022 140.09923553 C-193.50428569 140.11229149 -185.07765792 140.10470857 -176.6509552 140.09381104 C-173.76547157 140.0903327 -170.8799878 140.08698764 -167.99450397 140.08368301 C-167.27332325 140.08285168 -166.55214252 140.08202034 -165.80910784 140.08116381 C-157.59905861 140.07197934 -149.38900871 140.06703028 -141.17895508 140.06396484 C-140.05331177 140.06353622 -140.05331177 140.06353622 -138.90492819 140.06309894 C-126.7679259 140.0590023 -114.63097295 140.07019923 -102.49398168 140.08534035 C-90.01725911 140.10034657 -77.54068479 140.09226175 -65.06398374 140.06472325 C-57.3785522 140.04861107 -49.69358945 140.0511468 -42.0081865 140.07819638 C-36.10301622 140.09719825 -30.19816805 140.08471044 -24.2930069 140.06096077 C-21.88207855 140.05620979 -19.47110417 140.06158405 -17.06022835 140.07819176 C4.27783111 140.21540672 19.92235411 135.9473847 36.25 121.3125 C50.40521487 103.78699587 53.80066338 86.48976249 52.25 64.3125 C50.32146442 52.94915265 43.73240235 42.49052482 34.8984375 35.1640625 C21.13357176 25.54083778 6.8067501 22.83144548 -9.75 24.3125 C-21.6142205 26.51642083 -30.78765067 33.61370491 -37.75 43.3125 C-40.91608242 48.82443623 -43.80968605 54.14040552 -43.9609375 60.5859375 C-43.98929688 61.4109375 -44.01765625 62.2359375 -44.046875 63.0859375 C-44.09871739 64.81228924 -44.14305965 66.53888345 -44.1796875 68.265625 C-44.35924622 73.06882082 -44.64417323 76.41127857 -47.75 80.3125 C-50.67895597 82.67193675 -52.49681503 83.28085188 -56.25 83.75 C-60.36647408 83.23544074 -61.88461399 82.25975418 -64.75 79.3125 C-69.53198675 71.46718431 -67.90400991 57.49727187 -66.28125 48.80029297 C-62.0789494 32.93453468 -50.37551422 18.20205213 -36.32861328 9.84838867 C-24.14722855 2.94777246 -13.91128025 -0.07488063 0 0 Z " fill="#807F7E" transform="translate(880.75,226.6875)"/>


<path d="M0 0 C3.43403788 2.00011167 6.21175747 4.42351494 8 8 C10.07330718 32.41640925 4.44865844 50.26332793 -10.23828125 69.59765625 C-20.2426712 83.24000618 -20.30937238 98.31023151 -18.6328125 114.55859375 C-16.8941583 123.33522487 -11.78447953 130.60629956 -7 138 C6.60416656 159.23281291 16.12864523 180.07285752 10.76489258 205.78149414 C7.41557224 220.21263396 0.1570305 232.19815652 -7.2578125 244.86328125 C-7.61456055 245.4766333 -7.97130859 246.08998535 -8.33886719 246.72192383 C-9.3113931 248.39084613 -10.2921329 250.0549743 -11.2734375 251.71875 C-16.65110943 261.93876 -16.19503167 270.13774749 -15.70703125 281.5546875 C-15.45435883 292.23284373 -15.45435883 292.23284373 -18.3828125 295.8359375 C-22.50213944 299.24206754 -25.2836655 299.40415083 -30.5234375 299.34375 C-33 299 -33 299 -35.9375 296.875 C-43.45156859 286.40084378 -43.19806521 273.45061134 -42 261 C-39.82498812 249.24670239 -34.21230264 239.05136607 -28 229 C-17.95933677 212.18942644 -10.87059392 195.59092143 -15.57861328 175.53515625 C-18.53363288 166.63293969 -23.79849445 158.73001519 -29 151 C-31.05669368 147.69900665 -33.03586518 144.35669601 -35 141 C-35.52851562 140.12601563 -36.05703125 139.25203125 -36.6015625 138.3515625 C-40.02117341 132.472527 -42.04507123 126.99354294 -43.45703125 120.3359375 C-43.77073238 118.05305015 -43.77073238 118.05305015 -45 117 C-47.51954153 102.91594409 -46.30308982 89.55174467 -42 76 C-41.71125 75.08863281 -41.4225 74.17726563 -41.125 73.23828125 C-38.1087562 64.87628392 -33.00085673 57.50745969 -28.1015625 50.1484375 C-20.33190087 38.37519476 -17.35500793 29.22673849 -17.53955078 15.09667969 C-17.51628512 6.96464826 -17.51628512 6.96464826 -14.59375 3.3671875 C-10.12820021 -0.7082992 -5.88860289 -0.95799659 0 0 Z " fill="#E05827" transform="translate(935,697)"/>
<path d="M0 0 C4.15068479 0.88811086 5.81913252 2.39249887 8.62890625 5.5625 C14.01948888 14.45335521 11.46021691 30.81386608 9.19140625 40.5625 C5.71133416 51.65677238 -1.21899458 61.06172881 -7.87890625 70.453125 C-17.27781079 83.73953456 -19.44465232 99.23100599 -16.78125 115.0703125 C-14.36363595 124.13915046 -9.43007313 131.77078634 -4.37109375 139.5625 C-3.96600586 140.18898438 -3.56091797 140.81546875 -3.14355469 141.4609375 C-2.33939546 142.70425666 -1.5348777 143.94734402 -0.72998047 145.19018555 C11.45679597 164.01898374 16.89691422 183.64913451 12.9453125 206.17578125 C9.61928325 221.59047157 1.44093327 235.71918484 -7.12109375 248.8125 C-11.91084042 256.33693311 -14.62951404 264.38209571 -14.29296875 273.30859375 C-14.2671875 274.39333984 -14.24140625 275.47808594 -14.21484375 276.59570312 C-14.1524379 278.86181558 -14.07435586 281.12755155 -13.98046875 283.39257812 C-13.80470741 292.64751124 -13.80470741 292.64751124 -16.76171875 296.28515625 C-20.83840472 299.84310224 -23.60464831 299.97094454 -28.89453125 299.90234375 C-31.37109375 299.5625 -31.37109375 299.5625 -34.30859375 297.5 C-41.76526095 286.87989823 -41.72147753 273.11206354 -39.7578125 260.6796875 C-36.72327948 248.08704387 -30.84472008 237.19414021 -23.72558594 226.48608398 C-13.61808747 211.21871678 -9.84366871 196.33085007 -13.49609375 177.9375 C-16.11598 167.96270373 -21.19418444 159.71607773 -26.80859375 151.1875 C-40.84996272 129.83059912 -47.25774629 108.17750222 -42.37109375 82.5625 C-38.95413371 70.61895914 -32.38611767 60.2646205 -25.25048828 50.23583984 C-19.49848072 42.0758263 -15.24640291 33.88594529 -15.265625 23.7265625 C-15.24338867 22.37691406 -15.24338867 22.37691406 -15.22070312 21 C-15.19606867 19.13296775 -15.1906954 17.26557687 -15.20507812 15.3984375 C-15.06778697 9.57396437 -14.20845932 5.99462786 -10.0222168 1.80029297 C-6.74090948 -0.65959585 -3.90775638 -0.25520042 0 0 Z " fill="#E15827" transform="translate(1032.37109375,696.4375)"/>
<path d="M0 0 C4.13702242 1.80524615 5.59463173 3.31087394 7.875 7.1875 C12.46761568 21.84013099 8.22472059 38.49903915 1.54589844 51.69628906 C-1.79500786 57.97359731 -5.80694762 63.76208627 -9.83300781 69.61303711 C-18.64853449 82.61892294 -20.61887949 96.76186514 -18.57421875 112.21875 C-15.94196973 124.23343263 -9.57055742 134.38846809 -2.70849609 144.38061523 C9.9384381 163.00226921 15.16788082 183.43523595 11.26953125 205.82421875 C8.29282796 219.77016799 1.29076735 231.79930799 -6.3515625 243.69140625 C-14.96952108 257.10249909 -16.55037489 267.13560356 -15.765625 282.88745117 C-15.44846051 292.11598094 -15.44846051 292.11598094 -18.31640625 295.72265625 C-22.30563311 299.10798268 -25.73045833 299.4093447 -30.78125 299.34375 C-34.44338444 298.77637706 -35.85841658 296.8974364 -38 294 C-44.60947706 282.66946789 -43.35317332 266.40659734 -40.11962891 254.07226562 C-36.45485484 241.95101785 -29.3289166 230.78939564 -22.4609375 220.26171875 C-14.09863397 207.31579966 -11.8714773 192.00071276 -15.0625 176.9375 C-18.05885393 166.45026126 -24.18255429 157.63360356 -30.28930664 148.74926758 C-34.7024941 142.19845566 -37.9192707 135.26421965 -41 128 C-41.350625 127.21882812 -41.70125 126.43765625 -42.0625 125.6328125 C-48.16251068 108.50194918 -47.53672282 86.38965167 -39.92822266 69.86962891 C-37.3329613 64.64224556 -34.28686763 59.81397855 -31 55 C-21.67481436 41.0724718 -16.84179639 30.19526826 -16.65820312 13.3046875 C-16.5217076 9.05110603 -16.38312009 6.61174368 -14.08203125 2.9375 C-9.90426868 -0.95024903 -5.46769495 -0.57952527 0 0 Z " fill="#E05827" transform="translate(836,697)"/>




<path d="M0 0 C1.14799824 -0.01103006 1.14799824 -0.01103006 2.31918836 -0.02228296 C4.89163188 -0.0443635 7.46391386 -0.0520452 10.03643799 -0.05966187 C11.87772129 -0.07219065 13.71899953 -0.08548421 15.56027222 -0.0994873 C20.56865169 -0.13431023 25.57699299 -0.15541135 30.58546352 -0.17189837 C33.71411998 -0.18219778 36.84276457 -0.19434924 39.97141266 -0.20692062 C49.75898729 -0.24502512 59.54653173 -0.27348754 69.33416629 -0.29014456 C80.63490064 -0.30969385 91.93485194 -0.36234252 103.23531032 -0.44314635 C111.96832343 -0.50345025 120.70111197 -0.53308042 129.43432927 -0.53970659 C134.65120115 -0.54440974 139.86723654 -0.56235468 145.08388519 -0.61262894 C149.99259432 -0.65917111 154.89991577 -0.66766747 159.8087883 -0.64710617 C161.60873657 -0.64611468 163.40875289 -0.65877953 165.20849228 -0.68621826 C178.76115546 -0.88125387 178.76115546 -0.88125387 183.18662262 2.02849197 C185.97190933 5.07791738 187.34740436 7.37739233 188.2366333 11.41934204 C187.36651556 15.05801623 185.83801105 17.35149922 183.5491333 20.29434204 C183.16296782 20.83921516 182.77680233 21.38408829 182.37893486 21.94547272 C179.52345039 24.05044164 176.49724705 23.71402576 173.08480835 23.68875122 C172.31806506 23.69484232 171.55132177 23.70093343 170.76134384 23.70720911 C168.18411011 23.72389951 165.6073672 23.7190548 163.03009033 23.71426392 C161.18556197 23.7216008 159.34103821 23.73018592 157.496521 23.7399292 C152.47995352 23.76219525 147.46355005 23.7650733 142.44693995 23.76318169 C138.26195302 23.76306221 134.07700113 23.7716172 129.89202392 23.7799592 C120.01972814 23.79921202 110.14751693 23.80207043 100.27520752 23.7953186 C90.08507938 23.7886777 79.8953132 23.8115399 69.70525849 23.84863234 C60.96207116 23.87930528 52.21900041 23.89069193 43.47576034 23.88679552 C38.25136987 23.88472534 33.02726092 23.8902485 27.8029213 23.91468811 C22.88950625 23.93691263 17.97668041 23.93511323 13.06326294 23.91476059 C11.25929179 23.9113428 9.45528131 23.91647266 7.65136337 23.93074417 C5.18935986 23.94887882 2.72936745 23.93623278 0.26742554 23.915802 C-0.44746218 23.92831985 -1.16234989 23.9408377 -1.89890087 23.95373487 C-5.77004123 23.88480386 -7.30869922 23.41444092 -10.30825996 20.88050079 C-11.01532019 20.02706841 -11.72238041 19.17363602 -12.4508667 18.29434204 C-13.1108667 17.63434204 -13.7708667 16.97434204 -14.4508667 16.29434204 C-14.93392043 11.4638047 -14.95512844 9.23331218 -12.6383667 4.91934204 C-8.74597339 0.24847007 -5.7219377 -0.00293853 0 0 Z " fill="#7D7D7C" transform="translate(707.4508666992188,474.7056579589844)"/>











<path d="M0 0 C250.8 0 501.6 0 760 0 C760 0.33 760 0.66 760 1 C739.21 1 718.42 1 697 1 C697 8.59 697 16.18 697 24 C704.92 24 712.84 24 721 24 C721 31.59 721 39.18 721 47 C713.08 47.33 705.16 47.66 697 48 C697 55.26 697 62.52 697 70 C689.08 70 681.16 70 673 70 C672.938125 64.864375 672.938125 64.864375 672.875 59.625 C672.85679199 58.54686035 672.83858398 57.4687207 672.81982422 56.35791016 C672.81233154 55.08633057 672.81233154 55.08633057 672.8046875 53.7890625 C672.78897705 52.48509521 672.78897705 52.48509521 672.77294922 51.15478516 C673 49 673 49 675 47 C677.15478516 46.77294922 677.15478516 46.77294922 679.7890625 46.8046875 C680.63678223 46.80968262 681.48450195 46.81467773 682.35791016 46.81982422 C683.4360498 46.83803223 684.51418945 46.85624023 685.625 46.875 C689.04875 46.91625 692.4725 46.9575 696 47 C696 39.41 696 31.82 696 24 C688.41 24 680.82 24 673 24 C673 16.41 673 8.82 673 1 C450.91 1 228.82 1 0 1 C0 0.67 0 0.34 0 0 Z " fill="#F2E7E3" transform="translate(248,1184)"/>
<path d="M0 0 C7.59 0 15.18 0 23 0 C23.185625 3.774375 23.37125 7.54875 23.5625 11.4375 C23.62381104 12.62915771 23.68512207 13.82081543 23.74829102 15.04858398 C23.79139404 15.98001221 23.83449707 16.91144043 23.87890625 17.87109375 C23.9260376 18.82943115 23.97316895 19.78776855 24.02172852 20.77514648 C24 23 24 23 23 24 C21.29227642 24.08713831 19.58101351 24.10700007 17.87109375 24.09765625 C16.93966553 24.09515869 16.0082373 24.09266113 15.04858398 24.09008789 C13.26109741 24.07643188 13.26109741 24.07643188 11.4375 24.0625 C7.663125 24.041875 3.88875 24.02125 0 24 C0 31.59 0 39.18 0 47 C5.69865768 46.96062922 5.69865768 46.96062922 11.3972168 46.90991211 C12.11562744 46.90741455 12.83403809 46.90491699 13.57421875 46.90234375 C14.30213623 46.89710693 15.03005371 46.89187012 15.7800293 46.88647461 C18.26139762 47.01336741 20.57735741 47.46184188 23 48 C23.19588601 51.6454342 23.38030536 55.2913579 23.5625 58.9375 C23.64661133 60.49887695 23.64661133 60.49887695 23.73242188 62.09179688 C23.78076172 63.08115234 23.82910156 64.07050781 23.87890625 65.08984375 C23.9260376 66.00628662 23.97316895 66.92272949 24.02172852 67.86694336 C24 70 24 70 23 71 C21.29227642 71.08713831 19.58101351 71.10700007 17.87109375 71.09765625 C16.83662109 71.09443359 15.80214844 71.09121094 14.73632812 71.08789062 C13.64771484 71.07951172 12.55910156 71.07113281 11.4375 71.0625 C9.7987793 71.05573242 9.7987793 71.05573242 8.12695312 71.04882812 C5.41791505 71.03699826 2.70898401 71.02051543 0 71 C-0.67526622 63.30678839 -1.11527631 55.72351299 -1 48 C-6.61 48 -12.22 48 -18 48 C-18.33 299.46 -18.66 550.92 -19 810 C-19.33 810 -19.66 810 -20 810 C-20.00055616 809.33192373 -20.00111233 808.66384746 -20.00168534 807.97552645 C-20.06229171 735.25849976 -20.12535793 662.54147535 -20.20132446 589.82446289 C-20.20245809 588.7386597 -20.20359171 587.65285651 -20.20475969 586.5341502 C-20.22940974 562.93809706 -20.25450255 539.34204442 -20.28005161 515.74599224 C-20.29257773 504.17489987 -20.30500599 492.60380738 -20.31738281 481.03271484 C-20.3192328 479.30549838 -20.3192328 479.30549838 -20.32112016 477.54338865 C-20.3610673 440.20441565 -20.39454916 402.86544024 -20.42468691 365.52645814 C-20.45568518 327.16355883 -20.49318876 288.80067126 -20.53890612 250.43778652 C-20.54535675 245.02230616 -20.55173282 239.60682572 -20.55806351 234.19134521 C-20.55931181 233.12547558 -20.56056012 232.05960594 -20.56184625 230.96143723 C-20.58176821 213.78714183 -20.5948096 196.61284774 -20.60529328 179.43854428 C-20.615973 162.18271863 -20.63386496 144.9269125 -20.65916704 127.67110199 C-20.67398855 117.41257481 -20.68323207 107.15407751 -20.68456683 96.89553952 C-20.68600214 90.04727039 -20.69462956 83.19903496 -20.70915592 76.35078114 C-20.71723144 72.44591319 -20.72213158 68.54111143 -20.71827881 64.63623548 C-20.71420399 60.43254905 -20.72547344 56.22904416 -20.73828697 52.02537537 C-20.73463729 50.80944114 -20.73098761 49.59350691 -20.72722733 48.3407262 C-20.75992808 42.1451129 -21.38217686 36.95952337 -23 31 C-23 28.69 -23 26.38 -23 24 C-15.74 23.67 -8.48 23.34 -1 23 C-0.67 15.41 -0.34 7.82 0 0 Z " fill="#EDD7CF" transform="translate(1206,191)"/>





































































<path d="M0 0 C7.92 0 15.84 0 24 0 C24 7.92 24 15.84 24 24 C16.08 24 8.16 24 0 24 C0 16.08 0 8.16 0 0 Z " fill="#E5E5E5" transform="translate(0,25)"/>













<path d="M0 0 C7.59 0 15.18 0 23 0 C23 8.25 23 16.5 23 25 C15.41 25 7.82 25 0 25 C0 16.75 0 8.5 0 0 Z " fill="#E7E6E6" transform="translate(24,0)"/>




























































































<path d="M0 0 C0.33 0.99 0.66 1.98 1 3 C1.66 3 2.32 3 3 3 C3 10.59 3 18.18 3 26 C0.03 26.33 -2.94 26.66 -6 27 C-7.98 27.99 -7.98 27.99 -10 29 C-8.88256053 24.53024214 -7.37803085 20.42556148 -5.5625 16.1875 C-3.30108038 10.88186165 -1.51345952 5.56165613 0 0 Z " fill="#EFEAE8" transform="translate(1179,1041)"/>


<path d="M0 0 C0.33 0 0.66 0 1 0 C2.14038371 10.72577108 1.69990508 20.37830008 0 31 C-0.19207031 32.21300781 -0.38414062 33.42601562 -0.58203125 34.67578125 C-1.03586547 37.4542915 -1.50655267 40.22829584 -2 43 C-2.66 43 -3.32 43 -4 43 C-3.47175743 36.56378133 -2.78745429 30.15859941 -2 23.75 C-1.035648 15.84480456 -0.4398093 7.95128919 0 0 Z " fill="#F7DED6" transform="translate(622,609)"/>
<path d="M0 0 C0.33 0 0.66 0 1 0 C2.0162256 5.60805977 1.96017114 10.76497252 1.5625 16.4375 C1.51029297 17.26443359 1.45808594 18.09136719 1.40429688 18.94335938 C1.27590237 20.96265478 1.13884576 22.98139629 1 25 C0.34 25 -0.32 25 -1 25 C-1 31.93 -1 38.86 -1 46 C-1.33 46 -1.66 46 -2 46 C-2.05016131 41.53834423 -2.08607179 37.07684626 -2.10986328 32.61499023 C-2.11980161 31.10324233 -2.13335698 29.59151301 -2.15087891 28.07983398 C-2.25914856 18.48523174 -1.8319455 9.45403666 0 0 Z " fill="#CF6848" transform="translate(352,373)"/>
<path d="M0 0 C0.66 0.33 1.32 0.66 2 1 C-5.1624816 8.85165509 -12.40787209 16.55904278 -20 24 C-20.99 23.67 -21.98 23.34 -23 23 C-8.29668153 6.92986799 -8.29668153 6.92986799 -1 1 C-0.67 0.67 -0.34 0.34 0 0 Z " fill="#D65E36" transform="translate(135,108)"/>



<path d="M0 0 C0.66 0.99 1.32 1.98 2 3 C0.56524299 5.41833257 -0.87268453 7.83468164 -2.3125 10.25 C-2.71662109 10.93191406 -3.12074219 11.61382813 -3.53710938 12.31640625 C-7.87615477 19.58342537 -7.87615477 19.58342537 -10 22 C-10.66 22 -11.32 22 -12 22 C-12 22.66 -12 23.32 -12 24 C-12.66 23.67 -13.32 23.34 -14 23 C-13.41714233 22.06148193 -13.41714233 22.06148193 -12.82250977 21.10400391 C-11.06827838 18.27822361 -9.3153733 15.45162292 -7.5625 12.625 C-6.95083984 11.64015625 -6.33917969 10.6553125 -5.70898438 9.640625 C-5.12568359 8.69960938 -4.54238281 7.75859375 -3.94140625 6.7890625 C-3.40201416 5.91975098 -2.86262207 5.05043945 -2.30688477 4.15478516 C-0.99457642 2.05702771 -0.99457642 2.05702771 0 0 Z " fill="#F7DCD2" transform="translate(682,912)"/>
<path d="M0 0 C0.33 0 0.66 0 1 0 C2.38902686 9.89681637 2.90654416 20.14952185 1 30 C0.67 30 0.34 30 0 30 C-1.28736468 19.89913869 -0.73019395 10.11037781 0 0 Z " fill="#97928E" transform="translate(956,287)"/>
<path d="M0 0 C0.33 0 0.66 0 1 0 C2.15598113 5.64652323 1.71902274 9.8355601 0.25 15.375 C0.07984375 16.09816406 -0.0903125 16.82132813 -0.265625 17.56640625 C-0.796875 19.6484375 -0.796875 19.6484375 -2 23 C-2.99 23.33 -3.98 23.66 -5 24 C-4.39496146 18.3444819 -3.37814297 12.99786009 -1.9375 7.5 C-1.75123047 6.77296875 -1.56496094 6.0459375 -1.37304688 5.296875 C-0.91973545 3.53012276 -0.4604998 1.76489225 0 0 Z " fill="#F6D9CE" transform="translate(711,834)"/>

<path d="M0 0 C1.32 0.33 2.64 0.66 4 1 C0.04 4.96 -3.92 8.92 -8 13 C-8.33 11.68 -8.66 10.36 -9 9 C-7.26953125 6.60546875 -7.26953125 6.60546875 -4.8125 4.1875 C-4.01457031 3.37667969 -3.21664062 2.56585938 -2.39453125 1.73046875 C-1.60433594 1.15941406 -0.81414062 0.58835938 0 0 Z " fill="#FAE4DB" transform="translate(146,135)"/>
<path d="M0 0 C0.33 0 0.66 0 1 0 C1.3389231 3.35362609 1.67011964 6.70797332 2 10.0625 C2.09539063 11.00544922 2.19078125 11.94839844 2.2890625 12.91992188 C2.78225278 17.97512222 3.11270932 22.92103608 3 28 C1 27 1 27 0 24 C-0.08239169 22.15389468 -0.10743359 20.30494836 -0.09765625 18.45703125 C-0.09443359 17.38388672 -0.09121094 16.31074219 -0.08789062 15.20507812 C-0.07951172 14.08552734 -0.07113281 12.96597656 -0.0625 11.8125 C-0.05798828 10.68134766 -0.05347656 9.55019531 -0.04882812 8.38476562 C-0.03703498 5.58979073 -0.0205765 2.7949218 0 0 Z " fill="#E06638" transform="translate(989,786)"/>
<path d="M0 0 C0.33 0 0.66 0 1 0 C2.88331101 11.66705248 4.48087749 23.18548771 5 35 C4.34 35 3.68 35 3 35 C2.86722656 33.73542969 2.73445313 32.47085938 2.59765625 31.16796875 C2.41944537 29.50779375 2.24105037 27.84763852 2.0625 26.1875 C1.93198242 24.93743164 1.93198242 24.93743164 1.79882812 23.66210938 C1.66831055 22.45844727 1.66831055 22.45844727 1.53515625 21.23046875 C1.456604 20.49207764 1.37805176 19.75368652 1.29711914 18.99291992 C1.02848004 16.79730622 1.02848004 16.79730622 0 14 C-0.06970052 11.60509014 -0.08448003 9.20832309 -0.0625 6.8125 C-0.05347656 5.54019531 -0.04445313 4.26789062 -0.03515625 2.95703125 C-0.02355469 1.98121094 -0.01195312 1.00539063 0 0 Z " fill="#D56C49" transform="translate(330,577)"/>
<path d="M0 0 C0.66 0 1.32 0 2 0 C2 4.62 2 9.24 2 14 C1.67 14 1.34 14 1 14 C0.67 16.64 0.34 19.28 0 22 C-0.33 22 -0.66 22 -1 22 C-1.02700675 19.08327116 -1.04684237 16.16679323 -1.0625 13.25 C-1.07087891 12.425 -1.07925781 11.6 -1.08789062 10.75 C-1.09111328 9.95078125 -1.09433594 9.1515625 -1.09765625 8.328125 C-1.10289307 7.5949707 -1.10812988 6.86181641 -1.11352539 6.10644531 C-0.9975109 3.9538151 -0.59073271 2.0685865 0 0 Z " fill="#E57247" transform="translate(890,785)"/>



<path d="M0 0 C1 3 1 3 0.109375 5.375 C-0.33921875 6.24125 -0.7878125 7.1075 -1.25 8 C-1.68828125 8.86625 -2.1265625 9.7325 -2.578125 10.625 C-3.87579238 12.79253233 -5.12777789 14.32601317 -7 16 C-7.66 15.67 -8.32 15.34 -9 15 C-7.68944504 12.68637791 -6.3766597 10.37407322 -5.0625 8.0625 C-4.50272461 7.0734668 -4.50272461 7.0734668 -3.93164062 6.06445312 C-1.11328125 1.11328125 -1.11328125 1.11328125 0 0 Z " fill="#FBE5DC" transform="translate(1039,743)"/>
<path d="M0 0 C0.33 0 0.66 0 1 0 C0.67 5.94 0.34 11.88 0 18 C-0.66 18 -1.32 18 -2 18 C-2.05397335 15.5622037 -2.09365616 13.12560315 -2.125 10.6875 C-2.14175781 9.99720703 -2.15851562 9.30691406 -2.17578125 8.59570312 C-2.21217794 4.82864604 -2.14378864 3.21568296 0 0 Z " fill="#FCE1D6" transform="translate(1019,961)"/>
<path d="M0 0 C2.31377205 3.47065807 2.88984473 6.67040155 3.625 10.6875 C3.82609375 11.7403418 3.82609375 11.7403418 4.03125 12.81445312 C4.3602717 14.54181706 4.68095312 16.27076591 5 18 C4.01 17.67 3.02 17.34 2 17 C1.015625 14.19921875 1.015625 14.19921875 0.25 10.6875 C-0.01296875 9.53636719 -0.2759375 8.38523437 -0.546875 7.19921875 C-0.9567833 4.30512484 -0.98622355 2.69878742 0 0 Z " fill="#F7E5DB" transform="translate(178,837)"/>
<path d="M0 0 C0.99 0 1.98 0 3 0 C2.979375 1.093125 2.95875 2.18625 2.9375 3.3125 C2.81455548 6.94384191 2.81455548 6.94384191 4 10 C4 11.66666667 4 13.33333333 4 15 C4.33 15.66 4.66 16.32 5 17 C4.71758117 19.3400417 4.38749213 21.67504723 4 24 C3.67 24 3.34 24 3 24 C2.49515526 20.75073335 1.99697406 17.50047901 1.5 14.25 C1.35691406 13.32960938 1.21382812 12.40921875 1.06640625 11.4609375 C0.93105469 10.57148437 0.79570313 9.68203125 0.65625 8.765625 C0.53056641 7.94868164 0.40488281 7.13173828 0.27539062 6.29003906 C0 4 0 4 0 0 Z " fill="#F4D5CC" transform="translate(714,699)"/>
<path d="M0 0 C0.33 0 0.66 0 1 0 C1.29883729 7.47093223 0.15925507 14.63044989 -1 22 C-1.33 22 -1.66 22 -2 22 C-2.71033431 16.47032059 -3.30267176 11.50016964 -2 6 C-1.34 6 -0.68 6 0 6 C0 4.02 0 2.04 0 0 Z " fill="#F1D4C8" transform="translate(261,492)"/>

<path d="M0 0 C0.33 0 0.66 0 1 0 C1.20506783 4.81909402 0.64991059 8.83786715 -0.48828125 13.51171875 C-1.4029396 17.95933228 -1.67871905 22.47670243 -2 27 C-2.33 27 -2.66 27 -3 27 C-3.29288258 17.82301254 -2.92628865 8.77886596 0 0 Z " fill="#DD4B19" transform="translate(798,949)"/>
<path d="M0 0 C1.62477811 2.96162086 2.51695886 5.69266927 3.1875 9 C3.36667969 9.845625 3.54585938 10.69125 3.73046875 11.5625 C4.00334098 14.03021411 3.76424119 15.65849506 3 18 C2.34 17.67 1.68 17.34 1 17 C0.33203125 14.453125 0.33203125 14.453125 -0.1875 11.25 C-0.36667969 10.20328125 -0.54585938 9.1565625 -0.73046875 8.078125 C-0.99127722 5.0996167 -0.75080595 2.87542705 0 0 Z " fill="#F5DACD" transform="translate(353,448)"/>
<path d="M0 0 C2.52630224 3.78945336 2.07534021 5.50687604 1.484375 9.84765625 C0.88572811 12.50777267 -0.11826481 14.04299541 -2 16 C-2.66 16.99 -3.32 17.98 -4 19 C-3.26309887 12.51527007 -1.64681249 6.30760257 0 0 Z " fill="#E07C59" transform="translate(1156,1020)"/>
<path d="M0 0 C0.66 0 1.32 0 2 0 C-1.01834862 10.01834862 -1.01834862 10.01834862 -4 13 C-4.66 13 -5.32 13 -6 13 C-4.58707905 8.1725201 -2.57025846 4.2837641 0 0 Z " fill="#C44825" transform="translate(216,612)"/>
<path d="M0 0 C0.33 0 0.66 0 1 0 C1.53132389 2.58157368 2.05034379 5.16461756 2.5625 7.75 C2.78969727 8.84441406 2.78969727 8.84441406 3.02148438 9.9609375 C3.74557178 13.66557073 4.09817231 16.39322322 3 20 C3 19.34 3 18.68 3 18 C2.34 18 1.68 18 1 18 C1 14.7 1 11.4 1 8 C0.34 8 -0.32 8 -1 8 C-0.67 5.36 -0.34 2.72 0 0 Z " fill="#F0CDBF" transform="translate(357,467)"/>
<path d="M0 0 C0.99 0 1.98 0 3 0 C1.61811547 3.21043882 0.07578097 5.04936365 -2.625 7.25 C-3.57246094 8.03117187 -3.57246094 8.03117187 -4.5390625 8.828125 C-5.02117187 9.21484375 -5.50328125 9.6015625 -6 10 C-7.32 9.34 -8.64 8.68 -10 8 C-9.0925 7.608125 -8.185 7.21625 -7.25 6.8125 C-3.84023835 4.91090216 -2.37026716 3.02413396 0 0 Z " fill="#FAE3D8" transform="translate(384,1033)"/>
<path d="M0 0 C0.66 0.99 1.32 1.98 2 3 C-0.31 7.29 -2.62 11.58 -5 16 C-5.66 15.67 -6.32 15.34 -7 15 C-5.63408831 11.45756548 -4.09068516 8.07372071 -2.375 4.6875 C-1.70597656 3.36298828 -1.70597656 3.36298828 -1.0234375 2.01171875 C-0.68570313 1.34785156 -0.34796875 0.68398438 0 0 Z " fill="#C64C2A" transform="translate(235,577)"/>
<path d="M0 0 C0.66 0.33 1.32 0.66 2 1 C0.87895467 2.31587941 -0.24696965 3.62760353 -1.375 4.9375 C-2.00148438 5.66839844 -2.62796875 6.39929688 -3.2734375 7.15234375 C-5 9 -5 9 -7 10 C-7.66 9.34 -8.32 8.68 -9 8 C-6.03 5.36 -3.06 2.72 0 0 Z " fill="#EDE3DD" transform="translate(971,429)"/>
<path d="M0 0 C-1.73522813 0.73413498 -3.47060953 1.4679114 -5.20703125 2.19921875 C-7.06678197 2.98342798 -7.06678197 2.98342798 -8.9375 4.1875 C-12.2589846 5.49596363 -15.45345504 5.11821817 -19 5 C-16.01243632 3.00829088 -13.44575614 1.97092021 -10.0625 0.8125 C-9.02222656 0.44769531 -7.98195312 0.08289063 -6.91015625 -0.29296875 C-4.04543948 -0.98896034 -2.71018643 -1.02529944 0 0 Z " fill="#F3C7B5" transform="translate(221,96)"/>
<path d="M0 0 C0.97226335 2.59072612 1.11611108 3.69699083 0.109375 6.32421875 C-0.33921875 7.10410156 -0.7878125 7.88398437 -1.25 8.6875 C-1.68828125 9.47511719 -2.1265625 10.26273438 -2.578125 11.07421875 C-4 13 -4 13 -7 14 C-5.53967505 8.68972746 -3.01679014 4.53669968 0 0 Z " fill="#E3673B" transform="translate(906,928)"/>
<path d="M0 0 C0.33 0 0.66 0 1 0 C1.06058594 1.21816406 1.12117187 2.43632813 1.18359375 3.69140625 C1.26806403 5.31511277 1.35270872 6.93881022 1.4375 8.5625 C1.47681641 9.36236328 1.51613281 10.16222656 1.55664062 10.98632812 C1.80748156 15.71371506 2.25321814 20.32476901 3 25 C2.67 24.01 2.34 23.02 2 22 C1.34 22 0.68 22 0 22 C-0.85305168 19.09330538 -1.07289715 16.68951127 -0.87890625 13.671875 C-0.83056641 12.87265625 -0.78222656 12.0734375 -0.73242188 11.25 C-0.67634766 10.425 -0.62027344 9.6 -0.5625 8.75 C-0.51029297 7.90953125 -0.45808594 7.0690625 -0.40429688 6.203125 C-0.27504311 4.1350648 -0.13825726 2.0674778 0 0 Z " fill="#F4C7B4" transform="translate(790,793)"/>
<path d="M0 0 C2.07365549 3.41543258 2.07365549 3.41543258 1.75390625 5.953125 C0.90190428 8.26633242 -0.03983718 10.50673961 -1.0625 12.75 C-1.60583984 13.94882812 -1.60583984 13.94882812 -2.16015625 15.171875 C-2.57587891 16.07679688 -2.57587891 16.07679688 -3 17 C-3.66 17 -4.32 17 -5 17 C-4.5978125 15.8553125 -4.5978125 15.8553125 -4.1875 14.6875 C-2.6249129 9.83525585 -1.31433115 4.92436072 0 0 Z " fill="#E2673A" transform="translate(819,723)"/>
<path d="M0 0 C0.99 0 1.98 0 3 0 C1.50829734 4.9723422 -0.60457417 9.41845739 -3 14 C-3.66 13.67 -4.32 13.34 -5 13 C-3.80100302 9.9168649 -2.52299523 6.93720508 -1 4 C-0.34 4 0.32 4 1 4 C0.67 2.68 0.34 1.36 0 0 Z " fill="#F9E3D7" transform="translate(817,905)"/>
<path d="M0 0 C0.33 0.99 0.66 1.98 1 3 C-0.94830271 6.3399475 -2.98447394 9.53275141 -6 12 C-6.66 12 -7.32 12 -8 12 C-6.59023295 8.96147295 -4.91129772 6.4060405 -2.875 3.75 C-2.06675781 2.69039062 -2.06675781 2.69039062 -1.2421875 1.609375 C-0.83226562 1.07828125 -0.42234375 0.5471875 0 0 Z " fill="#FAE3D9" transform="translate(130,152)"/>
<path d="M0 0 C0.33 1.32 0.66 2.64 1 4 C0.34 4 -0.32 4 -1 4 C-0.938125 5.546875 -0.938125 5.546875 -0.875 7.125 C-0.99575149 10.86829627 -1.64872018 13.53734547 -3 17 C-3.66 16.67 -4.32 16.34 -5 16 C-4.02541328 10.19834261 -2.98746845 5.16017278 0 0 Z " fill="#C95735" transform="translate(662,598)"/>
<path d="M0 0 C0.33 0 0.66 0 1 0 C1.28838914 5.57552338 1.178344 9.17362578 -2 14 C-2.99 14.33 -3.98 14.66 -5 15 C-5 14.34 -5 13.68 -5 13 C-4.34 13 -3.68 13 -3 13 C-2.86722656 12.31292969 -2.73445313 11.62585937 -2.59765625 10.91796875 C-2.42105469 10.01691406 -2.24445313 9.11585937 -2.0625 8.1875 C-1.88847656 7.29417969 -1.71445313 6.40085937 -1.53515625 5.48046875 C-1 3 -1 3 0 0 Z " fill="#DB623B" transform="translate(1151,1039)"/>
<path d="M0 0 C0.33 0 0.66 0 1 0 C1.33 7.26 1.66 14.52 2 22 C1.01 22 0.02 22 -1 22 C-0.67 14.74 -0.34 7.48 0 0 Z " fill="#F7C6B1" transform="translate(943,710)"/>
<path d="M0 0 C0.33 0 0.66 0 1 0 C1.05411124 2.41696872 1.09372278 4.83271787 1.125 7.25 C1.14175781 7.93191406 1.15851563 8.61382813 1.17578125 9.31640625 C1.21213482 13.0608235 1.07944349 15.82352727 -1 19 C-1.33 18.67 -1.66 18.34 -2 18 C-1.79390409 11.97637873 -1.15045947 5.9166487 0 0 Z " fill="#CA5C3C" transform="translate(364,540)"/>
<path d="M0 0 C3.62613199 0.56959153 5.25517741 1.92374534 7.75 4.5625 C8.36359375 5.20316406 8.9771875 5.84382813 9.609375 6.50390625 C10.06828125 6.99761719 10.5271875 7.49132812 11 8 C10.34 8.66 9.68 9.32 9 10 C7.49702124 8.52386015 5.99768715 7.04400843 4.5 5.5625 C3.6646875 4.73878906 2.829375 3.91507812 1.96875 3.06640625 C0 1 0 1 0 0 Z " fill="#F7DACC" transform="translate(536,413)"/>
<path d="M0 0 C1.56073255 2.34109882 2.86373867 4.56333403 4.125 7.0625 C4.47820313 7.75472656 4.83140625 8.44695313 5.1953125 9.16015625 C6 11 6 11 6 13 C3 12 3 12 1.796875 9.78515625 C1.27867187 8.43744141 1.27867187 8.43744141 0.75 7.0625 C0.39421875 6.16660156 0.0384375 5.27070312 -0.328125 4.34765625 C-1 2 -1 2 0 0 Z " fill="#FAE4D7" transform="translate(992,822)"/>
<path d="M0 0 C3.21043882 1.38188453 5.04936365 2.92421903 7.25 5.625 C8.03117188 6.57246094 8.03117188 6.57246094 8.828125 7.5390625 C9.40820312 8.26222656 9.40820312 8.26222656 10 9 C7 9 7 9 5.17578125 7.5390625 C4.56089844 6.90742188 3.94601562 6.27578125 3.3125 5.625 C2.68988281 4.99851563 2.06726563 4.37203125 1.42578125 3.7265625 C0 2 0 2 0 0 Z " fill="#E9E2DC" transform="translate(931,243)"/>

<path d="M0 0 C1.14864928 3.95935925 0.88397934 6.94842803 0 11 C-1.5625 12.9375 -1.5625 12.9375 -3 14 C-4 12 -4 12 -3.22265625 9.1796875 C-2.83980469 8.08914063 -2.45695313 6.99859375 -2.0625 5.875 C-1.68222656 4.77929688 -1.30195312 3.68359375 -0.91015625 2.5546875 C-0.60980469 1.71164062 -0.30945313 0.86859375 0 0 Z " fill="#F4D2C7" transform="translate(702,866)"/>
<path d="M0 0 C0.66 0.33 1.32 0.66 2 1 C0.02 5.455 0.02 5.455 -2 10 C-2.66 9.67 -3.32 9.34 -4 9 C-3.46930939 5.17902761 -2.50298434 2.93828597 0 0 Z " fill="#E26133" transform="translate(824,698)"/>
<path d="M0 0 C0.33 0 0.66 0 1 0 C0.03644647 10.55808656 0.03644647 10.55808656 -1 15 C-1.33 15 -1.66 15 -2 15 C-2.05429959 13.25034642 -2.09292823 11.50020213 -2.125 9.75 C-2.15980469 8.28820312 -2.15980469 8.28820312 -2.1953125 6.796875 C-1.99862781 3.9803502 -1.44568916 2.39050964 0 0 Z " fill="#BF3913" transform="translate(262,503)"/>
<path d="M0 0 C3 1 3 1 4.38671875 3.28515625 C4.81597656 4.20167969 5.24523437 5.11820312 5.6875 6.0625 C6.34298828 7.44115234 6.34298828 7.44115234 7.01171875 8.84765625 C7.33785156 9.55792969 7.66398438 10.26820313 8 11 C7.34 11.66 6.68 12.32 6 13 C4.02 8.71 2.04 4.42 0 0 Z " fill="#FBE7DF" transform="translate(595,487)"/>
<path d="M0 0 C7.37297297 2.34594595 7.37297297 2.34594595 10 4 C10.33 4.99 10.66 5.98 11 7 C3.62702703 4.65405405 3.62702703 4.65405405 1 3 C0.67 2.01 0.34 1.02 0 0 Z " fill="#DC623A" transform="translate(1059,103)"/>
<path d="M0 0 C0.66 0 1.32 0 2 0 C0.66749209 3.5875213 -0.830717 6.8364623 -3 10 C-3.66 10 -4.32 10 -5 10 C-3.66749209 6.4124787 -2.169283 3.1635377 0 0 Z " fill="#FBE3D8" transform="translate(929,938)"/>
<path d="M0 0 C0.33 0.66 0.66 1.32 1 2 C-0.2739589 4.03833424 -1.61061923 6.03852126 -3 8 C-3.66 8 -4.32 8 -5 8 C-5 8.66 -5 9.32 -5 10 C-5.66 9.67 -6.32 9.34 -7 9 C-6.21448343 7.68381002 -5.4213763 6.37214772 -4.625 5.0625 C-4.18414063 4.33160156 -3.74328125 3.60070312 -3.2890625 2.84765625 C-2 1 -2 1 0 0 Z " fill="#F9E4DC" transform="translate(675,926)"/>
<path d="M0 0 C2.97069541 2.54631035 4.4775751 5.42230149 6 9 C5.67 9.66 5.34 10.32 5 11 C1.63408573 8.27521226 0.55773724 4.93143208 -1 1 C-0.67 0.67 -0.34 0.34 0 0 Z " fill="#FADED1" transform="translate(894,827)"/>
<path d="M0 0 C1.98362069 2.91708924 1.9876191 4.12380904 1.625 7.75 C1.41875 8.8225 1.2125 9.895 1 11 C0.01 10.34 -0.98 9.68 -2 9 C-1.51421457 5.87709365 -1.0013988 3.00419641 0 0 Z " fill="#E36234" transform="translate(794,774)"/>
<path d="M0 0 C2.3125 0.1875 2.3125 0.1875 4 1 C1.75 3.5625 1.75 3.5625 -1 6 C-3.3125 5.8125 -3.3125 5.8125 -5 5 C-2.75 2.4375 -2.75 2.4375 0 0 Z " fill="#CC4F29" transform="translate(620,672)"/>
<path d="M0 0 C1.13643966 3.40931897 0.86747764 4.00335456 -0.4375 7.1875 C-0.72496094 7.90292969 -1.01242187 8.61835937 -1.30859375 9.35546875 C-1.53675781 9.89816406 -1.76492188 10.44085937 -2 11 C-2.66 10.67 -3.32 10.34 -4 10 C-3.43454163 6.04179141 -2.19097652 3.3340947 0 0 Z " fill="#C44A26" transform="translate(657,614)"/>
<path d="M0 0 C0.33 0 0.66 0 1 0 C1.05422947 1.4370809 1.09289723 2.87475462 1.125 4.3125 C1.14820313 5.11300781 1.17140625 5.91351562 1.1953125 6.73828125 C1 9 1 9 -1 12 C-1.66 12 -2.32 12 -3 12 C-2.01 8.04 -1.02 4.08 0 0 Z " fill="#CC6443" transform="translate(254,531)"/>
<path d="M0 0 C2.10827055 3.16240582 2.33817465 4.50657469 2.625 8.1875 C2.69976563 9.08855469 2.77453125 9.98960937 2.8515625 10.91796875 C2.90054688 11.60503906 2.94953125 12.29210937 3 13 C1 12 1 12 0.375 10.4375 C-0.16368951 6.93601819 -0.05903219 3.54193167 0 0 Z " fill="#E66536" transform="translate(942,862)"/>
<path d="M0 0 C0.66 0.33 1.32 0.66 2 1 C1.67 3.64 1.34 6.28 1 9 C0.34 9 -0.32 9 -1 9 C-1.33 9.99 -1.66 10.98 -2 12 C-1.85831863 10.56208484 -1.71148957 9.1246763 -1.5625 7.6875 C-1.48128906 6.88699219 -1.40007813 6.08648438 -1.31640625 5.26171875 C-1 3 -1 3 0 0 Z " fill="#E16D43" transform="translate(992,773)"/>
<path d="M0 0 C0.33 0.66 0.66 1.32 1 2 C1.99 2 2.98 2 4 2 C2.60667426 5.36720387 1.0210714 6.9859524 -2 9 C-1.34 6.03 -0.68 3.06 0 0 Z " fill="#F5D6C8" transform="translate(612,673)"/>
<path d="M0 0 C1.15469014 3.94157386 0.82245557 6.96249082 0 11 C-0.66 11.66 -1.32 12.32 -2 13 C-3.18771723 9.57056481 -2.80226223 7.62215325 -1.5625 4.25 C-1.27503906 3.45078125 -0.98757813 2.6515625 -0.69140625 1.828125 C-0.46324219 1.22484375 -0.23507812 0.6215625 0 0 Z " fill="#CD5F40" transform="translate(362,333)"/>
<path d="M0 0 C0.75 1.5625 0.75 1.5625 1 4 C-0.13084437 6.50286409 -1.52139516 8.67007722 -3 11 C-3.66 11 -4.32 11 -5 11 C-3.77472971 6.94718288 -2.30119506 3.55639236 0 0 Z " fill="#E45F31" transform="translate(807,928)"/>
<path d="M0 0 C1.28222189 3.03070628 0.98589446 4.03596914 -0.25 7.1875 C-2 10 -2 10 -5 11 C-3.77472971 6.94718288 -2.30119506 3.55639236 0 0 Z " fill="#FADED2" transform="translate(842,917)"/>
<path d="M0 0 C0.66 0.33 1.32 0.66 2 1 C1.75 3.875 1.75 3.875 1 7 C-0.98 7.99 -0.98 7.99 -3 9 C-2.01 6.03 -1.02 3.06 0 0 Z " fill="#F7E0D6" transform="translate(690,896)"/>
<path d="M0 0 C0.66 0.33 1.32 0.66 2 1 C1.6875 2.875 1.6875 2.875 1 5 C0.01 5.66 -0.98 6.32 -2 7 C-2.66 6.67 -3.32 6.34 -4 6 C-2.84826645 3.53199953 -1.95216435 1.95216435 0 0 Z " fill="#E2653A" transform="translate(923,698)"/>
<path d="M0 0 C0.66 0 1.32 0 2 0 C1.14285714 8.57142857 1.14285714 8.57142857 -1 12 C-2.36884358 7.48281619 -1.47075246 4.41225737 0 0 Z " fill="#C64826" transform="translate(612,665)"/>
<path d="M0 0 C0.66 0 1.32 0 2 0 C2.77916092 5.02125926 3.13016601 8.97703996 2 14 C1.67 14 1.34 14 1 14 C0.04738513 9.23692563 -0.08333357 4.8333472 0 0 Z " fill="#C95B3B" transform="translate(361,483)"/>
<path d="M0 0 C0.6875 1.625 0.6875 1.625 1 4 C-0.4375 7.25 -0.4375 7.25 -2 10 C-2.99 10 -3.98 10 -5 10 C-3.66511872 6.40608886 -2.03977277 3.24509304 0 0 Z " fill="#898685" transform="translate(939,430)"/>
<path d="M0 0 C0.33 0 0.66 0 1 0 C1 2.97 1 5.94 1 9 C1.66 9 2.32 9 3 9 C2.67 11.97 2.34 14.94 2 18 C1.67 18 1.34 18 1 18 C-0.0712828 11.97403427 -0.09945415 6.11090483 0 0 Z " fill="#CB5A37" transform="translate(351,421)"/>
<path d="M0 0 C0.33 0 0.66 0 1 0 C0.14285714 8.57142857 0.14285714 8.57142857 -2 12 C-3.12377697 8.69564916 -2.89554742 6.9493138 -1.5625 3.75 C-1.27503906 3.04359375 -0.98757813 2.3371875 -0.69140625 1.609375 C-0.46324219 1.07828125 -0.23507812 0.5471875 0 0 Z " fill="#FCF5F0" transform="translate(360,334)"/>
<path d="M0 0 C0.75 1.625 0.75 1.625 1 4 C-0.8125 7.25 -0.8125 7.25 -3 10 C-3.66 10 -4.32 10 -5 10 C-3.66511872 6.40608886 -2.03977277 3.24509304 0 0 Z " fill="#F9DED2" transform="translate(115,173)"/>
<path d="M0 0 C0.6875 1.625 0.6875 1.625 1 4 C-0.4375 7.25 -0.4375 7.25 -2 10 C-2.66 9.67 -3.32 9.34 -4 9 C-2.94124926 5.59687262 -1.99097846 2.98646769 0 0 Z " fill="#FBE2D7" transform="translate(940,919)"/>
<path d="M0 0 C-1.49097658 3.7952131 -3.75700849 5.61042731 -7 8 C-7 5 -7 5 -4.625 2.3125 C-2 0 -2 0 0 0 Z " fill="#EAE4DF" transform="translate(838,240)"/>
<path d="M0 0 C1.45792884 -0.05399736 2.91642712 -0.09279177 4.375 -0.125 C5.18710938 -0.14820312 5.99921875 -0.17140625 6.8359375 -0.1953125 C9 0 9 0 11 2 C11 2.66 11 3.32 11 4 C7.37 3.01 3.74 2.02 0 1 C0 0.67 0 0.34 0 0 Z " fill="#EED0C4" transform="translate(1053,72)"/>
<path d="M0 0 C-2.52475462 1.26237731 -4.31200466 1.09856404 -7.125 1.0625 C-8.03507813 1.05347656 -8.94515625 1.04445313 -9.8828125 1.03515625 C-10.58148437 1.02355469 -11.28015625 1.01195312 -12 1 C-7.6193663 -1.92042247 -4.51820213 -3.01213475 0 0 Z " fill="#E76333" transform="translate(914,995)"/>
<path d="M0 0 C2 3 2 3 1.7578125 5.26171875 C1.54898438 6.06222656 1.34015625 6.86273437 1.125 7.6875 C0.92132813 8.49574219 0.71765625 9.30398438 0.5078125 10.13671875 C0.25644531 11.05904297 0.25644531 11.05904297 0 12 C-2 9 -2 9 -1.7578125 6.73828125 C-1.44457031 5.53751953 -1.44457031 5.53751953 -1.125 4.3125 C-0.92132813 3.50425781 -0.71765625 2.69601562 -0.5078125 1.86328125 C-0.34023437 1.24839844 -0.17265625 0.63351562 0 0 Z " fill="#F6E0D5" transform="translate(183,681)"/>
<path d="M0 0 C0.88492145 2.47778006 1.11637742 3.66056586 0.25 6.1875 C-1 8 -1 8 -4 9 C-2.94124926 5.59687262 -1.99097846 2.98646769 0 0 Z " fill="#CE5D3B" transform="translate(240,568)"/>
<path d="M0 0 C0.7425 0.433125 0.7425 0.433125 1.5 0.875 C4.91752035 2.41288416 8.3506202 3.14847805 12 4 C12 4.33 12 4.66 12 5 C4.66666667 5.36666667 4.66666667 5.36666667 1.5 3.625 C0 2 0 2 0 0 Z " fill="#9C9895" transform="translate(932,485)"/>
<path d="M0 0 C0.97110486 3.02121511 1.13617383 5.00463263 0 8 C-0.99 8.495 -0.99 8.495 -2 9 C-2.6875 7.3125 -2.6875 7.3125 -3 5 C-1.5625 2.25 -1.5625 2.25 0 0 Z " fill="#C74823" transform="translate(380,295)"/>
<path d="M0 0 C0.33 0.66 0.66 1.32 1 2 C0.071875 1.979375 -0.85625 1.95875 -1.8125 1.9375 C-5.02286011 1.84230396 -5.02286011 1.84230396 -8 3 C-10.1875 2.0625 -10.1875 2.0625 -12 1 C-8.0186217 -0.3271261 -4.14954773 -0.06915913 0 0 Z " fill="#F9DED3" transform="translate(239,92)"/>
<path d="M0 0 C-0.33 0.66 -0.66 1.32 -1 2 C-3.64860427 2.59355614 -6.29197322 2.74209269 -9 3 C-9.33 2.34 -9.66 1.68 -10 1 C-6.61981469 -0.04005702 -3.5219721 -0.08004482 0 0 Z " fill="#D7572D" transform="translate(1040,1151)"/>
<path d="M0 0 C2.31 1.98 4.62 3.96 7 6 C6.34 6.66 5.68 7.32 5 8 C2.5 5.6875 2.5 5.6875 0 3 C0 2.01 0 1.02 0 0 Z " fill="#F8DDD2" transform="translate(253,975)"/>
<path d="M0 0 C0.33 0 0.66 0 1 0 C1.33 4.95 1.66 9.9 2 15 C-1 12 -1 12 -1.07421875 9.08203125 C-0.94660156 8.00308594 -0.81898438 6.92414062 -0.6875 5.8125 C-0.56761719 4.72582031 -0.44773437 3.63914062 -0.32421875 2.51953125 C-0.21722656 1.68808594 -0.11023438 0.85664062 0 0 Z " fill="#E97747" transform="translate(818,967)"/>
<path d="M0 0 C0.66 1.32 1.32 2.64 2 4 C0.68 5.65 -0.64 7.3 -2 9 C-3 6 -3 6 -1.5625 2.8125 C-1.046875 1.884375 -0.53125 0.95625 0 0 Z " fill="#E5693D" transform="translate(916,910)"/>
<path d="M0 0 C0.99 0.33 1.98 0.66 3 1 C4.03039555 5.53374042 4.17766075 6.64467851 2 11 C1.34 7.37 0.68 3.74 0 0 Z " fill="#E76C41" transform="translate(1018,870)"/>
<path d="M0 0 C3.37462715 0.54723683 5.08235 1.0549 8 3 C8 3.66 8 4.32 8 5 C2.25 3.125 2.25 3.125 0 2 C0 1.34 0 0.68 0 0 Z " fill="#E5DFD8" transform="translate(1033,402)"/>
<path d="M0 0 C2 3.75 2 3.75 2 6 C1.34 6.66 0.68 7.32 0 8 C-0.33 8.66 -0.66 9.32 -1 10 C-2 9 -2 9 -2.0625 6.4375 C-2.041875 5.633125 -2.02125 4.82875 -2 4 C-1.34 4 -0.68 4 0 4 C0 2.68 0 1.36 0 0 Z " fill="#F1E6E3" transform="translate(72,1041)"/>
<path d="M0 0 C0.66 1.32 1.32 2.64 2 4 C0.68 5.65 -0.64 7.3 -2 9 C-3 6 -3 6 -1.5625 2.8125 C-1.046875 1.884375 -0.53125 0.95625 0 0 Z " fill="#FBDED2" transform="translate(1037,923)"/>
<path d="M0 0 C0.33 0 0.66 0 1 0 C0.67 2.97 0.34 5.94 0 9 C-0.99 9 -1.98 9 -3 9 C-2.01 6.03 -1.02 3.06 0 0 Z " fill="#F3CFC2" transform="translate(697,880)"/>
<path d="M0 0 C2.61527381 2.36620011 4.26440562 4.942048 6 8 C4.125 7.6875 4.125 7.6875 2 7 C0 4 0 4 0 0 Z " fill="#FADFD2" transform="translate(1003,844)"/>
<path d="M0 0 C2.29013653 3.4352048 2.17842973 4.985331 2 9 C1.01 9.495 1.01 9.495 0 10 C-0.74926071 6.33694766 -1.2380014 3.57644848 0 0 Z " fill="#F3D5C7" transform="translate(178,837)"/>
<path d="M0 0 C0.66 0.99 1.32 1.98 2 3 C1.01 4.98 0.02 6.96 -1 9 C-1.66 8.67 -2.32 8.34 -3 8 C-1.125 2.25 -1.125 2.25 0 0 Z " fill="#E46B3E" transform="translate(914,735)"/>
<path d="M0 0 C0.66 0 1.32 0 2 0 C1.6875 3.375 1.6875 3.375 1 7 C0.01 7.66 -0.98 8.32 -2 9 C-1.34 6.03 -0.68 3.06 0 0 Z " fill="#FBDED2" transform="translate(1042,729)"/>
<path d="M0 0 C0.6875 1.6875 0.6875 1.6875 1 4 C-0.3125 6.75 -0.3125 6.75 -2 9 C-2.66 9 -3.32 9 -4 9 C-2.80100302 5.9168649 -1.52299523 2.93720508 0 0 Z " fill="#C74C29" transform="translate(223,599)"/>
<path d="M0 0 C1.32 0.66 2.64 1.32 4 2 C2.6875 4 2.6875 4 1 6 C0.01 6 -0.98 6 -2 6 C-1.34 4.02 -0.68 2.04 0 0 Z " fill="#CE5731" transform="translate(350,587)"/>
<path d="M0 0 C0.33 0.99 0.66 1.98 1 3 C-0.9375 5.6875 -0.9375 5.6875 -3 8 C-3.99 7.67 -4.98 7.34 -6 7 C-4.02 4.69 -2.04 2.38 0 0 Z " fill="#C74624" transform="translate(410,254)"/>
<path d="M0 0 C2.64 0.33 5.28 0.66 8 1 C5.36095629 2.41377341 2.92879371 3.37240135 0 4 C0 2.68 0 1.36 0 0 Z " fill="#F1E7E3" transform="translate(188,72)"/>

<path d="M0 0 C-1.36983503 3.16115776 -1.9890638 3.9927092 -5 6 C-5.66 5.34 -6.32 4.68 -7 4 C-2.25 0 -2.25 0 0 0 Z " fill="#F2DCD3" transform="translate(1117,1138)"/>
<path d="M0 0 C2 3 2 3 1.625 6.1875 C1.41875 7.115625 1.2125 8.04375 1 9 C0.34 9 -0.32 9 -1 9 C-0.67 6.03 -0.34 3.06 0 0 Z " fill="#DD6C47" transform="translate(1156,1020)"/>
<path d="M0 0 C0.66 0 1.32 0 2 0 C2.33 2.31 2.66 4.62 3 7 C2.01 7.495 2.01 7.495 1 8 C0.67 5.36 0.34 2.72 0 0 Z " fill="#F9E3D6" transform="translate(988,810)"/>
<path d="M0 0 C0.66 0.33 1.32 0.66 2 1 C0.25 6.75 0.25 6.75 -2 9 C-1.125 2.25 -1.125 2.25 0 0 Z " fill="#F8E8DD" transform="translate(207,624)"/>
<path d="M0 0 C2.29633824 3.44450737 2.54016485 5.93812283 3 10 C1.5 8.9375 1.5 8.9375 0 7 C-0.1875 3.3125 -0.1875 3.3125 0 0 Z " fill="#CC5530" transform="translate(325,558)"/>
<path d="M0 0 C1.46911544 3.81970016 0.52561108 6.30641529 -1 10 C-1.66 10.66 -2.32 11.32 -3 12 C-2.25749403 7.91621717 -1.17076699 3.98060777 0 0 Z " fill="#9B9694" transform="translate(933,440)"/>
<path d="M0 0 C1.32 0.66 2.64 1.32 4 2 C0.7 2.66 -2.6 3.32 -6 4 C-3 1 -3 1 0 0 Z " fill="#EBE4DD" transform="translate(976,399)"/>
<path d="M0 0 C0.66 0.33 1.32 0.66 2 1 C0.25 6.75 0.25 6.75 -2 9 C-3 6 -3 6 -1.5625 2.8125 C-1.046875 1.884375 -0.53125 0.95625 0 0 Z " fill="#F9E6DD" transform="translate(374,301)"/>
<path d="M0 0 C0.33 0.99 0.66 1.98 1 3 C-0.9375 6.1875 -0.9375 6.1875 -3 9 C-3.75 7.3125 -3.75 7.3125 -4 5 C-2.0625 2.25 -2.0625 2.25 0 0 Z " fill="#FAE7DD" transform="translate(389,278)"/>
<path d="M0 0 C6.52307692 -0.36923077 6.52307692 -0.36923077 8.9375 1.5 C9.288125 1.995 9.63875 2.49 10 3 C8 4 8 4 6.0546875 3.44140625 C5.33539062 3.15136719 4.61609375 2.86132812 3.875 2.5625 C3.15054687 2.27503906 2.42609375 1.98757812 1.6796875 1.69140625 C0.84824219 1.34916016 0.84824219 1.34916016 0 1 C0 0.67 0 0.34 0 0 Z " fill="#DE663F" transform="translate(1045,99)"/>
<path d="M0 0 C0.66 0.33 1.32 0.66 2 1 C-0.17424117 3.50037734 -1.73045798 4.43628586 -5 5 C-5.33 4.34 -5.66 3.68 -6 3 C-4.03533587 1.93224776 -2.03144641 0.93446535 0 0 Z " fill="#E06A43" transform="translate(176,81)"/>
</svg>
