<svg xmlns="http://www.w3.org/2000/svg" viewBox="0 0 256 256" width="256" height="256" role="img" aria-hidden="true">
  <rect x="6" y="6" width="244" height="244" rx="34" fill="#fff3ed" stroke="#d24937" stroke-width="6"/>

  <!-- Extreme fire weather: flame + wind + heat lines -->
  <path d="M74 205 C46 181, 54 139, 80 113 C83 138, 105 133, 99 96 C131 126, 157 151, 152 188 C148 216, 100 229, 74 205Z" fill="#f26b2f" stroke="#c74330" stroke-width="7" stroke-linejoin="round"/>
  <path d="M93 211 C73 190, 83 160, 105 143 C106 163, 123 164, 123 141 C143 161, 157 184, 143 205 C132 222, 108 224, 93 211Z" fill="#ffd166"/>
  <g fill="none" stroke="#777977" stroke-width="8" stroke-linecap="round">
    <path d="M164 92 H211 C225 92, 225 70, 208 70"/>
    <path d="M160 124 H221 C239 124, 239 96, 216 101"/>
    <path d="M167 154 H203 C217 154, 217 174, 201 174"/>
  </g>
  <g stroke="#d24937" stroke-width="7" stroke-linecap="round">
    <path d="M178 178 C166 190, 193 202, 178 215"/>
    <path d="M203 178 C191 190, 218 202, 203 215"/>
    <path d="M228 178 C216 190, 243 202, 228 215"/>
  </g>

</svg>
